<?xml version="1.0" encoding="UTF-8"?>
<!-- Generator: Adobe Illustrator 25.4.1, SVG Export Plug-In . SVG Version: 6.00 Build 0)  -->
<svg xmlns="http://www.w3.org/2000/svg" xmlns:xlink="http://www.w3.org/1999/xlink" version="1.1" x="0px" y="0px" viewBox="0 0 333.7 333.7" style="enable-background:new 0 0 333.7 333.7;" xml:space="preserve">
<style type="text/css">
	.st0{fill:#3BBFAD;}
	.st1{fill:#0C2949;}
	.st2{fill:none;}
	.st3{fill:#FFFFFF;}
	.st4{fill:#7B868C;}
	.st5{fill:none;stroke:#7B868C;stroke-width:0.5;stroke-miterlimit:10;}
	.st6{opacity:0.3;}
	.st7{fill-rule:evenodd;clip-rule:evenodd;fill:#DF1C54;}
	.st8{fill:#BC4A9B;}
	.st9{fill:none;stroke:#3BBFAD;stroke-width:14;stroke-miterlimit:10;}
	.st10{fill:none;stroke:#FBB040;stroke-width:14;stroke-miterlimit:10;}
	.st11{fill:#010101;}
	.st12{fill:#39BDAC;}
</style>
<g id="Layer_2">
</g>
<g id="Layer_1">
	<g>
		<path class="st3" d="M256.6,190.9l-48.8,28.4c1.7-10.6-4.7-21.1-15.5-24.6c-0.3-0.1-0.7-0.2-1-0.3c-13.8-2.5-27.6-7.5-38.7-11.5    c-3.9-1.4-7.6-2.8-10.8-3.8c-13.9-4.5-26.2,0.9-36.4,6.8l-33.4,19.4l-1.7-2.9c-2-3.5-5.3-6.1-9.2-7.2c-3.9-1.1-8-0.6-11.5,1.4    l-13.8,7.8c-7.3,4.1-9.9,13.4-5.7,20.7l40.6,71.7c2,3.5,5.3,6.1,9.2,7.2c1.3,0.4,2.7,0.6,4.1,0.6c2.6,0,5.2-0.7,7.5-2l13.8-7.8    c3.5-2,6.1-5.3,7.2-9.2c1.1-3.9,0.6-8-1.4-11.5l-2.4-4.3l4-2.3l61.6,16.5c3.8,1,7.5,1.5,11.3,1.5c7.6,0,14.8-2.1,21.5-6.2l89.3-55    c9.7-6,12.9-20.9,6.6-31.4C299.5,188,287.3,173,256.6,190.9z M100.5,255.9l-20.8-36.7l33.6-19.4c7.5-4.3,15.5-8,23.5-5.4    c2.9,1,6.4,2.2,10.3,3.6c11.5,4.1,25.7,9.3,40.7,12.1c3.2,1.2,5,4.3,4.2,7.2c-0.4,1.3-1.3,4.8-7.3,4.1c-7-1.5-13.8-3.4-21-5.4    c-3.5-1-7.1-2-10.8-3c-4.2-1.1-8.6,1.4-9.7,5.6c-1.1,4.2,1.4,8.6,5.6,9.7c3.6,1,7.1,2,10.5,2.9c6.6,1.9,22.3,5.8,22.8,5.9l6.1,1    c10,1.6,18.9,0,27.2-4.8l49.2-28.6c12.1-7,21.3-8.4,24.3-3.5c2,3.3,0.9,8.3-1.3,9.7l-89.2,55c-6.2,3.8-13,4.8-20.3,2.8l-64.7-17.3    c-0.7-0.2-1.4-0.3-2.1-0.3c-1.4,0-2.7,0.4-4,1.1L100.5,255.9z M96.6,281.3L84,288.4L44.2,218l12.5-7.1L96.6,281.3z"></path>
		<g>
			<path class="st12" d="M125.3,102.2c3.8,0,6.9-3.1,6.9-6.9c0-3.8-3.1-6.9-6.9-6.9c-3.8,0-6.9,3.1-6.9,6.9     C118.4,99.1,121.5,102.2,125.3,102.2z"></path>
			<path class="st12" d="M260.1,100.5l-7.2-29c-1.9-7.5-8.6-12.7-16.3-12.7h-29.5l-4.2-16.9c-1.9-7.5-8.6-12.7-16.3-12.7H133     c-7.7,0-14.4,5.2-16.3,12.7l-7.3,29c-6.6,3.4-10.8,10.3-10.8,17.8v13.1c0,7.1,3.7,13.7,9.9,17.3v9c0,7.4,6.1,13.5,13.5,13.5h6.6     c7.4,0,13.5-6.1,13.5-13.5v-6.2h5.9v9.5c0,7.1,3.7,13.7,9.9,17.3v9c0,7.4,6.1,13.5,13.5,13.5h6.6c7.4,0,13.5-6.1,13.5-13.5v-6.2     h36.1v6.2c0,7.4,6.1,13.5,13.5,13.5h6.6c7.4,0,13.5-6.1,13.5-13.5v-9c6.1-3.6,9.9-10.1,9.9-17.3v-13.1     C271,110.8,266.7,103.9,260.1,100.5z M161.8,118.3c0-3.4,2.8-6.2,6.2-6.2h82.8c3.4,0,6.2,2.8,6.2,6.2v13.1c0,3.4-2.8,6.2-6.2,6.2     H168c-3.4,0-6.2-2.8-6.2-6.2V118.3z M161.8,88.3H147c-3.8,0-6.9,3.1-6.9,6.9c0,3.8,3.1,6.9,6.9,6.9h9c-2.1,1.6-3.9,3.6-5.3,5.9     h-32c-3.4,0-6.2-2.8-6.2-6.2V88.7c0-3.4,2.8-6.2,6.2-6.2h44.5L161.8,88.3z M182.3,58.7c-6.6,0-12.6,3.9-15.3,9.9h-42.7l5.8-23.4     c0.3-1.3,1.5-2.2,2.8-2.2h53.6c1.3,0,2.5,0.9,2.8,2.2l3.4,13.5H182.3z M173.6,98.2l5.8-23.4c0.3-1.3,1.5-2.2,2.8-2.2h54.3     c1.3,0,2.5,0.9,2.8,2.2l5.8,23.4H173.6z M128.2,121.9v5.9h-5.9v-5.9H128.2z M177.5,151.5v5.9h-5.9v-5.9H177.5z M247.2,151.5v5.9     h-5.9v-5.9H247.2z"></path>
			<path class="st12" d="M174.6,131.8c3.8,0,6.9-3.1,6.9-6.9c0-3.8-3.1-6.9-6.9-6.9c-3.8,0-6.9,3.1-6.9,6.9     C167.7,128.7,170.8,131.8,174.6,131.8z"></path>
			<path class="st12" d="M244.3,131.8c3.8,0,6.9-3.1,6.9-6.9c0-3.8-3.1-6.9-6.9-6.9c-3.8,0-6.9,3.1-6.9,6.9     C237.4,128.7,240.5,131.8,244.3,131.8z"></path>
			<path class="st12" d="M196.3,131.8h26.2c3.8,0,6.9-3.1,6.9-6.9c0-3.8-3.1-6.9-6.9-6.9h-26.2c-3.8,0-6.9,3.1-6.9,6.9     C189.4,128.7,192.5,131.8,196.3,131.8z"></path>
		</g>
	</g>
</g>
<g id="Layer_3">
</g>
</svg>
