<?xml version="1.0" encoding="UTF-8"?>
<!-- Generator: Adobe Illustrator 25.4.1, SVG Export Plug-In . SVG Version: 6.00 Build 0)  -->
<svg xmlns="http://www.w3.org/2000/svg" xmlns:xlink="http://www.w3.org/1999/xlink" version="1.1" x="0px" y="0px" viewBox="0 0 333.7 333.7" style="enable-background:new 0 0 333.7 333.7;" xml:space="preserve">
<style type="text/css">
	.st0{fill:#3BBFAD;}
	.st1{fill:#0C2949;}
	.st2{fill:none;}
	.st3{fill:#FFFFFF;}
	.st4{fill:#7B868C;}
	.st5{fill:none;stroke:#7B868C;stroke-width:0.5;stroke-miterlimit:10;}
	.st6{opacity:0.3;}
	.st7{fill-rule:evenodd;clip-rule:evenodd;fill:#DF1C54;}
	.st8{fill:#BC4A9B;}
	.st9{fill:none;stroke:#3BBFAD;stroke-width:14;stroke-miterlimit:10;}
	.st10{fill:none;stroke:#FBB040;stroke-width:14;stroke-miterlimit:10;}
	.st11{fill:#010101;}
	.st12{fill:#39BDAC;}
</style>
<g id="Layer_2">
	<g>
		<g>
			<path class="st3" d="M176.4,186.7c-1.3-1.8-3.4-2.9-5.7-2.9c-2.2,0-4.4,1.1-5.7,2.9l-26.8,37.5c-1.5,2.1-1.7,4.9-0.5,7.2     s3.6,3.8,6.2,3.8h3.8v55.1c0,3.8,3.1,7,7,7s7-3.1,7-7v-62c0-3-1.9-5.5-4.5-6.5l13.6-19l13.6,19c-2.6,1-4.5,3.5-4.5,6.5v62     c0,3.8,3.1,7,7,7c3.8,0,7-3.1,7-7v-55.1h3.8c2.6,0,5-1.4,6.2-3.8c1.2-2.3,1-5.1-0.5-7.2L176.4,186.7z"></path>
			<path class="st3" d="M278.3,197.5l-26.8-37.5c-1.3-1.8-3.4-2.9-5.7-2.9c-2.2,0-4.4,1.1-5.7,2.9l-26.8,37.5     c-1.5,2.1-1.7,4.9-0.5,7.2c1.2,2.3,3.6,3.8,6.2,3.8h3.8v81.9c0,3.8,3.1,7,7,7s7-3.1,7-7v-88.8c0-3-1.9-5.5-4.5-6.5l13.6-19     l13.6,19c-2.6,1-4.5,3.5-4.5,6.5v88.8c0,3.8,3.1,7,7,7c3.8,0,7-3.1,7-7v-81.9h3.8c2.6,0,5-1.4,6.2-3.8     C280,202.4,279.8,199.6,278.3,197.5z"></path>
			<path class="st3" d="M101.4,213.5c-1.3-1.8-3.4-2.9-5.7-2.9s-4.4,1.1-5.7,2.9l-26.8,37.5c-1.5,2.1-1.7,4.9-0.5,7.2     c1.2,2.3,3.6,3.8,6.2,3.8h3.8v28.3c0,3.8,3.1,7,7,7s7-3.1,7-7v-35.2c0-3-1.9-5.5-4.5-6.5l13.6-19l13.6,19c-2.6,1-4.5,3.5-4.5,6.5     v35.2c0,3.8,3.1,7,7,7s7-3.1,7-7v-28.3h3.8c2.6,0,5-1.4,6.2-3.8c1.2-2.3,1-5.1-0.5-7.2L101.4,213.5z"></path>
		</g>
		<path class="st3" d="M42.2,291.5V35.1c0-3.9-3.2-7-7-7s-7,3.2-7,7v263.5c0,3.9,3.2,7,7,7h263.5c3.9,0,7-3.2,7-7s-3.2-7-7-7H42.2z"></path>
		<path class="st0" d="M289.5,28.1h-21.2c-3.9,0-7,3.2-7,7s3.2,7,7,7h3.7l-86.9,83l-21.9-21.9c-0.2-0.2-0.3-0.4-0.5-0.6    c-2.7-2.6-6.9-2.6-9.6-0.1c-0.1,0.1-0.3,0.2-0.4,0.4l-92.3,96.8c-2.7,2.8-2.6,7.3,0.2,10c2.8,2.7,7.3,2.6,10-0.2l87.3-91.5    l21.5,21.5c0.2,0.2,0.3,0.4,0.5,0.6c2.7,2.8,7.2,2.9,10,0.2l0.2-0.2l92.4-88.3v4.6c0,3.9,3.2,7,7,7s7-3.2,7-7V35.1    C296.6,31.2,293.4,28.1,289.5,28.1z"></path>
	</g>
</g>
<g id="Layer_1">
</g>
<g id="Layer_3">
</g>
</svg>
