<?xml version="1.0" encoding="UTF-8"?>
<!-- Generator: Adobe Illustrator 25.4.1, SVG Export Plug-In . SVG Version: 6.00 Build 0)  -->
<svg xmlns="http://www.w3.org/2000/svg" xmlns:xlink="http://www.w3.org/1999/xlink" version="1.1" x="0px" y="0px" viewBox="0 0 333.7 333.7" style="enable-background:new 0 0 333.7 333.7;" xml:space="preserve">
<style type="text/css">
	.st0{fill:#3BBFAD;}
	.st1{fill:#0C2949;}
	.st2{fill:none;}
	.st3{fill:#FFFFFF;}
	.st4{fill:#7B868C;}
	.st5{fill:none;stroke:#7B868C;stroke-width:0.5;stroke-miterlimit:10;}
	.st6{opacity:0.3;}
	.st7{fill-rule:evenodd;clip-rule:evenodd;fill:#DF1C54;}
	.st8{fill:#BC4A9B;}
	.st9{fill:none;stroke:#3BBFAD;stroke-width:14;stroke-miterlimit:10;}
	.st10{fill:none;stroke:#FBB040;stroke-width:14;stroke-miterlimit:10;}
	.st11{fill:#010101;}
	.st12{fill:#39BDAC;}
</style>
<g id="Layer_2">
	<g>
		<g>
			<g>
				<g id="g2257_00000065056776032986820940000006493265012051908006_" transform="translate(15,391)">
					<g id="path2259_00000104707045998204987650000001886312575845308315_">
						<path class="st3" d="M20-290.5c-3.9,0-7-3.1-7-7v-19.9c0-15.5,12.6-28.2,28.2-28.2H61c3.9,0,7,3.1,7,7s-3.1,7-7,7H41.2        c-7.8,0-14.2,6.4-14.2,14.2v19.9C27-293.6,23.8-290.5,20-290.5z"></path>
					</g>
				</g>
				<g id="g2261_00000005259469463949808000000012816309739005343915_" transform="translate(422,466)">
					<g id="path2263_00000180343215850643657750000012515344858511455666_">
						<path class="st3" d="M-123.2-365.5c-3.9,0-7-3.1-7-7v-19.9c0-7.8-6.4-14.2-14.2-14.2h-19.9c-3.9,0-7-3.1-7-7s3.1-7,7-7h19.9        c15.5,0,28.2,12.6,28.2,28.2v19.9C-116.2-368.6-119.4-365.5-123.2-365.5z"></path>
					</g>
				</g>
				<g id="g2265_00000129916756275525628590000004862691616125432968_" transform="translate(497,121)">
					<g id="path2267_00000035522170689713852180000003444807449575138177_">
						<path class="st3" d="M-219.4,168.4h-19.9c-3.9,0-7-3.1-7-7s3.1-7,7-7h19.9c7.8,0,14.2-6.4,14.2-14.2v-19.9c0-3.9,3.1-7,7-7        s7,3.1,7,7v19.9C-191.2,155.7-203.9,168.4-219.4,168.4z"></path>
					</g>
				</g>
				<g id="g2269_00000115497765838166817550000014901323436206348724_" transform="translate(90,46)">
					<g id="path2271_00000116204913596851449270000014603116103681317308_">
						<path class="st3" d="M-14,243.4h-19.1c-16,0-28.9-13-28.9-28.9v-19.1c0-3.9,3.1-7,7-7s7,3.1,7,7v19.1        c0,8.2,6.7,14.9,14.9,14.9H-14c3.9,0,7,3.1,7,7S-10.1,243.4-14,243.4z"></path>
					</g>
				</g>
			</g>
			<g id="g2277_00000132796668451205118230000014857444465062662034_" transform="translate(493.2998,256)">
				<g id="path2279_00000052075783862671618330000017551172861951993007_">
					<path class="st3" d="M-326.4,0.5c-55.3,0-101.3-44-123.8-70.2c-9.4-10.9-9.4-26.8,0-37.8c22.5-26.2,68.5-70.2,123.8-70.2       s101.3,44,123.8,70.2c9.4,10.9,9.4,26.8,0,37.8C-225.1-43.5-271.1,0.5-326.4,0.5z M-326.4-163.7c-49.7,0-92.2,40.9-113.2,65.3       c-4.9,5.7-4.9,13.9,0,19.5c20.9,24.4,63.5,65.3,113.2,65.3s92.2-40.9,113.2-65.3c4.9-5.7,4.9-13.9,0-19.5l0,0       C-234.2-122.7-276.7-163.7-326.4-163.7z"></path>
				</g>
			</g>
		</g>
		<g>
			<g id="g2273_00000122696123001630615930000005070320799675617724_" transform="translate(346,256)">
				<g id="path2275_00000016051484617484251450000004958906301417267118_">
					<path class="st0" d="M-179.1-32.3c-31,0-56.3-25.2-56.3-56.3s25.2-56.3,56.3-56.3s56.3,25.2,56.3,56.3S-148.1-32.3-179.1-32.3z        M-179.1-130.8c-23.3,0-42.3,19-42.3,42.3s19,42.3,42.3,42.3s42.3-19,42.3-42.3S-155.8-130.8-179.1-130.8z"></path>
				</g>
			</g>
			<g id="g2281_00000028284119159344473990000013272293126494974091_" transform="translate(256,226)">
				<g id="path2283_00000013894135207945061090000003974173474628574889_">
					<path class="st0" d="M-89.1-35.2c-12.9,0-23.4-10.5-23.4-23.4S-102.1-82-89.1-82s23.4,10.5,23.4,23.4S-76.2-35.2-89.1-35.2z        M-89.1-68c-5.2,0-9.4,4.2-9.4,9.4s4.2,9.4,9.4,9.4s9.4-4.2,9.4-9.4S-83.9-68-89.1-68z"></path>
				</g>
			</g>
		</g>
	</g>
</g>
<g id="Layer_1">
</g>
<g id="Layer_3">
</g>
</svg>
