<?xml version="1.0" encoding="UTF-8"?>
<!-- Generator: Adobe Illustrator 25.4.1, SVG Export Plug-In . SVG Version: 6.00 Build 0)  -->
<svg xmlns="http://www.w3.org/2000/svg" xmlns:xlink="http://www.w3.org/1999/xlink" version="1.1" x="0px" y="0px" viewBox="0 0 333.7 333.7" style="enable-background:new 0 0 333.7 333.7;" xml:space="preserve">
<style type="text/css">
	.st0{fill:#3BBFAD;}
	.st1{fill:#0C2949;}
	.st2{fill:none;}
	.st3{fill:#FFFFFF;}
	.st4{fill:#7B868C;}
	.st5{fill:none;stroke:#7B868C;stroke-width:0.5;stroke-miterlimit:10;}
	.st6{opacity:0.3;}
	.st7{fill-rule:evenodd;clip-rule:evenodd;fill:#DF1C54;}
	.st8{fill:#BC4A9B;}
	.st9{fill:none;stroke:#3BBFAD;stroke-width:14;stroke-miterlimit:10;}
	.st10{fill:none;stroke:#FBB040;stroke-width:14;stroke-miterlimit:10;}
	.st11{fill:#010101;}
	.st12{fill:#39BDAC;}
</style>
<g id="Layer_2">
</g>
<g id="Layer_1">
	<g>
		<g>
			<path class="st3" d="M303.8,289.4l-89-123c-2.5-3.5-7.6-5.6-13.6-5.6H179c0,0,0,0,0,0h-23.4c0,0,0,0,0,0h-23.8     c-6,0-11.1,2.1-13.6,5.6l-89,123c-2.1,2.9-2.4,6.5-0.8,9.6c2.2,4.3,7.7,6.9,14.4,6.9H66c0,0,0,0,0,0c0,0,0,0,0,0h202.7     c0,0,0,0,0,0c0,0,0,0,0,0h21.4c6.7,0,12.2-2.7,14.4-6.9C306.2,295.8,305.9,292.2,303.8,289.4z M175.4,174.8l80,117.1H79.3     l80-117.1H175.4z M129.2,175.2c0.5-0.2,1.4-0.4,2.7-0.4h10.5l-80,117.1H44.7L129.2,175.2z M272.4,291.9l-80-117.1h8.8     c1.3,0,2.2,0.2,2.7,0.4l84.4,116.7H272.4z"></path>
			<path class="st3" d="M166.5,218c3.9,0,7-3.1,7-7v-19.7c0-3.9-3.1-7-7-7s-7,3.1-7,7V211C159.5,214.8,162.7,218,166.5,218z"></path>
			<path class="st3" d="M166.5,280.6c3.9,0,7-3.1,7-7v-32.3c0-3.9-3.1-7-7-7s-7,3.1-7,7v32.3C159.5,277.5,162.7,280.6,166.5,280.6z"></path>
		</g>
		<g>
			<path class="st0" d="M241.2,70.2c-13.6-15.8-41.4-42.3-75.2-42.3c-33.8,0-61.6,26.5-75.2,42.3c-6.6,7.7-6.6,18.9,0,26.7     c13.6,15.8,41.4,42.3,75.2,42.3c33.8,0,61.6-26.5,75.2-42.3C247.8,89.1,247.8,77.9,241.2,70.2z M229.6,86.9     c-11.9,13.8-35.9,37-63.6,37c-27.7,0-51.7-23.2-63.6-37c-1.7-2-1.7-4.9,0-6.9c11.9-13.8,35.9-37,63.6-37     c27.7,0,51.7,23.2,63.6,37C231.3,82.1,231.3,85,229.6,86.9z"></path>
			<path class="st0" d="M166,54.3c-16.1,0-29.2,13.1-29.2,29.2s13.1,29.2,29.2,29.2s29.2-13.1,29.2-29.2S182.1,54.3,166,54.3z      M166,99.3c-8.7,0-15.8-7.1-15.8-15.8c0-8.7,7.1-15.8,15.8-15.8c8.7,0,15.8,7.1,15.8,15.8C181.8,92.2,174.7,99.3,166,99.3z"></path>
			<circle class="st0" cx="167.1" cy="82.8" r="7.1"></circle>
		</g>
	</g>
</g>
<g id="Layer_3">
</g>
</svg>
