<?xml version="1.0" encoding="UTF-8"?>
<!-- Generator: Adobe Illustrator 25.4.1, SVG Export Plug-In . SVG Version: 6.00 Build 0)  -->
<svg xmlns="http://www.w3.org/2000/svg" xmlns:xlink="http://www.w3.org/1999/xlink" version="1.1" x="0px" y="0px" viewBox="0 0 333.7 333.7" style="enable-background:new 0 0 333.7 333.7;" xml:space="preserve">
<style type="text/css">
	.st0{fill:#3BBFAD;}
	.st1{fill:#0C2949;}
	.st2{fill:none;}
	.st3{fill:#FFFFFF;}
	.st4{fill:#7B868C;}
	.st5{fill:none;stroke:#7B868C;stroke-width:0.5;stroke-miterlimit:10;}
	.st6{opacity:0.3;}
	.st7{fill-rule:evenodd;clip-rule:evenodd;fill:#DF1C54;}
	.st8{fill:#BC4A9B;}
	.st9{fill:none;stroke:#3BBFAD;stroke-width:14;stroke-miterlimit:10;}
	.st10{fill:none;stroke:#FBB040;stroke-width:14;stroke-miterlimit:10;}
	.st11{fill:#010101;}
	.st12{fill:#39BDAC;}
</style>
<g id="Layer_2">
</g>
<g id="Layer_1">
	<g>
		<path class="st0" d="M193.1,115.6c-2.7,0-5.4,0.5-7.9,1.4c-7.1-7.2-16.9-11.3-27-11.3c-19.1,0-35.3,14.4-37.7,33.2    c-6,2-11.4,5.6-15.6,10.5c-5.3,6.3-8.3,14.2-8.3,22.4c0,19,15.5,34.5,34.5,34.5h71.4c19,0,34.5-15.5,34.5-34.5    c0-13.7-8.2-26.1-20.6-31.6c0-0.3,0-0.7,0-1C216.5,126.1,206,115.6,193.1,115.6z M133.2,143.6c0-13.7,11.2-24.9,24.9-24.9    c7.9,0,15.5,3.8,20.1,10.2c2.1,2.9,6,3.5,8.9,1.5c1.7-1.2,3.8-1.8,5.9-1.8c5.7,0,10.4,4.7,10.4,10.4c0,1.1-0.2,2.2-0.5,3.3    c-0.6,1.7-0.4,3.6,0.5,5.2c0.9,1.6,2.4,2.7,4.2,3.2c9.7,2.4,16.4,10.9,16.4,20.9c0,11.8-9.6,21.5-21.5,21.5h-71.4    c-11.8,0-21.5-9.6-21.5-21.5c0-10.4,7.8-19.5,18.1-21.2c3.2-0.5,5.5-3.3,5.5-6.5L133.2,143.6z"></path>
		<path class="st0" d="M174.6,61.3c1.6,0.9,3.5,1.2,5.3,0.7c38.4-10.3,78.1,12.6,88.4,51c0.8,3.1,3.6,5.2,6.8,5.2    c0.6,0,1.2-0.1,1.8-0.2c3.7-1,6-4.9,5-8.6c-12.3-45.9-59.6-73.2-105.5-60.9c-1.8,0.5-3.3,1.6-4.3,3.3c-0.9,1.6-1.2,3.5-0.7,5.3    S172.9,60.3,174.6,61.3z"></path>
		<path class="st3" d="M284.8,54.8h-7.6c-3.9,0-7,3.1-7,7s3.1,7,7,7h7.6c3.7,0,6.7,3,6.7,6.7v149.3H42.1V75.6c0-2.2,1-4.1,2.6-5.3    c-1.4,4.4-2.1,8.9-2.1,13.6c0,24.3,19.8,44.2,44.2,44.2s44.2-19.8,44.2-44.2c0-5.2-0.9-10.2-2.6-15H161c3.9,0,7-3.1,7-7    s-3.1-7-7-7H120c-8.4-9.6-20.4-15.1-33.2-15.1C74,39.7,62,45.2,53.5,54.8h-4.7c-11.5,0-20.8,9.3-20.8,20.8v165.6    c0,11.5,9.3,20.8,20.8,20.8H105l-10.6,18.3c-1.7,2.9-1.7,6.3,0,9.1c1.6,2.8,4.7,4.6,8,4.6h129.2c3.3,0,6.3-1.8,8-4.6    c1.6-2.9,1.6-6.3,0-9.1l-10.6-18.3h56.1c11.5,0,20.8-9.3,20.8-20.8V75.6C305.6,64.1,296.3,54.8,284.8,54.8z M212.5,261.9l10.5,18    H110.8l10.5-18H212.5z M291.6,238.9v2.3c0,3.7-3,6.7-6.7,6.7h-236c-3.7,0-6.7-3-6.7-6.7v-2.3H291.6z M56.6,83.9    c0-16.6,13.5-30.1,30.1-30.1c16.6,0,30.1,13.5,30.1,30.1S103.4,114,86.8,114C70.2,114,56.6,100.5,56.6,83.9z"></path>
		<path class="st3" d="M78.1,98.2c1.2,1.1,2.7,1.8,4.3,1.8c1.7,0,3.2-0.7,4.4-1.8l19.5-19.7c2.4-2.4,2.4-6.4,0-8.8    c-1.2-1.2-2.7-1.8-4.4-1.8c-1.7,0-3.2,0.7-4.4,1.8L82.4,85l-6.5-6.3c-1.2-1.2-2.7-1.8-4.4-1.8c-1.7,0-3.2,0.7-4.4,1.9    c-2.4,2.4-2.3,6.4,0.1,8.8L78.1,98.2z"></path>
		<path class="st0" d="M241,120.3c-3-11.3-10.3-20.8-20.5-26.7c-10.2-5.9-22-7.4-33.4-4.4c-3.7,1-6,4.9-5,8.6s4.9,6,8.6,5    c7.7-2.1,15.8-1,22.7,3c6.9,4,11.9,10.4,14,18.2c0.8,3.1,3.6,5.2,6.8,5.2c0.6,0,1.2-0.1,1.8-0.2C239.8,127.9,242,124,241,120.3z"></path>
		<path class="st0" d="M254.6,123.6C254.6,123.6,254.6,123.6,254.6,123.6c0.6,0,1.2-0.1,1.8-0.2c1.8-0.5,3.3-1.6,4.3-3.3    s1.2-3.5,0.7-5.3c-9.3-34.7-45-55.3-79.7-46c-1.8,0.5-3.3,1.6-4.3,3.3s-1.2,3.5-0.7,5.3c1,3.7,4.9,6,8.6,5    c13.1-3.5,26.9-1.7,38.7,5.1c11.8,6.8,20.3,17.8,23.8,31C248.7,121.5,251.5,123.6,254.6,123.6z"></path>
	</g>
</g>
<g id="Layer_3">
</g>
</svg>
