<?xml version="1.0" encoding="UTF-8"?>
<!-- Generator: Adobe Illustrator 25.4.1, SVG Export Plug-In . SVG Version: 6.00 Build 0)  -->
<svg xmlns="http://www.w3.org/2000/svg" xmlns:xlink="http://www.w3.org/1999/xlink" version="1.1" x="0px" y="0px" viewBox="0 0 333.7 333.7" style="enable-background:new 0 0 333.7 333.7;" xml:space="preserve">
<style type="text/css">
	.st0{fill:#3BBFAD;}
	.st1{fill:#0C2949;}
	.st2{fill:none;}
	.st3{fill:#FFFFFF;}
	.st4{fill:#7B868C;}
	.st5{fill:none;stroke:#7B868C;stroke-width:0.5;stroke-miterlimit:10;}
	.st6{opacity:0.3;}
	.st7{fill-rule:evenodd;clip-rule:evenodd;fill:#DF1C54;}
	.st8{fill:#BC4A9B;}
	.st9{fill:none;stroke:#3BBFAD;stroke-width:14;stroke-miterlimit:10;}
	.st10{fill:none;stroke:#FBB040;stroke-width:14;stroke-miterlimit:10;}
	.st11{fill:#010101;}
	.st12{fill:#39BDAC;}
</style>
<g id="Layer_2">
</g>
<g id="Layer_1">
	<g>
		<path class="st0" d="M166.9,59.9c-58.3,0-105.7,47.4-105.7,105.7s47.4,105.7,105.7,105.7c58.2-0.1,105.7-47.5,105.7-105.7    C272.6,107.4,225.2,59.9,166.9,59.9z M130.7,187.1c-1.9-14.6-2.5-29.4-1.7-44.2c11.3-8.5,24-16.1,37.9-22.6    c13,5.9,25.5,13.5,37.2,22.7c1.1,13.7,1,28.4-0.4,43.8c-11.1,8.1-23.2,15.1-35.8,20.6C154.7,202.1,142.2,195.3,130.7,187.1z     M217.6,175.6c2.5-48.4-8-79.1-17.2-96.3c24.2,9.4,43.5,28.6,53,53C249.9,138.4,238.6,156.9,217.6,175.6z M109.7,92.7    C125.9,79.9,145.9,73,166.9,73c4.9,0,9.8,0.4,14.7,1.2c3.8,4.7,14.8,20.7,20.2,50.9C164.7,99.5,129.6,93.7,109.7,92.7z     M150.5,113.9c-43.7,23.1-65.1,51.7-74.7,69c-1.1-5.6-1.6-11.4-1.6-17.2c0-21.9,7.8-43.1,21.9-59.8    C102.8,105.4,123.8,105,150.5,113.9z M115.6,154.1c-0.3,45.1,11.6,80.3,19.4,98.6c-24-8.8-43.6-27.4-53.6-51.2    C83.8,195.3,92.6,175.4,115.6,154.1z M165.6,220.5c20,7.8,40.9,12.9,62.3,15c-16.9,14.8-38.3,22.9-61,22.9    c-5.2,0-10.4-0.4-15.5-1.3c-3.2-6.2-12.1-25.1-17.7-52.4C143.8,210.9,154.5,216.2,165.6,220.5z M213.8,195.4    c22-16.6,36.1-34.1,44.3-46.1c1,5.4,1.5,10.8,1.5,16.3c0,20.9-7.1,41.3-20.1,57.6c-18.5-1-36.7-4.2-54.3-9.7    C195.2,208.3,204.8,202.3,213.8,195.4z"></path>
		<g>
			<path class="st3" d="M166.9,305.6c-76.5,0-138.8-62.3-138.8-138.8c0-76.5,62.3-138.8,138.8-138.8c76.5,0,138.8,62.3,138.8,138.8     C305.6,243.4,243.4,305.6,166.9,305.6z M166.9,42.1c-68.8,0-124.8,56-124.8,124.8c0,68.8,56,124.8,124.8,124.8     c68.8,0,124.8-56,124.8-124.8C291.6,98.1,235.7,42.1,166.9,42.1z"></path>
		</g>
	</g>
</g>
<g id="Layer_3">
</g>
</svg>
