<?xml version="1.0" encoding="UTF-8"?>
<!-- Generator: Adobe Illustrator 25.4.1, SVG Export Plug-In . SVG Version: 6.00 Build 0)  -->
<svg xmlns="http://www.w3.org/2000/svg" xmlns:xlink="http://www.w3.org/1999/xlink" version="1.1" x="0px" y="0px" viewBox="0 0 333.7 333.7" style="enable-background:new 0 0 333.7 333.7;" xml:space="preserve">
<style type="text/css">
	.st0{fill:#3BBFAD;}
	.st1{fill:#0C2949;}
	.st2{fill:none;}
	.st3{fill:#FFFFFF;}
	.st4{fill:#7B868C;}
	.st5{fill:none;stroke:#7B868C;stroke-width:0.5;stroke-miterlimit:10;}
	.st6{opacity:0.3;}
	.st7{fill-rule:evenodd;clip-rule:evenodd;fill:#DF1C54;}
	.st8{fill:#BC4A9B;}
	.st9{fill:none;stroke:#3BBFAD;stroke-width:14;stroke-miterlimit:10;}
	.st10{fill:none;stroke:#FBB040;stroke-width:14;stroke-miterlimit:10;}
	.st11{fill:#010101;}
	.st12{fill:#39BDAC;}
</style>
<g id="Layer_2">
</g>
<g id="Layer_1">
	<g>
		<g>
			<path class="st3" d="M118.5,202.2H98c-3.9,0-7.1,3.2-7.1,7.1s3.2,7.1,7.1,7.1h20.5c3.9,0,7.1-3.2,7.1-7.1     S122.4,202.2,118.5,202.2z"></path>
			<path class="st3" d="M161,196.2h45.5c2.4,0,4.6-1.2,5.9-3.2c1.3-2,1.6-4.5,0.6-6.7l-14.3-34.1c-1.1-2.6-3.7-4.3-6.5-4.3     c0,0,0,0,0,0H161c-3.9,0-7.1,3.2-7.1,7.1v34C153.9,193,157.1,196.2,161,196.2z M168.1,182v-19.8h19.4l8.4,19.8H168.1z"></path>
			<path class="st3" d="M303.9,183.9l-7.2-18.8l-16.1-87.2c-1.2-6.9-5.2-13.2-11-17.1c-4.5-3.1-10.1-4.2-15.4-3.3h-0.4l-0.3,0.1     c-1.3,0.3-2.5,0.7-3.7,1.2l-87,31c-10.6,3.8-17.8,13.9-17.8,25.2v8.9h-7.4c-3.9,0-7.1,3.2-7.1,7.1l-0.2,49.9H77.2     c-3.9,0-7.1,3.2-7.1,7.1v42.4c0,3.9,3.2,7.1,7.1,7.1h8.2v3.6h-1c-17.2,0-31.3,14.1-31.3,31.3v1.6c0,17.3,14.1,31.3,31.3,31.4     h140.2c17.3,0,31.4-14.1,31.4-31.4v-1.6c0-17-13.8-30.9-30.7-31.3v-3.5l7.5,0c3.9-0.1,7-3.3,7-7.2v-42.2c0-1.1-0.2-2.2-0.7-3.1     L212,128.2c-1.2-2.5-3.7-4.1-6.4-4.1h-1.3v-7.8l36.6-20.4l26.2,73.6l-18.8,53.7c-1,2.7-0.2,5.8,2,7.7c1.3,1.2,3,1.8,4.7,1.8     c1.2,0,2.2-0.3,3.2-0.8l31.5-15.8C302.4,211,308.7,196.7,303.9,183.9z M237,81.8l-43.3,24.1c-2.2,1.3-3.6,3.6-3.6,6.2v12h-30.9     v-8.9c0-5.3,3.4-10.1,8.4-11.9l69.5-24.7C237,79.7,237,80.7,237,81.8z M200.9,138.2l24.6,51.7v33.6H84.3v-28.2h53.1     c3.9,0,7.1-3.2,7.1-7.1v-50H200.9z M210.9,237.7v3.5H99.6v-3.5H210.9z M241.6,271l0,3.2c0,9.5-7.7,17.2-17.2,17.2H84.3     c-9.4,0-17.1-7.7-17.2-17.2v-1.6c0-9.4,7.7-17.1,17.1-17.2h140.2C233.4,255.5,240.8,262.3,241.6,271z M284.4,202.9     c-0.3,0.1-0.6,0.2-0.9,0.4l-16,8l12.3-35.4l5.2-0.8l5.3,14C292.5,194.5,289.8,200.7,284.4,202.9z M279.4,161.6l-27.8-78.2     c-0.8-2.9-0.4-6.1,1.1-8.7c0.7-1.2,1.8-2.1,3.1-2.7l1.2-0.4c1.7-0.3,3.4,0.1,4.8,1.1c2.6,1.8,4.4,4.6,4.9,7.8l14.9,80.7     L279.4,161.6z"></path>
			<path class="st3" d="M88.1,267c-3.8,0-6.9,3.1-6.9,6.9c0,3.8,3.1,6.9,6.9,6.9s6.9-3.1,6.9-6.9C95.1,270.1,91.9,267,88.1,267z"></path>
			<path class="st3" d="M121.1,267c-3.8,0-6.9,3.1-6.9,6.9c0,3.8,3.1,6.9,6.9,6.9s6.9-3.1,6.9-6.9C128.1,270.1,124.9,267,121.1,267z     "></path>
			<path class="st3" d="M154.1,267c-3.8,0-6.9,3.1-6.9,6.9c0,3.8,3.1,6.9,6.9,6.9s6.9-3.1,6.9-6.9C161.1,270.1,157.9,267,154.1,267z     "></path>
			<path class="st3" d="M187.1,267c-3.8,0-6.9,3.1-6.9,6.9c0,3.8,3.1,6.9,6.9,6.9s6.9-3.1,6.9-6.9C194.1,270.1,190.9,267,187.1,267z     "></path>
			<path class="st3" d="M213.2,273.9c0,3.8,3.1,6.9,6.9,6.9s6.9-3.1,6.9-6.9c0-3.8-3.1-6.9-6.9-6.9S213.2,270.1,213.2,273.9z"></path>
		</g>
		<g id="g2509_00000119812518081926869460000005590794773808675738_">
			<g id="g2515_00000082365866341462669320000001362013467201672102_" transform="translate(256,15)">
				<g id="path2517_00000047768371163674869870000017819828818284711058_">
					<path class="st0" d="M-174.8,143.8c-2.5,3.8-8.1,3.8-10.7,0v0c-2.8-4.3-6.1-8.8-9.5-13.6c-15.4-21.5-32.8-46-32.8-69.2       c0-26.3,21.4-47.7,47.7-47.7s47.7,21.4,47.7,47.7c0,23.3-17.4,47.7-32.8,69.2C-168.7,135-171.9,139.5-174.8,143.8L-174.8,143.8       z M-180.1,26c-19.2,0-34.9,15.7-34.9,34.9c0,19.2,16.9,42.8,30.4,61.8c1.5,2.1,3,4.2,4.4,6.3c1.4-2,2.9-4.1,4.4-6.3       c13.6-19,30.4-42.6,30.4-61.8C-145.2,41.7-160.9,26-180.1,26z"></path>
				</g>
			</g>
			<g id="g2519_00000114072222818948707250000000178431241458149272_" transform="translate(256,257)">
				<g id="path2521_00000110447949482978625650000004261890907028860057_">
					<path class="st0" d="M-180.1-155.9c-13.9,0-25.2-11.3-25.2-25.2s11.3-25.2,25.2-25.2c13.9,0,25.2,11.3,25.2,25.2       S-166.2-155.9-180.1-155.9z M-180.1-193.5c-6.8,0-12.4,5.5-12.4,12.4c0,6.8,5.5,12.4,12.4,12.4c6.8,0,12.4-5.5,12.4-12.4       C-167.8-187.9-173.3-193.5-180.1-193.5z"></path>
				</g>
			</g>
		</g>
	</g>
</g>
<g id="Layer_3">
</g>
</svg>
