<?xml version="1.0" encoding="UTF-8"?>
<!-- Generator: Adobe Illustrator 25.4.1, SVG Export Plug-In . SVG Version: 6.00 Build 0)  -->
<svg xmlns="http://www.w3.org/2000/svg" xmlns:xlink="http://www.w3.org/1999/xlink" version="1.1" x="0px" y="0px" viewBox="0 0 333.7 333.7" style="enable-background:new 0 0 333.7 333.7;" xml:space="preserve">
<style type="text/css">
	.st0{fill:#3BBFAD;}
	.st1{fill:#0C2949;}
	.st2{fill:none;}
	.st3{fill:#FFFFFF;}
	.st4{fill:#7B868C;}
	.st5{fill:none;stroke:#7B868C;stroke-width:0.5;stroke-miterlimit:10;}
	.st6{opacity:0.3;}
	.st7{fill-rule:evenodd;clip-rule:evenodd;fill:#DF1C54;}
	.st8{fill:#BC4A9B;}
	.st9{fill:none;stroke:#3BBFAD;stroke-width:14;stroke-miterlimit:10;}
	.st10{fill:none;stroke:#FBB040;stroke-width:14;stroke-miterlimit:10;}
	.st11{fill:#010101;}
	.st12{fill:#39BDAC;}
</style>
<g id="Layer_2">
</g>
<g id="Layer_1">
	<g>
		<path class="st3" d="M276.7,260.5c-21.8-22.7-34.4-52.2-35.8-83.5c-4.5,1.7-9.9,1.5-14.1-0.7c1,29.2,10.7,56.8,28.2,80.3l1.3,1.8    H59.8l1.3-1.8c18.5-24.8,28.3-54.3,28.3-85.4v-25.9c0-37.9,30.8-68.7,68.7-68.7c19.3,0,36.7,8,49.2,20.8c2.9-4.1,7.8-6.4,12.8-6.7    c-9.9-11.3-23-20-37.9-24.6l-0.8-0.2V53.3c0-12.8-10.4-23.2-23.2-23.2c-12.8,0-23.2,10.4-23.2,23.2v12.5l-0.8,0.2    c-34.6,10.5-58.7,43.1-58.7,79.2v25.9c0,33.5-12.8,65.2-35.9,89.3c-1.9,2-2.5,5-1.4,7.6c1.1,2.6,3.6,4.3,6.5,4.3h74.7l0.2,0.9    c3.7,18.3,20,31.6,38.7,31.6c18.7,0,34.9-13.3,38.7-31.6l0.2-0.9h74.7c2.8,0,5.3-1.7,6.4-4.3C279.1,265.5,278.6,262.5,276.7,260.5    z M148.8,53.3c0-5.1,4.1-9.2,9.2-9.2c5.1,0,9.2,4.1,9.2,9.2V63l-1.2-0.1c-5.4-0.5-10.7-0.5-16,0l-1.2,0.1V53.3z M182,273.8    c-3.6,10.1-13.2,17-24,17s-20.4-6.8-24-17l-0.5-1.5h49L182,273.8z"></path>
		<g>
			<path class="st0" d="M242.1,185.6c-29.9,0-54.1-24.3-54.1-54.1s24.3-54.2,54.1-54.2s54.2,24.3,54.2,54.2S272,185.6,242.1,185.6z      M242.1,91.3c-22.1,0-40.1,18-40.1,40.2s18,40.1,40.1,40.1s40.2-18,40.2-40.1S264.3,91.3,242.1,91.3z"></path>
		</g>
		<path class="st0" d="M250.4,107.9c-1.2-1.5-2.8-2.3-4.7-2.3c-1.7,0-3,0.5-3.9,1.4c-0.3,0.3-0.9,1-2.5,3.2c-1,1.4-2.2,2.7-3.6,3.9    c-1.3,1.1-3.1,2.2-5.4,3.3c-1.9,0.9-3.1,1.6-4,2.2c-0.9,0.7-2,2-2,4.4c0,1.6,0.6,3.1,1.8,4.2c1.2,1.2,2.6,1.8,4.2,1.8    c1.4,0,3.5-0.5,7.9-3.5v22.9c0,2.3,0.6,4.2,1.8,5.5c1.3,1.4,3,2.1,5,2.1c2.1,0,6.9-0.9,6.9-8.9v-35.3    C251.9,111,251.4,109.3,250.4,107.9z"></path>
	</g>
</g>
<g id="Layer_3">
</g>
</svg>
