<?xml version="1.0" encoding="UTF-8"?>
<!-- Generator: Adobe Illustrator 25.4.1, SVG Export Plug-In . SVG Version: 6.00 Build 0)  -->
<svg xmlns="http://www.w3.org/2000/svg" xmlns:xlink="http://www.w3.org/1999/xlink" version="1.1" x="0px" y="0px" viewBox="0 0 333.7 333.7" style="enable-background:new 0 0 333.7 333.7;" xml:space="preserve">
<style type="text/css">
	.st0{fill:#3BBFAD;}
	.st1{fill:#0C2949;}
	.st2{fill:none;}
	.st3{fill:#FFFFFF;}
	.st4{fill:#7B868C;}
	.st5{fill:none;stroke:#7B868C;stroke-width:0.5;stroke-miterlimit:10;}
	.st6{opacity:0.3;}
	.st7{fill-rule:evenodd;clip-rule:evenodd;fill:#DF1C54;}
	.st8{fill:#BC4A9B;}
	.st9{fill:none;stroke:#3BBFAD;stroke-width:14;stroke-miterlimit:10;}
	.st10{fill:none;stroke:#FBB040;stroke-width:14;stroke-miterlimit:10;}
	.st11{fill:#010101;}
	.st12{fill:#39BDAC;}
</style>
<g id="Layer_2">
</g>
<g id="Layer_1">
	<g>
		<g>
			<path class="st3" d="M101.2,256.9c-3.9,0-7,3.1-7,7s3.1,7,7,7h36.3c3.9,0,7-3.1,7-7s-3.1-7-7-7H101.2z"></path>
			<path class="st3" d="M294.3,160.1h-57.8v-17.5c-5,1.3-10.1-0.3-14-3.4v20.6h-118v-118h38.9v24.8c0,7.5,6.1,13.6,13.6,13.6h13     c7.5,0,13.6-6.1,13.6-13.6V41.7h38.9v15c2.1-1,4.4-1.6,6.9-1.7c2.5-0.1,4.9,0.5,7.1,1.5V39.4c0-6.5-5.3-11.7-11.7-11.7H102.2     c-6.5,0-11.7,5.3-11.7,11.7v120.7H39.4c-6.5,0-11.7,5.3-11.7,11.7v122.6c0,6.5,5.3,11.7,11.7,11.7H162c1.7,0,3.4-0.4,4.9-1.1     c1.5,0.7,3.1,1.1,4.9,1.1h122.6c6.5,0,11.7-5.3,11.7-11.7V171.8C306,165.3,300.7,160.1,294.3,160.1z M157.4,41.7h12.3v24.4h-12.3     V41.7z M94.6,174.1h12.3v24.4H94.6V174.1z M159.7,292h-118v-118h38.9v24.8c0,7.5,6.1,13.6,13.6,13.6h13c7.5,0,13.6-6.1,13.6-13.6     v-24.8h38.9V292z M226.9,174.1h12.3v24.4h-12.3V174.1z M292,292H174v-118h38.9v24.8c0,7.5,6.1,13.6,13.6,13.6h13     c7.5,0,13.6-6.1,13.6-13.6v-24.8H292V292z"></path>
			<path class="st3" d="M233.4,256.9c-3.9,0-7,3.1-7,7s3.1,7,7,7h36.2c3.9,0,7-3.1,7-7s-3.1-7-7-7H233.4z"></path>
			<path class="st3" d="M200.2,124.5H164c-3.9,0-7,3.1-7,7c0,3.9,3.1,7,7,7h36.2c3.9,0,7-3.1,7-7     C207.2,127.7,204.1,124.5,200.2,124.5z"></path>
		</g>
		<g>
			<g>
				<path class="st0" d="M230.7,46.6c-27.9,0-50.6,22.7-50.6,50.6c0,27.9,22.7,50.6,50.6,50.6c27.9,0,50.6-22.7,50.6-50.6      C281.3,69.3,258.6,46.6,230.7,46.6z M230.7,133.5c-20,0-36.4-16.3-36.4-36.4c0-20,16.3-36.4,36.4-36.4c20,0,36.4,16.3,36.4,36.4      C267,117.2,250.7,133.5,230.7,133.5z"></path>
			</g>
			<path class="st0" d="M244.3,81.5l-20.1,20.3l-8.1-8.1c-2.7-2.7-7.2-2.7-10,0c-1.3,1.3-2.1,3.1-2.1,5s0.7,3.7,2.1,5l13.1,13.1     c1.3,1.3,3.1,2.1,5,2.1c1.9,0,3.7-0.7,5-2.1l25-25.3c1.3-1.3,2-3.1,2-5c0-1.9-0.8-3.6-2.1-5c-1.3-1.3-3.1-2.1-5-2     C247.4,79.4,245.6,80.2,244.3,81.5z"></path>
		</g>
	</g>
</g>
<g id="Layer_3">
</g>
</svg>
