<?xml version="1.0" encoding="UTF-8"?>
<!-- Generator: Adobe Illustrator 25.4.1, SVG Export Plug-In . SVG Version: 6.00 Build 0)  -->
<svg xmlns="http://www.w3.org/2000/svg" xmlns:xlink="http://www.w3.org/1999/xlink" version="1.1" x="0px" y="0px" viewBox="0 0 333.7 333.7" style="enable-background:new 0 0 333.7 333.7;" xml:space="preserve">
<style type="text/css">
	.st0{fill:#3BBFAD;}
	.st1{fill:#0C2949;}
	.st2{fill:none;}
	.st3{fill:#FFFFFF;}
	.st4{fill:#7B868C;}
	.st5{fill:none;stroke:#7B868C;stroke-width:0.5;stroke-miterlimit:10;}
	.st6{opacity:0.3;}
	.st7{fill-rule:evenodd;clip-rule:evenodd;fill:#DF1C54;}
	.st8{fill:#BC4A9B;}
	.st9{fill:none;stroke:#3BBFAD;stroke-width:14;stroke-miterlimit:10;}
	.st10{fill:none;stroke:#FBB040;stroke-width:14;stroke-miterlimit:10;}
	.st11{fill:#010101;}
	.st12{fill:#39BDAC;}
</style>
<g id="Layer_2">
	<g>
		<g>
			<rect x="94.1" y="172.5" class="st2" width="10.9" height="10.9"></rect>
			<rect x="94.1" y="229.3" class="st2" width="10.9" height="10.9"></rect>
			<path class="st2" d="M178.9,55.9h-16.3c-3.3,0-6.1-2.2-6.9-5.4c-1.2-5-5.6-8.4-10.7-8.4c-5.1,0-9.5,3.5-10.7,8.4     c-0.8,3.2-3.6,5.4-6.9,5.4h-16.3v13.5h67.7V55.9z"></path>
			<rect x="94.1" y="115.7" class="st2" width="10.9" height="10.9"></rect>
			<path class="st2" d="M237.5,218.7c-20,0-36.4,16.3-36.4,36.4c0,20,16.3,36.4,36.4,36.4c20,0,36.4-16.3,36.4-36.4     C273.8,235,257.5,218.7,237.5,218.7z"></path>
			<path class="st2" d="M230.4,205.1V73.3c0-2-1.6-3.6-3.6-3.6H193v6.8c0,3.9-3.2,7-7,7h-81.8c-3.9,0-7-3.2-7-7v-6.8H63.3     c-2,0-3.6,1.6-3.6,3.6v195.4c0,2,1.6,3.6,3.6,3.6H190c-2-5.5-3-11.3-3-17.2C187,230,205.9,208.6,230.4,205.1z M139.6,101.6h63.5     c3.9,0,7,3.2,7,7c0,3.9-3.2,7-7,7h-63.5c-3.9,0-7-3.2-7-7C132.6,104.7,135.7,101.6,139.6,101.6z M139.6,126.5h63.5     c3.9,0,7,3.2,7,7c0,3.9-3.2,7-7,7h-63.5c-3.9,0-7-3.2-7-7C132.6,129.7,135.7,126.5,139.6,126.5z M139.6,158.4h63.5     c3.9,0,7,3.2,7,7s-3.2,7-7,7h-63.5c-3.9,0-7-3.2-7-7S135.7,158.4,139.6,158.4z M119.1,247.2c0,3.9-3.2,7-7,7h-25     c-3.9,0-7-3.2-7-7v-25c0-3.9,3.2-7,7-7h25c3.9,0,7,3.2,7,7V247.2z M119.1,190.4c0,3.9-3.2,7-7,7h-25c-3.9,0-7-3.2-7-7v-25     c0-3.9,3.2-7,7-7h25c3.9,0,7,3.2,7,7V190.4z M119.1,133.6c0,3.9-3.2,7-7,7h-25c-3.9,0-7-3.2-7-7v-25c0-3.9,3.2-7,7-7h25     c3.9,0,7,3.2,7,7V133.6z M169.6,254.3h-29.9c-3.9,0-7-3.2-7-7c0-3.9,3.2-7,7-7h29.9c3.9,0,7,3.2,7,7     C176.6,251.1,173.4,254.3,169.6,254.3z M169.6,229.3h-29.9c-3.9,0-7-3.2-7-7c0-3.9,3.2-7,7-7h29.9c3.9,0,7,3.2,7,7     C176.6,226.1,173.4,229.3,169.6,229.3z M139.6,197.4c-3.9,0-7-3.2-7-7s3.2-7,7-7h63.5c3.9,0,7,3.2,7,7s-3.2,7-7,7H139.6z"></path>
			<path class="st3" d="M139.6,115.7h63.5c3.9,0,7-3.2,7-7c0-3.9-3.2-7-7-7h-63.5c-3.9,0-7,3.2-7,7     C132.6,112.5,135.7,115.7,139.6,115.7z"></path>
			<path class="st3" d="M112,158.4h-25c-3.9,0-7,3.2-7,7v25c0,3.9,3.2,7,7,7h25c3.9,0,7-3.2,7-7v-25     C119.1,161.6,115.9,158.4,112,158.4z M105,183.4H94.1v-10.9H105V183.4z"></path>
			<path class="st3" d="M112,215.2h-25c-3.9,0-7,3.2-7,7v25c0,3.9,3.2,7,7,7h25c3.9,0,7-3.2,7-7v-25     C119.1,218.4,115.9,215.2,112,215.2z M105,240.2H94.1v-10.9H105V240.2z"></path>
			<path class="st3" d="M112,101.6h-25c-3.9,0-7,3.2-7,7v25c0,3.9,3.2,7,7,7h25c3.9,0,7-3.2,7-7v-25     C119.1,104.7,115.9,101.6,112,101.6z M105,126.5H94.1v-10.9H105V126.5z"></path>
			<path class="st3" d="M244.5,205.1V73.3c0-9.7-7.9-17.7-17.7-17.7H193v-6.8c0-3.9-3.2-7-7-7h-18.5c-4.2-8.4-12.8-13.8-22.4-13.8     c-9.6,0-18.2,5.4-22.4,13.8h-18.5c-3.9,0-7,3.2-7,7v6.8H63.3c-9.7,0-17.7,7.9-17.7,17.7v195.4c0,9.7,7.9,17.7,17.7,17.7h134.6     c9.6,12.2,24,19.1,39.5,19.1c27.8,0,50.5-22.6,50.5-50.5C287.9,230,269,208.6,244.5,205.1z M111.2,55.9h16.3     c3.3,0,6.1-2.2,6.9-5.4c1.2-5,5.6-8.4,10.7-8.4c5.1,0,9.5,3.5,10.7,8.4c0.8,3.2,3.6,5.4,6.9,5.4h16.3v13.5h-67.7V55.9z      M190,272.3H63.3c-2,0-3.6-1.6-3.6-3.6V73.3c0-2,1.6-3.6,3.6-3.6h33.8v6.8c0,3.9,3.2,7,7,7H186c3.9,0,7-3.2,7-7v-6.8h33.8     c2,0,3.6,1.6,3.6,3.6v131.8c-24.5,3.5-43.4,24.9-43.4,50C187,261,188,266.8,190,272.3z M237.5,291.4c-20,0-36.4-16.3-36.4-36.4     c0-20,16.3-36.4,36.4-36.4c20,0,36.4,16.3,36.4,36.4C273.8,275.1,257.5,291.4,237.5,291.4z"></path>
			<path class="st3" d="M169.6,215.2h-29.9c-3.9,0-7,3.2-7,7c0,3.9,3.2,7,7,7h29.9c3.9,0,7-3.2,7-7     C176.6,218.4,173.4,215.2,169.6,215.2z"></path>
			<path class="st3" d="M169.6,240.2h-29.9c-3.9,0-7,3.2-7,7c0,3.9,3.2,7,7,7h29.9c3.9,0,7-3.2,7-7     C176.6,243.3,173.4,240.2,169.6,240.2z"></path>
			<path class="st3" d="M139.6,140.6h63.5c3.9,0,7-3.2,7-7c0-3.9-3.2-7-7-7h-63.5c-3.9,0-7,3.2-7,7     C132.6,137.5,135.7,140.6,139.6,140.6z"></path>
			<path class="st3" d="M210.1,190.4c0-3.9-3.2-7-7-7h-63.5c-3.9,0-7,3.2-7,7s3.2,7,7,7h63.5C207,197.4,210.1,194.3,210.1,190.4z"></path>
			<path class="st3" d="M139.6,172.5h63.5c3.9,0,7-3.2,7-7s-3.2-7-7-7h-63.5c-3.9,0-7,3.2-7,7S135.7,172.5,139.6,172.5z"></path>
		</g>
		<g>
			<path class="st0" d="M237.5,204.4c-27.9,0-50.6,22.7-50.6,50.6c0,27.9,22.7,50.6,50.6,50.6c27.9,0,50.6-22.7,50.6-50.6     C288.1,227.1,265.4,204.4,237.5,204.4z M237.5,291.4c-20,0-36.4-16.3-36.4-36.4c0-20,16.3-36.4,36.4-36.4     c20,0,36.4,16.3,36.4,36.4C273.8,275.1,257.5,291.4,237.5,291.4z"></path>
		</g>
		<path class="st0" d="M251.1,239.4L231,259.7l-8.1-8.1c-2.7-2.7-7.2-2.7-10,0c-1.3,1.3-2.1,3.1-2.1,5c0,1.9,0.7,3.7,2.1,5    l13.1,13.1c1.3,1.3,3.1,2.1,5,2.1c1.9,0,3.7-0.7,5-2.1l25-25.3c1.3-1.3,2-3.1,2-5c0-1.9-0.8-3.6-2.1-5c-1.3-1.3-3.1-2.1-5-2    C254.2,237.3,252.4,238,251.1,239.4z"></path>
	</g>
</g>
<g id="Layer_1">
</g>
<g id="Layer_3">
</g>
</svg>
