<?xml version="1.0" encoding="UTF-8"?>
<!-- Generator: Adobe Illustrator 25.4.1, SVG Export Plug-In . SVG Version: 6.00 Build 0)  -->
<svg xmlns="http://www.w3.org/2000/svg" xmlns:xlink="http://www.w3.org/1999/xlink" version="1.1" x="0px" y="0px" viewBox="0 0 333.7 333.7" style="enable-background:new 0 0 333.7 333.7;" xml:space="preserve">
<style type="text/css">
	.st0{fill:#3BBFAD;}
	.st1{fill:#7B868C;}
	.st2{fill:none;stroke:#7B868C;stroke-width:0.5;stroke-miterlimit:10;}
	.st3{opacity:0.3;}
	.st4{fill:#0C2949;}
	.st5{fill:none;}
	.st6{fill:#FFFFFF;}
	.st7{fill-rule:evenodd;clip-rule:evenodd;fill:#DF1C54;}
	.st8{fill:none;stroke:#3BBFAD;stroke-width:14;stroke-miterlimit:10;}
	.st9{fill:#BC4A9B;}
	.st10{fill:none;stroke:#FBB040;stroke-width:14;stroke-miterlimit:10;}
</style>
<g id="Layer_2">
	<g>
		<g>
			<path class="st6" d="M142.9,190.9c-4.6-3.6-10.3-5.5-16.3-5.5H98.2c-3.8,0-6.9,3.1-6.9,6.9v17.8l-45.3-38.2l45.3-38.2v17.8     c0,3.8,3.1,6.9,6.9,6.9h28.5c10.6,0,20.8,3.1,29.7,9.1c0,0,6.8-7.1,10.4-9.6c-4.2-3.1-8.7-5.7-13.4-7.8V98.1     c0-3.8-3.1-6.9-6.9-6.9h-17.8l38.2-45.3l38.2,45.3h-17.8c-3.8,0-6.9,3.1-6.9,6.9v51.9c0,0,7.8-3.4,13.9-4.3v-40.7H220     c2.7,0,5.2-1.6,6.3-4c1.1-2.4,0.7-5.3-1-7.4l-53.2-63c-1.3-1.5-3.2-2.4-5.3-2.4c-2.1,0-4,0.9-5.3,2.4l-53.2,63     c-1.7,2-2.1,4.9-1,7.4c1.1,2.4,3.6,4,6.3,4h25.8v40.7c-4.3-0.8-8.6-1.3-12.8-1.3h-21.6v-25.8c0-2.7-1.6-5.2-4-6.3     c-2.4-1.1-5.3-0.7-7.4,1l-63,53.2c-1.6,1.3-2.5,3.3-2.5,5.3s0.9,4,2.5,5.3l63,53.2c2.1,1.8,4.9,2.1,7.4,1c2.5-1.2,4-3.6,4-6.3     v-25.8h21.6c7.1,0,12.8,5.8,12.8,12.8C139.5,212.1,139,200.4,142.9,190.9z"></path>
		</g>
		<path class="st4" d="M180.4,150.1c-4.9,2.1-9.4,4.7-13.6,7.8c-3.6,2.5-10.4,9.6-10.4,9.6c-6,6.8-10.6,14.8-13.4,23.4    c-4,9.5-3.4,21.2-3.4,21.2v86.4c0,3.8,3.1,6.9,6.9,6.9h40.9c3.8,0,6.9-3.1,6.9-6.9v-86.4c0-7.1,5.7-12.8,12.8-12.8h21.6v25.8    c0,2.7,1.5,5.1,4,6.3c2.5,1.2,5.3,0.8,7.4-1l63-53.2c1.6-1.3,2.5-3.3,2.5-5.3c0-2-0.9-4-2.5-5.3l-63-53.2c-2.1-1.7-5-2.1-7.4-1    c-2.4,1.1-4,3.6-4,6.3v25.8H207c-4.2,0-8.5,0.4-12.8,1.3C188.2,146.7,180.4,150.1,180.4,150.1z M242.5,210.1v-17.8    c0-3.8-3.1-6.9-6.9-6.9H207c-14.7,0-26.7,12-26.7,26.7v79.5h-27v-79.5c0-29.6,24.1-53.7,53.7-53.7h28.5c3.8,0,6.9-3.1,6.9-6.9    v-17.8l45.3,38.2L242.5,210.1z"></path>
	</g>
</g>
<g id="Layer_1">
</g>
</svg>
