<?xml version="1.0" encoding="UTF-8"?>
<!-- Generator: Adobe Illustrator 25.4.1, SVG Export Plug-In . SVG Version: 6.00 Build 0)  -->
<svg xmlns="http://www.w3.org/2000/svg" xmlns:xlink="http://www.w3.org/1999/xlink" version="1.1" x="0px" y="0px" viewBox="0 0 333.7 333.7" style="enable-background:new 0 0 333.7 333.7;" xml:space="preserve">
<style type="text/css">
	.st0{fill:#3BBFAD;}
	.st1{fill:#7B868C;}
	.st2{fill:none;stroke:#7B868C;stroke-width:0.5;stroke-miterlimit:10;}
	.st3{opacity:0.3;}
	.st4{fill:#0C2949;}
	.st5{fill:none;}
	.st6{fill:#FFFFFF;}
	.st7{fill-rule:evenodd;clip-rule:evenodd;fill:#DF1C54;}
	.st8{fill:none;stroke:#3BBFAD;stroke-width:14;stroke-miterlimit:10;}
	.st9{fill:#BC4A9B;}
	.st10{fill:none;stroke:#FBB040;stroke-width:14;stroke-miterlimit:10;}
</style>
<g id="Layer_2">
	<g>
		<path class="st4" d="M128.1,65.3l15.7,13.9l-4.6,20.5c-0.4,1.8-0.1,3.7,0.9,5.2c1,1.6,2.5,2.6,4.3,3c0.5,0.1,1,0.2,1.5,0.2    c1.2,0,2.4-0.3,3.5-1l18.1-10.7l18.1,10.7c3.3,1.9,7.5,0.9,9.5-2.4c0.9-1.5,1.2-3.3,0.8-5l-4.6-20.5l15.7-13.9    c1.2-1.1,2-2.5,2.3-4.1h0.8l-1.1-3.3c-0.9-2.6-3.2-4.5-5.9-4.8l-20.9-2L174,32c-0.7-1.7-2.1-3-3.8-3.7c-1.7-0.7-3.6-0.7-5.3,0.1    c-1.6,0.7-2.9,2-3.6,3.6l-8.3,19.3l-20.9,2c-1.8,0.2-3.5,1.1-4.7,2.5c-1.2,1.4-1.7,3.2-1.6,5.1C125.9,62.5,126.8,64.2,128.1,65.3z     M179.1,71.5c-1.9,1.7-2.7,4.2-2.2,6.7l2,8.8l-7.8-4.6c-1.1-0.6-2.3-1-3.5-1c-1.2,0-2.4,0.3-3.5,1l-7.8,4.6l2-8.8    c0.6-2.5-0.3-5-2.2-6.7l-6.8-6l9-0.8c2.5-0.2,4.7-1.8,5.7-4.1l3.6-8.3l3.6,8.3c1,2.3,3.2,3.9,5.7,4.1l9,0.8L179.1,71.5z"></path>
		<path class="st4" d="M299.1,83.1c-0.9-2.6-3.2-4.5-5.9-4.8l-20.9-2l-8.3-19.3c-0.7-1.7-2.1-3-3.8-3.7c-1.7-0.7-3.6-0.7-5.3,0.1    c-1.6,0.7-2.9,2-3.6,3.6l-8.3,19.3l-20.9,2c-1.8,0.2-3.5,1.1-4.7,2.5c-1.2,1.4-1.7,3.2-1.6,5.1c0.2,1.8,1,3.4,2.3,4.6l15.7,13.9    l-4.6,20.5c-0.8,3.7,1.5,7.4,5.2,8.3c0.5,0.1,1,0.2,1.5,0.2c1.2,0,2.4-0.3,3.5-1l18.1-10.7l18.1,10.7c3.3,1.9,7.5,0.9,9.5-2.4    c0.9-1.5,1.2-3.3,0.8-5l-4.6-20.5l15.7-13.9c1.2-1.1,2-2.5,2.3-4.1h0.8L299.1,83.1z M266.9,103.4l2,8.8l-7.8-4.6    c-1.1-0.6-2.3-1-3.5-1c-1.2,0-2.4,0.3-3.5,1l-7.8,4.6l2-8.8c0.6-2.5-0.3-5-2.2-6.7l-6.8-6l9-0.8c2.5-0.2,4.7-1.8,5.7-4.1l3.6-8.3    l3.6,8.3c1,2.3,3.2,3.9,5.7,4.1l9,0.8l-6.8,6C267.2,98.3,266.4,100.9,266.9,103.4z"></path>
		<path class="st4" d="M47.1,124.8c-0.8,3.7,1.5,7.4,5.2,8.3c1.7,0.4,3.5,0.1,5-0.8l18.1-10.7l18.1,10.7c1.1,0.6,2.3,1,3.5,1    c0.6,0,1.2-0.1,1.7-0.2c1.8-0.5,3.3-1.6,4.2-3.2c0.9-1.5,1.2-3.3,0.8-5l-4.6-20.5l15.7-13.9c1.4-1.2,2.2-2.9,2.3-4.8    c0.1-1.8-0.5-3.6-1.7-5c-1.2-1.3-2.8-2.2-4.6-2.3l-20.9-2l-8.3-19.3c-1.5-3.5-5.6-5.1-9.1-3.6c-1.6,0.7-2.9,2-3.6,3.6l-8.3,19.3    l-20.9,2c-1.8,0.2-3.5,1.1-4.7,2.5c-1.2,1.4-1.7,3.2-1.6,5.1c0.2,1.8,1,3.4,2.3,4.6l15.7,13.9L47.1,124.8z M87,96.6    c-1.9,1.7-2.7,4.2-2.2,6.7l2,8.8l-7.8-4.6c-1.1-0.6-2.3-1-3.5-1c-1.2,0-2.4,0.3-3.5,1l-7.8,4.6l2-8.8c0.6-2.5-0.3-5-2.2-6.7    l-6.8-6l9-0.8c2.5-0.2,4.7-1.8,5.7-4.1l3.6-8.3l3.6,8.3c1,2.3,3.2,3.9,5.7,4.1l9,0.9L87,96.6z"></path>
		<path class="st6" d="M240.8,180.1h-52.1c6.6-18.5,6.2-38.5-1.2-56.7c-0.1-0.3-0.2-0.5-0.4-0.8c-2.6-4.6-6.8-8-11.9-9.5    c-5.1-1.5-10.5-0.8-15.1,1.7c-3.8,2.1-6.8,5.4-8.5,9.4c-0.3,0.7-0.5,1.5-0.6,2.3l-1.3,18.5c-1.9,10-7.2,18.9-15.1,25.3    c-3.2,1.2-8.7,4.7-23.2,18.3c-1.8-4.2-6-7.2-10.8-7.2H54c-6.5,0-11.7,5.3-11.7,11.7V286c0,6.5,5.3,11.7,11.7,11.7h46.5    c5.5,0,10.2-3.9,11.4-9.1c10.5,2.6,16.4,5.7,23.3,12.1c3.5,3.3,8.1,5.2,12.9,5.2c0.1,0,0.2,0,0.2,0h72.1c0,0,0,0,0,0    c11.5,0,20.9-9.4,20.9-20.9c0-4-1.1-7.8-3.2-11.1c5.5-4.2,8.8-10.5,8.8-16.9c0-3.7-1-7.4-2.9-10.6c5.6-4.2,9.1-10.8,9.1-17.4    c0-3.4-0.8-6.7-2.3-9.6c6.6-3.6,10.9-10.7,10.9-18.4v0C261.7,189.5,252.3,180.1,240.8,180.1z M240.9,208.1h-15.6    c-3.8,0-6.9,3.1-6.9,6.9c0,3.8,3.1,6.9,6.9,6.9h6.8c3.9,0,7.1,3.2,7.1,7.1c0,3.5-3.6,7.3-7.2,7.9c-1.9-0.6-4-0.9-6-0.9    c0,0,0,0,0,0c-3.8,0-6.9,3.1-6.9,6.9s3.1,6.9,6.9,6.9c0,0,0,0,0,0c0.8,0,1.6,0.1,2.4,0.4c0.1,0.1,0.3,0.1,0.4,0.2    c2.6,1.1,4.3,3.7,4.3,6.5c0,3.4-3.8,7.2-7.6,7.7c-1.6-0.4-3.3-0.6-5-0.6c0,0,0,0,0,0c-3.8,0-6.9,3.1-6.9,6.9s3.1,6.9,6.9,6.9    c0,0,0,0,0,0c0.7,0,1.3,0.1,2,0.3c0.1,0,0.2,0.1,0.4,0.1c3.7,1.3,5.6,5.3,4.4,8.9c-1,2.9-3.7,4.8-6.7,4.8c0,0,0,0,0,0l-72.1,0    c-1.3,0-2.6-0.5-3.6-1.4c-9.4-8.7-17.7-12.9-32.5-16.2V207l0,0c21.5-20.9,26.5-23.3,27.1-23.6c1-0.2,1.9-0.7,2.7-1.3    c11.2-8.6,18.8-21,21.3-34.9c0-0.2,0.1-0.5,0.1-0.7l1.2-17.5c0.8-1.2,1.9-2.1,3.3-2.5c1.5-0.5,3.2-0.3,4.6,0.5    c0.9,0.5,1.7,1.2,2.2,2.1c7.1,17.8,6.1,37.8-2.8,54.7c-0.9,1.6-1,3.5-0.5,5.3c0.6,1.8,1.8,3.2,3.4,4.1c1,0.5,2.1,0.8,3.2,0.8h62.7    c3.9,0,7,3.2,7,7.1C247.7,204.9,244.7,208,240.9,208.1z M98.4,195.3v88.5l-42.2,0l0-88.5L98.4,195.3z"></path>
		<path class="st6" d="M81.4,226.1c3.8,0,6.9-3.1,6.9-6.9v-0.5c0-3.8-3.1-6.9-6.9-6.9c-3.8,0-6.9,3.1-6.9,6.9v0.5    C74.5,223,77.6,226.1,81.4,226.1z"></path>
	</g>
</g>
<g id="Layer_1">
</g>
</svg>
