<?xml version="1.0" encoding="UTF-8"?>
<!-- Generator: Adobe Illustrator 25.4.1, SVG Export Plug-In . SVG Version: 6.00 Build 0)  -->
<svg xmlns="http://www.w3.org/2000/svg" xmlns:xlink="http://www.w3.org/1999/xlink" version="1.1" x="0px" y="0px" viewBox="0 0 333.7 333.7" style="enable-background:new 0 0 333.7 333.7;" xml:space="preserve">
<style type="text/css">
	.st0{fill:#3BBFAD;}
	.st1{fill:#0C2949;}
	.st2{fill:none;}
	.st3{fill:#FFFFFF;}
	.st4{fill:#7B868C;}
	.st5{fill:none;stroke:#7B868C;stroke-width:0.5;stroke-miterlimit:10;}
	.st6{opacity:0.3;}
	.st7{fill-rule:evenodd;clip-rule:evenodd;fill:#DF1C54;}
	.st8{fill:none;stroke:#3BBFAD;stroke-width:14;stroke-miterlimit:10;}
	.st9{fill:#BC4A9B;}
	.st10{fill:none;stroke:#FBB040;stroke-width:14;stroke-miterlimit:10;}
	.st11{fill:#010101;}
</style>
<g id="Layer_2">
	<g>
		<path class="st3" d="M42.2,291.6V35.1c0-3.9-3.2-7-7-7h0c-3.9,0-7,3.2-7,7v263.5c0,3.9,3.2,7,7,7h263.5c3.9,0,7-3.2,7-7l0,0    c0-3.9-3.2-7-7-7H42.2z"></path>
		<path class="st3" d="M243.2,121.2l39.3-37.7v4.6c0,3.9,3.2,7,7,7l0,0c3.9,0,7-3.2,7-7V66.9c0-3.9-3.2-7-7-7h-21.2    c-3.9,0-7,3.2-7,7v0c0,3.9,3.2,7,7,7h3.7L233.4,111c-2.8,2.7-2.9,7.1-0.2,10l0,0C235.9,123.8,240.3,123.9,243.2,121.2z"></path>
		<path class="st1" d="M157.9,149.7l22.2,22.2c1.4,1.4,3.2,2.1,5,2.1c1.7,0,3.5-0.6,4.8-1.9l19.4-18.3c2.8-2.7,3-7.1,0.3-10l0,0    c-2.7-2.8-7.1-3-10-0.3L185.2,157l-22.4-22.4c-1.3-1.3-3.1-2-5-2c-1.9,0-3.7,0.8-5,2.2L134,154.2c-2.7,2.8-2.6,7.3,0.2,10v0    c2.8,2.7,7.3,2.6,10-0.2L157.9,149.7z"></path>
		<path class="st3" d="M111.7,187.9L111.7,187.9c-2.8-2.7-7.3-2.6-10,0.2l-41.3,43.4c-2.7,2.8-2.6,7.3,0.2,10l0,0    c2.8,2.7,7.3,2.6,10-0.2l41.3-43.4C114.6,195,114.5,190.6,111.7,187.9z"></path>
		<path class="st1" d="M131.4,200c11.1,9.5,25.3,14.8,40,14.8c0,0,0,0,0.1,0c13.9,0,27.4-4.7,38.2-13.3l9.6,9.6l-1.4,1.4    c-2.7,2.7-2.7,7.2,0,10l38.5,38.5c1.4,1.4,3.2,2.1,5,2.1c1.8,0,3.6-0.7,5-2.1l12.8-12.8c2.7-2.7,2.7-7.2,0-10l-38.5-38.5    c-1.3-1.3-3.1-2.1-5-2.1c-1.9,0-3.6,0.7-5,2.1l-1.4,1.4l-9.6-9.6c9.7-12.2,14.3-27.4,13.1-43c-1.3-16.4-8.8-31.3-21.3-42    c-12.5-10.7-28.4-15.9-44.8-14.6c-16.4,1.3-31.3,8.8-42,21.3S108.8,141.6,110,158C111.3,174.4,118.9,189.3,131.4,200z     M137.6,119.9l0.2-0.2c18.5-18.5,48.6-18.5,67.1,0c9,9,13.9,20.9,13.9,33.6c0,12.7-4.9,24.6-13.9,33.6s-20.9,13.9-33.6,13.9    s-24.6-4.9-33.6-13.9l-0.3-0.3C119.3,168.1,119.3,138.3,137.6,119.9z M232.8,217.5l2.9-2.9l28.6,28.6l-2.9,2.9L232.8,217.5z"></path>
	</g>
</g>
<g id="Layer_1">
</g>
</svg>
