<?xml version="1.0" encoding="UTF-8"?>
<!-- Generator: Adobe Illustrator 27.4.1, SVG Export Plug-In . SVG Version: 6.00 Build 0)  -->
<svg xmlns="http://www.w3.org/2000/svg" xmlns:xlink="http://www.w3.org/1999/xlink" version="1.1" x="0px" y="0px" viewBox="0 0 333.7 333.7" style="enable-background:new 0 0 333.7 333.7;" xml:space="preserve">
<style type="text/css">
	.st0{fill:#3BBFAD;}
	.st1{fill:#0C2949;}
	.st2{fill:none;}
	.st3{fill:#FFFFFF;}
	.st4{fill-rule:evenodd;clip-rule:evenodd;fill:#DF1C54;}
	.st5{fill:#7B868C;}
	.st6{fill:none;stroke:#7B868C;stroke-width:0.5;stroke-miterlimit:10;}
	.st7{opacity:0.3;}
	.st8{fill:none;stroke:#3BBFAD;stroke-width:14;stroke-miterlimit:10;}
	.st9{fill:#BC4A9B;}
	.st10{fill:none;stroke:#FBB040;stroke-width:14;stroke-miterlimit:10;}
	.st11{fill:#010101;}
</style>
<g id="Layer_2">
	<g>
		<path class="st3" d="M189.5,69.1L189.5,69.1c-14.9-3.4-30.4-3.4-45.3,0c-3.1,0.7-5.2,3.4-5.2,6.5v13.6c-5.6,2-11,4.6-16,7.7    l-10.6-8.5c-2.5-2-5.9-2-8.4,0c-6,4.8-11.4,10.2-16.1,16.1c-4.7,5.9-8.8,12.4-12.1,19.3c-1.4,2.8-0.6,6.2,1.9,8.1l10.6,8.5    c-1.9,5.6-3.3,11.5-4,17.4l-13.3,3c-3.1,0.7-5.2,3.4-5.2,6.5c0,7.7,0.8,15.3,2.5,22.7c1.7,7.4,4.2,14.6,7.6,21.5    c1.4,2.8,4.5,4.3,7.5,3.6l13.3-3c3.2,5,6.9,9.7,11.1,13.9l-5.9,12.3c-1.4,2.8-0.6,6.2,1.9,8.1c6,4.8,12.5,8.9,19.3,12.1    c6.8,3.3,14.1,5.8,21.5,7.5c0.5,0.1,1,0.2,1.5,0.2c2.5,0,4.9-1.4,6-3.8l5.9-12.3c6,0.7,11.8,0.7,17.8,0l5.9,12.3    c1.1,2.3,3.5,3.8,6,3.8c0,0,0,0,0,0c0.5,0,1-0.1,1.5-0.2c7.5-1.7,14.7-4.2,21.5-7.5c6.8-3.3,13.3-7.4,19.3-12.1    c2.5-2,3.2-5.3,1.9-8.1l-5.9-12.3c4.2-4.2,7.9-8.9,11.1-13.9l13.3,3c3.1,0.7,6.2-0.8,7.5-3.6c3.3-6.9,5.9-14.1,7.6-21.5    c1.7-7.4,2.5-15,2.5-22.7c0-3.1-2.1-5.8-5.2-6.5l-13.3-3c-0.7-5.9-2-11.8-4-17.4l10.6-8.5c2.5-2,3.2-5.3,1.9-8.1    c-3.3-6.9-7.4-13.4-12.1-19.3c-4.7-5.9-10.1-11.3-16.1-16.1c-2.5-2-5.9-2-8.3,0l-10.6,8.5c-5.1-3.2-10.4-5.7-16-7.7V75.6    C194.7,72.5,192.6,69.8,189.5,69.1z M233.3,133c-2.3,1.9-3.1,5.1-2,7.8c3,7.3,4.8,14.9,5.2,22.8c0.2,3,2.3,5.5,5.2,6.2l12.7,2.9    c-0.3,4.9-1,9.7-2,14.4c-1.1,4.7-2.5,9.3-4.4,13.8l-12.6-2.9c-2.9-0.7-5.9,0.7-7.4,3.3c-3.8,6.9-8.7,13-14.6,18.3    c-2.2,2-2.9,5.2-1.6,7.9l5.6,11.7c-4,2.8-8.2,5.3-12.5,7.4c-4.3,2.1-8.9,3.8-13.5,5.2l-5.6-11.7c-1.1-2.3-3.5-3.8-6-3.8    c-0.4,0-0.8,0-1.1,0.1c-7.8,1.3-15.6,1.3-23.4,0c-2.9-0.5-5.9,1-7.2,3.7l-5.6,11.7c-4.7-1.4-9.2-3.1-13.5-5.2    c-4.3-2.1-8.5-4.6-12.5-7.4l5.6-11.7c1.3-2.7,0.6-5.9-1.6-7.9c-5.9-5.3-10.8-11.4-14.6-18.3c-1.4-2.6-4.5-3.9-7.4-3.3l-12.6,2.9    c-1.9-4.5-3.3-9.1-4.4-13.8c-1.1-4.7-1.8-9.5-2-14.4l12.7-2.9c2.9-0.7,5-3.2,5.2-6.2c0.4-7.9,2.2-15.6,5.2-22.8    c1.1-2.7,0.3-6-2-7.8L90.3,125c2.4-4.3,5.1-8.3,8.1-12.1c3-3.8,6.3-7.3,10-10.5l10.2,8.1c2.3,1.9,5.6,1.9,8.1,0.2    c6.4-4.6,13.5-8,21.1-10.2c2.9-0.8,4.8-3.5,4.8-6.4v-13c9.6-1.6,19.3-1.6,28.9,0v13c0,3,2,5.6,4.8,6.4c7.6,2.2,14.6,5.6,21.1,10.2    c2.4,1.7,5.7,1.6,8.1-0.2l10.2-8.1c3.6,3.3,7,6.8,10,10.5c3,3.8,5.7,7.8,8.1,12.1L233.3,133z"></path>
		<path class="st3" d="M166.9,115.8c-27.5,0-49.9,22.4-49.9,49.9s22.4,49.9,49.9,49.9s49.9-22.4,49.9-49.9S194.4,115.8,166.9,115.8z     M166.9,202.2c-20.1,0-36.5-16.4-36.5-36.5s16.4-36.5,36.5-36.5s36.5,16.4,36.5,36.5S187,202.2,166.9,202.2z"></path>
		<path class="st0" d="M193.2,149.7c-2.6-2.6-6.9-2.6-9.5,0l-22,22L152,162c-1.3-1.3-2.9-1.9-4.7-1.9c0,0,0,0,0,0    c-1.8,0-3.5,0.7-4.7,2c-2.6,2.6-2.6,6.9,0,9.5l14.5,14.3c1.3,1.3,2.9,1.9,4.7,1.9c1.8,0,3.5-0.7,4.7-2l26.7-26.7    c1.3-1.3,2-2.9,2-4.7C195.2,152.6,194.5,150.9,193.2,149.7z"></path>
		<path class="st0" d="M98.6,279.2c-2.1,3.4-0.9,7.9,2.6,9.9c20.1,10.9,42.5,16.6,65.6,16.6c36.8,0,71.4-14.3,97.5-40.4    c26-26,40.4-60.6,40.4-97.5c0-29.8-9.4-58.2-27.1-82c-13.5-18.1-31.1-32.7-51.2-42.3l4.8-1.7c3.6-1.3,5.7-5.3,4.5-8.9    c-0.6-1.8-1.9-3.3-3.7-4.1c-1.7-0.8-3.6-0.9-5.3-0.2l-22.1,8c-1.6,0.6-3,1.7-3.9,3.1c-1.1,1.8-1.2,4-0.5,5.9l8.1,22.3l0.3,0.5    c1,2.1,3,3.6,5.2,4c1.3,0.2,2.5,0,3.7-0.4c3.5-1.4,5.1-5.5,3.8-9.1l-2.8-7.6c44,20.1,72.1,63.6,72.1,112.6    c0,68.3-55.6,123.9-123.9,123.9c-20.8,0-40.9-5.1-59-14.9C104.6,275,100.6,276.1,98.6,279.2L98.6,279.2z"></path>
		<path class="st0" d="M178,37c-0.5,3.6-3.6,6.2-7.1,6.1c-1.3,0-2.6-0.1-4-0.1C98.6,43,43,98.5,43,166.8c0,30.4,10.9,59.2,30.9,81.9    v-6.5c0-3.6,2.5-6.7,6.1-7.2c4.3-0.5,7.9,2.8,7.9,6.9v23.6c0,3.9-3.1,7-7,7H55.4c-3.6,0-6.7-2.5-7.2-6.1c-0.5-4.3,2.8-7.9,6.9-7.9    H64C41.4,233.2,29,200.9,29,166.8c0-36.8,14.3-71.4,40.4-97.5c26-26,60.6-40.4,97.5-40.4c1.5,0,2.9,0,4.4,0.1    C175.4,29.2,178.5,32.9,178,37L178,37z"></path>
	</g>
</g>
<g id="Layer_1">
</g>
</svg>
