<?xml version="1.0" encoding="UTF-8"?>
<!-- Generator: Adobe Illustrator 25.4.1, SVG Export Plug-In . SVG Version: 6.00 Build 0)  -->
<svg xmlns="http://www.w3.org/2000/svg" xmlns:xlink="http://www.w3.org/1999/xlink" version="1.1" x="0px" y="0px" viewBox="0 0 333.7 333.7" style="enable-background:new 0 0 333.7 333.7;" xml:space="preserve">
<style type="text/css">
	.st0{fill:#3BBFAD;}
	.st1{fill:#7B868C;}
	.st2{fill:none;stroke:#7B868C;stroke-width:0.5;stroke-miterlimit:10;}
	.st3{opacity:0.3;}
	.st4{fill:#0C2949;}
	.st5{fill:none;}
	.st6{fill:#FFFFFF;}
	.st7{fill-rule:evenodd;clip-rule:evenodd;fill:#DF1C54;}
	.st8{fill:none;stroke:#3BBFAD;stroke-width:14;stroke-miterlimit:10;}
	.st9{fill:#BC4A9B;}
	.st10{fill:none;stroke:#FBB040;stroke-width:14;stroke-miterlimit:10;}
</style>
<g id="Layer_2">
	<g>
		<path class="st6" d="M290.3,120.9c-5.3-1.1-16.5,0.3-22,13c0,0.1-0.1,0.2-0.1,0.3L253,175c-2.5-1.2-5.3-1.8-8.2-1.8    c-3.7,0-7.3,1.1-10.4,3.1l-40.4,26c-14,8.5-22.2,19.3-27.1,29.5c-4.9-10.2-13.1-21-27.1-29.5l-40.4-26c-3.1-2-6.7-3.1-10.4-3.1    c-2.9,0-5.7,0.6-8.2,1.8l-15.2-40.7c0-0.1-0.1-0.2-0.1-0.3c-5.5-12.8-16.7-14.1-22-13c-10.7,2-17.4,11.2-16.1,21.9    c0,0.3,0.1,0.5,0.2,0.8l17.1,68.7c4.6,18.5,17.1,37.1,33.5,49.8c0.1,0.1,0.1,0.1,0.2,0.2l26.6,19.1v8.9c0,6.8,5.5,12.3,12.3,12.3    h49.5c0,0,0.1,0,0.1,0c0,0,0.1,0,0.1,0h49.5c6.8,0,12.3-5.5,12.3-12.3v-8.9l26.6-19.1c0.1-0.1,0.1-0.1,0.2-0.2    c16.4-12.7,28.9-31.3,33.5-49.8l17.1-68.7c0.1-0.3,0.1-0.5,0.2-0.8C307.7,132.1,301,122.9,290.3,120.9z M159.9,264.3v24.4h-41.1    v-11c0-2.2-1.1-4.3-2.9-5.6l-29.4-21C72.7,240.4,61.8,224.3,58,209l-17-68.2c-0.3-3.3,1.6-5.6,5-6.3c0.1,0,0.1,0,0.1,0    c0,0,0,0,0,0c1.3-0.2,4.4,0,6.6,4.8l17.7,47.6c-2,6.4-0.5,13.7,4.5,18.9c0.2,0.2,0.5,0.5,0.7,0.7l27.3,21.5c3,2.4,7.3,1.8,9.7-1.1    c2.4-3,1.8-7.3-1.1-9.7l-26.8-21.2c-1.8-2.1-1.6-5.4,0.4-7.4c1-1,2.4-1.6,3.9-1.6c1,0,2.1,0.3,3,0.9l40.5,26c0,0,0.1,0.1,0.1,0.1    c24.5,14.9,27.3,38.4,27.4,46.7c0,0.7,0,1.3,0,1.9c0,0.6,0,1-0.1,1.2C159.9,263.9,159.9,264.1,159.9,264.3z M292.7,140.7l-17,68.2    c-3.8,15.3-14.7,31.4-28.5,42.1l-29.4,21c-1.8,1.3-2.9,3.4-2.9,5.6v11h-41.1v-24.4c0-0.2,0-0.4,0-0.6c0-0.1,0-0.6-0.1-1.2    c0-0.5,0-1.1,0-1.8c0.2-8.3,2.9-31.8,27.4-46.8c0,0,0.1-0.1,0.1-0.1l40.5-26c0.9-0.6,1.9-0.9,3-0.9c1.5,0,2.8,0.6,3.9,1.6    c2,2,2.1,5.2,0.4,7.4l-26.8,21.2c-3,2.4-3.5,6.7-1.1,9.7c2.4,3,6.7,3.5,9.7,1.1l27.3-21.5c0.3-0.2,0.5-0.4,0.7-0.7    c5-5.3,6.5-12.5,4.5-18.9l17.7-47.6c2.1-4.8,5.2-5,6.6-4.8c0,0,0,0,0,0c0,0,0,0,0.1,0C291.2,135.1,293,137.4,292.7,140.7z"></path>
		<path class="st4" d="M234.5,82.9c4.3-5.4,6.9-12.3,6.9-19.8c0-17.6-14.3-31.9-31.9-31.9c-17.6,0-31.9,14.3-31.9,31.9    c0,1.4,0.1,2.8,0.3,4.1c-3.4-1.2-7.1-1.9-10.9-1.9c-3.8,0-7.5,0.7-10.9,1.9c0.2-1.3,0.3-2.7,0.3-4.1c0-17.6-14.3-31.9-31.9-31.9    c-17.6,0-31.9,14.3-31.9,31.9c0,7.5,2.6,14.3,6.9,19.8c-10.9,3.9-18.6,14.3-18.6,26.5v28.6c0,7,5.7,12.7,12.7,12.7h29.9v21.8    c0,6.8,5.5,12.3,12.3,12.3h62.8c6.8,0,12.3-5.5,12.3-12.3v-21.8h29.9c7,0,12.7-5.7,12.7-12.7v-28.6    C253.1,97.2,245.3,86.8,234.5,82.9z M209.4,45c10,0,18.1,8.1,18.1,18.1c0,10-8.1,18.1-18.1,18.1c-10,0-18.1-8.1-18.1-18.1    C191.3,53.1,199.4,45,209.4,45z M185,97.2c0,10-8.1,18.1-18.1,18.1c-10,0-18.1-8.1-18.1-18.1s8.1-18.1,18.1-18.1    C176.9,79.1,185,87.2,185,97.2z M124.3,45c10,0,18.1,8.1,18.1,18.1c0,10-8.1,18.1-18.1,18.1c-10,0-18.1-8.1-18.1-18.1    C106.2,53.1,114.3,45,124.3,45z M94.4,109.4c0-7.9,6.4-14.3,14.3-14.3H135c0,0.7-0.1,1.4-0.1,2.2c0,7.5,2.6,14.3,6.9,19.8    c-8.8,3.2-15.6,10.6-17.8,19.8H94.4V109.4z M137,170.9v-26.6c0-0.2,0-0.4,0-0.6c0-0.1,0-0.3,0-0.4c0.1-7.8,6.5-14.1,14.3-14.1    h31.1c7.8,0,14.2,6.3,14.3,14.1c0,0.1,0,0.3,0,0.4c0,0.2,0,0.4,0,0.6v26.6H137z M239.3,136.8h-29.6c-2.2-9.2-9-16.6-17.8-19.8    c4.3-5.4,6.9-12.3,6.9-19.8c0-0.7,0-1.5-0.1-2.2H225c7.9,0,14.3,6.4,14.3,14.3V136.8z"></path>
	</g>
</g>
<g id="Layer_1">
</g>
</svg>
