<?xml version="1.0" encoding="UTF-8"?>
<!-- Generator: Adobe Illustrator 25.4.1, SVG Export Plug-In . SVG Version: 6.00 Build 0)  -->
<svg xmlns="http://www.w3.org/2000/svg" xmlns:xlink="http://www.w3.org/1999/xlink" version="1.1" x="0px" y="0px" viewBox="0 0 333.7 333.7" style="enable-background:new 0 0 333.7 333.7;" xml:space="preserve">
<style type="text/css">
	.st0{fill:#3BBFAD;}
	.st1{fill:#7B868C;}
	.st2{fill:none;stroke:#7B868C;stroke-width:0.5;stroke-miterlimit:10;}
	.st3{opacity:0.3;}
	.st4{fill:#0C2949;}
	.st5{fill:none;}
	.st6{fill:#FFFFFF;}
	.st7{fill-rule:evenodd;clip-rule:evenodd;fill:#DF1C54;}
	.st8{fill:none;stroke:#3BBFAD;stroke-width:14;stroke-miterlimit:10;}
	.st9{fill:#BC4A9B;}
	.st10{fill:none;stroke:#FBB040;stroke-width:14;stroke-miterlimit:10;}
</style>
<g id="Layer_2">
	<g>
		<g>
			<rect x="94.5" y="172.8" class="st5" width="10.9" height="10.9"></rect>
			<rect x="94.5" y="229.6" class="st5" width="10.9" height="10.9"></rect>
			<path class="st5" d="M179.3,56.2H163c-3.3,0-6.1-2.2-6.9-5.4c-1.2-5-5.6-8.4-10.7-8.4c-5.1,0-9.5,3.5-10.7,8.4     c-0.8,3.2-3.6,5.4-6.9,5.4h-16.3v13.5h67.7V56.2z"></path>
			<rect x="94.5" y="115.9" class="st5" width="10.9" height="10.9"></rect>
			<path class="st5" d="M237.9,218.9c-20,0-36.4,16.3-36.4,36.4c0,20,16.3,36.4,36.4,36.4c20,0,36.4-16.3,36.4-36.4     C274.2,235.3,257.9,218.9,237.9,218.9z"></path>
			<path class="st5" d="M230.8,205.3V73.6c0-2-1.6-3.6-3.6-3.6h-33.8v6.8c0,3.9-3.2,7-7,7h-81.8c-3.9,0-7-3.2-7-7V70H63.7     c-2,0-3.6,1.6-3.6,3.6V269c0,2,1.6,3.6,3.6,3.6h126.7c-2-5.5-3-11.3-3-17.2C187.4,230.3,206.3,208.8,230.8,205.3z M140,101.8     h63.5c3.9,0,7,3.2,7,7c0,3.9-3.2,7-7,7H140c-3.9,0-7-3.2-7-7C133,105,136.2,101.8,140,101.8z M140,126.8h63.5c3.9,0,7,3.2,7,7     c0,3.9-3.2,7-7,7H140c-3.9,0-7-3.2-7-7C133,130,136.2,126.8,140,126.8z M140,158.7h63.5c3.9,0,7,3.2,7,7s-3.2,7-7,7H140     c-3.9,0-7-3.2-7-7S136.2,158.7,140,158.7z M119.5,247.5c0,3.9-3.2,7-7,7h-25c-3.9,0-7-3.2-7-7v-25c0-3.9,3.2-7,7-7h25     c3.9,0,7,3.2,7,7V247.5z M119.5,190.7c0,3.9-3.2,7-7,7h-25c-3.9,0-7-3.2-7-7v-25c0-3.9,3.2-7,7-7h25c3.9,0,7,3.2,7,7V190.7z      M119.5,133.8c0,3.9-3.2,7-7,7h-25c-3.9,0-7-3.2-7-7v-25c0-3.9,3.2-7,7-7h25c3.9,0,7,3.2,7,7V133.8z M170,254.5H140     c-3.9,0-7-3.2-7-7c0-3.9,3.2-7,7-7H170c3.9,0,7,3.2,7,7C177,251.4,173.9,254.5,170,254.5z M170,229.6H140c-3.9,0-7-3.2-7-7     c0-3.9,3.2-7,7-7H170c3.9,0,7,3.2,7,7C177,226.4,173.9,229.6,170,229.6z M140,197.7c-3.9,0-7-3.2-7-7s3.2-7,7-7h63.5     c3.9,0,7,3.2,7,7s-3.2,7-7,7H140z"></path>
			<path class="st6" d="M140,115.9h63.5c3.9,0,7-3.2,7-7c0-3.9-3.2-7-7-7H140c-3.9,0-7,3.2-7,7C133,112.8,136.2,115.9,140,115.9z"></path>
			<path class="st6" d="M112.4,158.7h-25c-3.9,0-7,3.2-7,7v25c0,3.9,3.2,7,7,7h25c3.9,0,7-3.2,7-7v-25     C119.5,161.8,116.3,158.7,112.4,158.7z M105.4,183.6H94.5v-10.9h10.9V183.6z"></path>
			<path class="st6" d="M112.4,215.5h-25c-3.9,0-7,3.2-7,7v25c0,3.9,3.2,7,7,7h25c3.9,0,7-3.2,7-7v-25     C119.5,218.6,116.3,215.5,112.4,215.5z M105.4,240.4H94.5v-10.9h10.9V240.4z"></path>
			<path class="st6" d="M112.4,101.8h-25c-3.9,0-7,3.2-7,7v25c0,3.9,3.2,7,7,7h25c3.9,0,7-3.2,7-7v-25     C119.5,105,116.3,101.8,112.4,101.8z M105.4,126.8H94.5v-10.9h10.9V126.8z"></path>
			<path class="st6" d="M244.9,205.3V73.6c0-9.7-7.9-17.7-17.7-17.7h-33.8v-6.8c0-3.9-3.2-7-7-7h-18.5c-4.2-8.4-12.8-13.8-22.4-13.8     c-9.6,0-18.2,5.4-22.4,13.8h-18.5c-3.9,0-7,3.2-7,7v6.8H63.7C54,55.9,46,63.8,46,73.6V269c0,9.7,7.9,17.7,17.7,17.7h134.6     c9.6,12.2,24,19.1,39.5,19.1c27.8,0,50.5-22.6,50.5-50.5C288.3,230.3,269.5,208.8,244.9,205.3z M111.6,56.2h16.3     c3.3,0,6.1-2.2,6.9-5.4c1.2-5,5.6-8.4,10.7-8.4c5.1,0,9.5,3.5,10.7,8.4c0.8,3.2,3.6,5.4,6.9,5.4h16.3v13.5h-67.7V56.2z      M190.5,272.5H63.7c-2,0-3.6-1.6-3.6-3.6V73.6c0-2,1.6-3.6,3.6-3.6h33.8v6.8c0,3.9,3.2,7,7,7h81.8c3.9,0,7-3.2,7-7V70h33.8     c2,0,3.6,1.6,3.6,3.6v131.8c-24.5,3.5-43.4,24.9-43.4,50C187.4,261.3,188.4,267,190.5,272.5z M237.9,291.7     c-20,0-36.4-16.3-36.4-36.4c0-20,16.3-36.4,36.4-36.4c20,0,36.4,16.3,36.4,36.4C274.2,275.4,257.9,291.7,237.9,291.7z"></path>
			<path class="st6" d="M170,215.5H140c-3.9,0-7,3.2-7,7c0,3.9,3.2,7,7,7H170c3.9,0,7-3.2,7-7C177,218.6,173.9,215.5,170,215.5z"></path>
			<path class="st6" d="M170,240.4H140c-3.9,0-7,3.2-7,7c0,3.9,3.2,7,7,7H170c3.9,0,7-3.2,7-7C177,243.6,173.9,240.4,170,240.4z"></path>
			<path class="st6" d="M140,140.9h63.5c3.9,0,7-3.2,7-7c0-3.9-3.2-7-7-7H140c-3.9,0-7,3.2-7,7C133,137.7,136.2,140.9,140,140.9z"></path>
			<path class="st6" d="M210.5,190.7c0-3.9-3.2-7-7-7H140c-3.9,0-7,3.2-7,7s3.2,7,7,7h63.5C207.4,197.7,210.5,194.5,210.5,190.7z"></path>
			<path class="st6" d="M140,172.8h63.5c3.9,0,7-3.2,7-7s-3.2-7-7-7H140c-3.9,0-7,3.2-7,7S136.2,172.8,140,172.8z"></path>
		</g>
		<g>
			<path class="st4" d="M237.9,204.7c-27.9,0-50.6,22.7-50.6,50.6c0,27.9,22.7,50.6,50.6,50.6c27.9,0,50.6-22.7,50.6-50.6     C288.5,227.4,265.8,204.7,237.9,204.7z M237.9,291.7c-20,0-36.4-16.3-36.4-36.4c0-20,16.3-36.4,36.4-36.4     c20,0,36.4,16.3,36.4,36.4C274.2,275.4,257.9,291.7,237.9,291.7z"></path>
		</g>
		<path class="st4" d="M251.5,239.6l-20.1,20.3l-8.1-8.1c-2.7-2.7-7.2-2.7-10,0c-1.3,1.3-2.1,3.1-2.1,5c0,1.9,0.7,3.7,2.1,5    l13.1,13.1c1.3,1.3,3.1,2.1,5,2.1c1.9,0,3.7-0.7,5-2.1l25-25.3c1.3-1.3,2-3.1,2-5c0-1.9-0.8-3.6-2.1-5c-1.3-1.3-3.1-2.1-5-2    C254.6,237.5,252.8,238.3,251.5,239.6z"></path>
	</g>
</g>
<g id="Layer_1">
</g>
</svg>
