<?xml version="1.0" encoding="UTF-8"?>
<!-- Generator: Adobe Illustrator 27.4.1, SVG Export Plug-In . SVG Version: 6.00 Build 0)  -->
<svg xmlns="http://www.w3.org/2000/svg" xmlns:xlink="http://www.w3.org/1999/xlink" version="1.1" x="0px" y="0px" viewBox="0 0 333.7 333.7" style="enable-background:new 0 0 333.7 333.7;" xml:space="preserve">
<style type="text/css">
	.st0{fill:#3BBFAD;}
	.st1{fill:#0C2949;}
	.st2{fill:none;}
	.st3{fill:#FFFFFF;}
	.st4{fill-rule:evenodd;clip-rule:evenodd;fill:#DF1C54;}
	.st5{fill:#7B868C;}
	.st6{fill:none;stroke:#7B868C;stroke-width:0.5;stroke-miterlimit:10;}
	.st7{opacity:0.3;}
	.st8{fill:none;stroke:#3BBFAD;stroke-width:14;stroke-miterlimit:10;}
	.st9{fill:#BC4A9B;}
	.st10{fill:none;stroke:#FBB040;stroke-width:14;stroke-miterlimit:10;}
	.st11{fill:#010101;}
</style>
<g id="Layer_2">
	<g>
		<g>
			<path class="st0" d="M185.9,144.7c0-10.5-8.5-19-19-19s-19,8.5-19,19s8.5,19,19,19S185.9,155.2,185.9,144.7z M161.7,144.7     c0-2.9,2.3-5.2,5.2-5.2c2.9,0,5.2,2.3,5.2,5.2c0,2.9-2.3,5.2-5.2,5.2C164,149.9,161.7,147.5,161.7,144.7z"></path>
			<path class="st0" d="M262.1,128c-3.5-19.3-12.8-36.8-26.7-50.8c-18.3-18.3-42.6-28.4-68.5-28.4s-50.2,10.1-68.5,28.4     c-14,14-23.2,31.5-26.8,50.8l0,0.2c-1.1,5.8-1.6,11.7-1.6,17.5c0,6,0.5,11.9,1.6,17.7c0.6,3.3,3.5,5.7,6.8,5.7     c0.4,0,0.8,0,1.3-0.1c0.9-0.2,1.8-0.6,2.6-1.1h46.1c9,0,16.4,7.3,16.4,16.4v41.6c-20.1-5.5-37.2-18.3-48.4-36.1     c-1-1.6-2.5-2.7-4.3-3.1c-1.8-0.4-3.7-0.1-5.2,0.9c-1.6,1-2.7,2.5-3.1,4.3c-0.4,1.8-0.1,3.7,0.9,5.2     c8.6,13.7,20.5,25.1,34.5,33.1c14.5,8.2,31,12.5,47.7,12.5c16.7,0,33.2-4.3,47.7-12.5c14-8,26-19.4,34.5-33.1     c2-3.2,1-7.5-2.2-9.5c-3.2-2-7.5-1-9.5,2.2c-11.2,17.9-28.3,30.7-48.4,36.2v-41.6c0-9,7.3-16.4,16.4-16.4h47.5     c0.4,0,0.9,0,1.4-0.2c0.1,0,0.2,0,0.3,0.1c3.8,0.6,7.3-1.9,8-5.7c0.9-5.4,1.4-10.9,1.4-16.4c0-5.8-0.5-11.7-1.6-17.5     C262.2,128.2,262.1,128.1,262.1,128z M198.4,108.4c-20.6-5-42.5-5-63.1,0L88,119.9c11.1-33.8,43.2-57.2,78.9-57.2     s67.8,23.4,78.9,57.2L198.4,108.4z M128.4,154.1H84.2c-0.3-2.9-0.4-5.7-0.4-8.3c0-3.6,0.2-7.2,0.7-10.8l54-13     c18.5-4.5,38.1-4.5,56.6,0l54,13c0.5,3.6,0.7,7.3,0.7,10.8c0,2.7-0.1,5.5-0.4,8.3h-44.2c-16.6,0-30.2,13.5-30.2,30.2v44.1     c-5.7,0.6-10.8,0.6-16.5,0v-44.1C158.6,167.6,145.1,154.1,128.4,154.1z"></path>
			<path class="st0" d="M260.9,206.4L260.9,206.4c-3.1-2.3-7.4-1.6-9.7,1.5c-19.7,26.7-51.2,42.6-84.3,42.6c-34,0-66-16.6-85.7-44.5     c-2.2-3.1-6.5-3.9-9.6-1.7s-3.9,6.5-1.7,9.6c10.7,15.2,25.1,27.9,41.5,36.6c17,9,36.2,13.8,55.5,13.8c18.9,0,37.7-4.5,54.3-13.2     c16.1-8.3,30.4-20.5,41.1-35.1C264.6,213,264,208.7,260.9,206.4z"></path>
			<path class="st0" d="M258.1,70c-15.6-18.8-37.2-32.6-60.8-38.9l-1-0.3c-28.9-8.1-53.9-1.2-54.9-0.9l-0.2,0.1     c-25.5,5.6-48.7,19.8-65.5,40C58,91.2,48.3,118.1,48.3,145.8c0,2,0,3.9,0.1,5.9c0.2,3.7,3.2,6.6,6.9,6.6c0.1,0,0.2,0,0.3,0     c1.8-0.1,3.5-0.9,4.8-2.3c1.2-1.4,1.9-3.1,1.8-5c-0.1-1.7-0.1-3.5-0.1-5.2c0-50,35.5-93.2,84.5-102.8c0.2,0,0.3-0.1,0.5-0.1     c6.1-1.2,12.4-1.8,18.8-1.9c0.3,0,0.6,0.1,1,0.1h0.1c0.4,0,0.7,0,0.9-0.1c7.8,0.1,14.2,1,18.4,1.8c0.3,0.1,0.6,0.2,1,0.3     c48.9,9.6,84.3,52.9,84.3,102.8c0,2.2-0.1,4.3-0.2,6.5c-0.2,3.8,2.7,7.1,6.5,7.3c0.1,0,0.3,0,0.4,0c3.6,0,6.7-2.9,6.9-6.5     c0.1-2.4,0.2-4.8,0.2-7.3C285.4,118.1,275.7,91.2,258.1,70z"></path>
		</g>
		<g>
			<path class="st3" d="M306.6,223.5l-8.6-20.5l4.4-6.7c4.2-6.5,5.5-14.5,3.4-21.9l-4.5-16.3c-2.1-7.5-6.8-14-13.3-18.2     c-1.5-1-3.5-1.4-5.3-1c-1.8,0.4-3.4,1.5-4.4,3.1l-3.6,5.8l-16.2,8.6c-0.3,0.1-0.6,0.1-0.8-0.1c-1.7-1.8-4.3-2.5-6.7-1.8l-3.8,1     c-7,1.8-11.9,8.1-11.9,15.4v13.1c0,8.7,3.3,16.9,9.4,23.1l5.8,5.9l21.3,89.7c0.7,3.1,3.5,5.3,6.7,5.3c0.5,0,1.1-0.1,1.6-0.2     c3.7-0.9,6-4.6,5.1-8.3l-20.1-84.6l20.9-4.4l7.8,18.7c1.1,2.6,3.6,4.2,6.4,4.2c0.9,0,1.8-0.2,2.7-0.5     C306.4,231.1,308.1,227,306.6,223.5z M290.8,188.6L286,196l-26.9,5.7l-4.4-4.6c-3.5-3.6-5.4-8.4-5.4-13.4v-13.1     c0-0.9,0.6-1.7,1.5-2l0.7-0.2c4.3,2.2,9.4,2.2,13.7,0l17.8-9.5c1.1-0.6,2-1.4,2.6-2.4l0.1-0.2c1.1,1.6,1.9,3.4,2.4,5.3l4.5,16.3     C293.5,181.6,292.9,185.5,290.8,188.6z"></path>
			<path class="st3" d="M86.5,155.3l-3.8-1c-2.4-0.6-4.9,0.1-6.7,1.8c-0.2,0.2-0.6,0.3-0.8,0.1L59,147.6l-3.6-5.8     c-1-1.6-2.6-2.7-4.4-3.1s-3.7,0-5.3,1c-6.5,4.2-11.3,10.7-13.3,18.2l-4.5,16.3c-2.1,7.5-0.8,15.4,3.4,21.9l4.4,6.7l-8.6,20.5     c-0.7,1.7-0.7,3.6,0,5.3c0.7,1.7,2,3,3.7,3.8c0.9,0.4,1.8,0.5,2.7,0.5c2.8,0,5.3-1.7,6.4-4.2l7.8-18.7l20.9,4.4l-20.1,84.6     c-0.9,3.7,1.4,7.5,5.1,8.3c0.5,0.1,1.1,0.2,1.6,0.2c3.2,0,6-2.2,6.7-5.3l21.3-89.7l5.8-5.9c6-6.2,9.4-14.4,9.4-23.1v-13.1     C98.4,163.4,93.5,157.1,86.5,155.3z M84.5,170.7v13.1c0,5-1.9,9.8-5.4,13.4l-4.4,4.6L47.8,196l-4.9-7.4c-2.1-3.1-2.7-7-1.7-10.6     l4.5-16.3c0.5-1.9,1.3-3.7,2.4-5.3l0.1,0.2c0.6,1,1.5,1.9,2.6,2.4l17.8,9.5c4.2,2.3,9.4,2.3,13.7,0l0.7,0.2     C83.9,168.9,84.5,169.7,84.5,170.7z"></path>
		</g>
	</g>
</g>
<g id="Layer_1">
</g>
</svg>
