<?xml version="1.0" encoding="UTF-8"?>
<!-- Generator: Adobe Illustrator 25.4.1, SVG Export Plug-In . SVG Version: 6.00 Build 0)  -->
<svg xmlns="http://www.w3.org/2000/svg" xmlns:xlink="http://www.w3.org/1999/xlink" version="1.1" x="0px" y="0px" viewBox="0 0 333.7 333.7" style="enable-background:new 0 0 333.7 333.7;" xml:space="preserve">
<style type="text/css">
	.st0{fill:#3BBFAD;}
	.st1{fill:#7B868C;}
	.st2{fill:none;stroke:#7B868C;stroke-width:0.5;stroke-miterlimit:10;}
	.st3{opacity:0.3;}
	.st4{fill:#0C2949;}
	.st5{fill:none;}
	.st6{fill:#FFFFFF;}
	.st7{fill-rule:evenodd;clip-rule:evenodd;fill:#DF1C54;}
	.st8{fill:none;stroke:#3BBFAD;stroke-width:14;stroke-miterlimit:10;}
	.st9{fill:#BC4A9B;}
	.st10{fill:none;stroke:#FBB040;stroke-width:14;stroke-miterlimit:10;}
</style>
<g id="Layer_2">
	<g>
		<g>
			<path class="st6" d="M304.3,207.7c-1.1-24.6-16.1-43.4-43.4-54.3c-28.5-11.4-63.1-11-70-10.8l-23.1-46.3h8.7l0.1,0     c2.4-0.2,6.9-1.8,6.9-7.1v-2.5c0-6.5-2.6-12.8-7.2-17.4c-4.7-4.7-10.8-7.2-17.4-7.2H60.9c-3.2,0-6.3,1.3-8.5,3.5     c-2.2,2.2-3.5,5.3-3.5,8.5v10.1c0,3.2,1.3,6.2,3.5,8.5c1.8,1.8,4.1,3,6.5,3.4v87.7c-11,4.6-20.8,11.9-28.5,21     c-2.5,3-2.1,7.4,0.9,9.9c3,2.5,7.4,2.1,9.9-0.9c11.7-13.9,28.8-21.9,47-21.9c24,0,46,14.2,55.9,36.1c1.1,2.5,3.7,4.1,6.4,4.1     h48.3c-1,1.9-2,4-2.8,6c-1.5,3.6,0.3,7.7,3.8,9.2c0.9,0.4,1.8,0.5,2.6,0.5c2.8,0,5.4-1.6,6.5-4.4c8.1-19.6,27-32.3,48.1-32.3     c13.2,0,25.8,5,35.5,14c2,1.9,5,2.4,7.6,1.3c2.6-1.1,4.2-3.6,4.2-6.5c0-1.9,0-3.6,0-5C304.4,212.5,304.5,210.3,304.3,207.7z      M168.5,82.2H62.9v-6.1H159c2.8,0,5.5,1.1,7.5,3.1C167.3,80.1,168,81.1,168.5,82.2z M103.1,116.4H138l27.7,53.4     c0.6,1.1,0.9,2.3,0.9,3.5l0.1,19.6h-33.5c-8.9-6.7-19.2-11.3-30.1-13.5V116.4z M173.8,207c1.9,0,3.7-0.8,5-2.1     c1.3-1.3,2.1-3.1,2-5l-0.1-26.6c0-3.4-0.9-6.9-2.4-9.9l-29.7-57.2c-1.2-2.3-3.6-3.8-6.2-3.8H72.9v-6.1h79.2l32.8,65.5     c3.1,6.3,4.8,13.3,4.8,20.3v36h-34.9c-2.1-3.9-4.5-7.7-7.2-11.2H173.8z M89,116.4v61.5c-5.4-0.1-10.9,0.4-16.1,1.5v-63H89z      M197.9,156.5c12.2,0.1,36.7,1.5,57.8,9.9c21.2,8.4,32.8,21.8,34.4,39.6c-10-5.8-21.4-8.9-33.1-8.9c-18.2,0-35.8,7.6-48.2,20.9     h-5.1v-36C203.7,173.3,201.7,164.5,197.9,156.5z"></path>
			<g>
				<path class="st6" d="M88.1,227.1c-14.2,0-25.7,11.8-25.7,26.2c0,14.5,11.5,26.2,25.7,26.2c14.2,0,25.7-11.8,25.7-26.2      C113.7,238.9,102.2,227.1,88.1,227.1z M88.1,266c-6.7,0-12.1-5.7-12.1-12.7c0-7,5.4-12.7,12.1-12.7c6.7,0,12.1,5.7,12.1,12.7      C100.2,260.3,94.7,266,88.1,266z"></path>
				<path class="st6" d="M88.1,202.2c-28.2,0-51.1,22.9-51.1,51.1s22.9,51.1,51.1,51.1s51.1-22.9,51.1-51.1S116.2,202.2,88.1,202.2z       M88.1,290.9c-20.7,0-37.5-16.8-37.5-37.5s16.8-37.5,37.5-37.5s37.5,16.8,37.5,37.5S108.8,290.9,88.1,290.9z"></path>
			</g>
			<g>
				<path class="st6" d="M257.1,220.9c-23.4,0-42.4,19-42.4,42.4c0,23.4,19,42.4,42.4,42.4s42.4-19,42.4-42.4      C299.5,239.9,280.5,220.9,257.1,220.9z M257.1,292.2c-16,0-28.9-13-28.9-28.9c0-16,13-28.9,28.9-28.9s28.9,13,28.9,28.9      C286,279.2,273,292.2,257.1,292.2z"></path>
				<path class="st6" d="M257.1,240.9c-12.1,0-22,10-22,22.4c0,12.3,9.9,22.4,22,22.4s22-10,22-22.4      C279,250.9,269.2,240.9,257.1,240.9z M257.1,272.2c-4.7,0-8.5-4-8.5-8.9c0-4.9,3.8-8.9,8.5-8.9s8.5,4,8.5,8.9      C265.5,268.2,261.7,272.2,257.1,272.2z"></path>
			</g>
		</g>
		<path class="st4" d="M267.7,62.7L247.6,83l-8.1-8.1c-2.7-2.7-7.2-2.7-10,0c-1.3,1.3-2.1,3.1-2.1,5s0.7,3.7,2.1,5L242.6,98    c1.3,1.3,3.1,2.1,5,2.1c1.9,0,3.7-0.7,5-2.1l25-25.3c1.3-1.3,2-3.1,2-5c0-1.9-0.8-3.6-2.1-5c-1.3-1.3-3.1-2.1-5-2    C270.7,60.7,269,61.4,267.7,62.7z"></path>
		<g>
			<path class="st4" d="M253.6,132.2c-28.6,0-51.8-23.3-51.8-51.8s23.3-51.8,51.8-51.8s51.8,23.3,51.8,51.8S282.2,132.2,253.6,132.2     z M253.6,42.5c-20.9,0-37.8,17-37.8,37.8s17,37.8,37.8,37.8s37.8-17,37.8-37.8S274.4,42.5,253.6,42.5z"></path>
		</g>
	</g>
</g>
<g id="Layer_1">
</g>
</svg>
