<?xml version="1.0" encoding="UTF-8"?>
<!-- Generator: Adobe Illustrator 25.4.1, SVG Export Plug-In . SVG Version: 6.00 Build 0)  -->
<svg xmlns="http://www.w3.org/2000/svg" xmlns:xlink="http://www.w3.org/1999/xlink" version="1.1" x="0px" y="0px" viewBox="0 0 333.7 333.7" style="enable-background:new 0 0 333.7 333.7;" xml:space="preserve">
<style type="text/css">
	.st0{fill:#3BBFAD;}
	.st1{fill:#7B868C;}
	.st2{fill:none;stroke:#7B868C;stroke-width:0.5;stroke-miterlimit:10;}
	.st3{opacity:0.3;}
	.st4{fill:#0C2949;}
	.st5{fill:none;}
	.st6{fill:#FFFFFF;}
	.st7{fill-rule:evenodd;clip-rule:evenodd;fill:#DF1C54;}
	.st8{fill:none;stroke:#3BBFAD;stroke-width:14;stroke-miterlimit:10;}
	.st9{fill:#BC4A9B;}
	.st10{fill:none;stroke:#FBB040;stroke-width:14;stroke-miterlimit:10;}
</style>
<g id="Layer_2">
	<g>
		<path class="st6" d="M295.2,155.5l-18.4-7.9L261.1,117c-4.5-8.8-13.3-14.2-23.2-14.2c-0.1,0-0.1,0-0.2,0h-26.3v-6.7    c0-14.5-11.7-26.4-26.1-26.4H54.6c-14.3,0-26,11.8-26,26.4v118.3c-0.1,4.4,1.6,8.5,4.6,11.7c3.1,3.1,7.2,4.9,11.6,5h2.4    c0,0.1,0,0.1,0,0.2c0,8.7,3.3,17,9.5,23.2c6.2,6.2,14.4,9.6,23.1,9.7c0,0,0.1,0,0.1,0c18,0,32.7-14.6,32.8-32.6v-0.3    c0-0.1,0-0.2,0-0.2h103.5v0.2c0,8.7,3.3,17,9.5,23.2c6.2,6.2,14.4,9.6,23.1,9.7c0,0,0.1,0,0.1,0c18,0,32.7-14.6,32.8-32.6v-0.5    h6.9c9.1,0,16.4-7.4,16.4-16.4v-43.7C305.2,164.2,301.2,158.1,295.2,155.5z M80.1,212.9c10.2,0,18.5,8.3,18.5,18.5    s-8.3,18.5-18.5,18.5s-18.5-8.3-18.5-18.5S69.9,212.9,80.1,212.9z M197.1,183.9v32.9h-87.7c-5.4-11.2-16.8-18.3-29.2-18.3    c-0.1,0-0.2,0-0.3,0c-12.5,0-23.9,7.2-29.2,18.3h-5.6c-1.3,0-2.2-1-2.2-2.4v-30.6H197.1z M197.1,169.6H42.9V96.1    c0-6.7,5.3-12.1,11.7-12.1h130.6c3.2,0,6.2,1.3,8.4,3.6c2.2,2.3,3.5,5.3,3.4,8.5V169.6z M198.1,96.1L198.1,96.1L198.1,96.1    L198.1,96.1z M211.4,145.7v-28.6h26.3c4.5-0.1,8.7,2.4,10.7,6.4l11.5,22.3H211.4z M249.1,249.8c-10.2,0-18.5-8.3-18.5-18.5    s8.3-18.5,18.5-18.5c10.2,0,18.5,8.3,18.5,18.5S259.3,249.8,249.1,249.8z M290.9,170.9v43.6c0,1.4-0.9,2.4-2.2,2.4h-10.3    c-3.7-7.6-10.2-13.4-18.2-16.3c-8.2-3-17.1-2.6-25,1.1c-6.8,3.1-12.3,8.5-15.5,15.2h-8.3V160h58.8l19.2,8.5    C290.4,168.9,291,169.9,290.9,170.9z"></path>
		<g>
			<path class="st4" d="M42.9,169.4V96.1c0-6.7,5.3-12.1,11.7-12.1h130.6c3.2,0,6.2,1.3,8.4,3.6c2.2,2.3,3.5,5.3,3.4,8.5v73.3h14.3     V96.1c0-14.5-11.7-26.4-26.1-26.4H54.6c-14.3,0-26,11.8-26,26.4v73.3H42.9z"></path>
		</g>
		<path class="st4" d="M134.1,109.5L114,129.8l-8.1-8.1c-2.7-2.7-7.2-2.7-10,0c-1.3,1.3-2.1,3.1-2.1,5c0,1.9,0.7,3.7,2.1,5    l13.1,13.1c1.3,1.3,3.1,2.1,5,2.1c1.9,0,3.7-0.7,5-2.1l25-25.3c1.3-1.3,2-3.1,2-5c0-1.9-0.8-3.6-2.1-5c-1.3-1.3-3.1-2.1-5-2    C137.2,107.4,135.4,108.1,134.1,109.5z"></path>
	</g>
</g>
<g id="Layer_1">
</g>
</svg>
