<?xml version="1.0" encoding="UTF-8"?>
<!-- Generator: Adobe Illustrator 25.4.1, SVG Export Plug-In . SVG Version: 6.00 Build 0)  -->
<svg xmlns="http://www.w3.org/2000/svg" xmlns:xlink="http://www.w3.org/1999/xlink" version="1.1" x="0px" y="0px" viewBox="0 0 333.7 333.7" style="enable-background:new 0 0 333.7 333.7;" xml:space="preserve">
<style type="text/css">
	.st0{fill:#3BBFAD;}
	.st1{fill:#7B868C;}
	.st2{fill:none;stroke:#7B868C;stroke-width:0.5;stroke-miterlimit:10;}
	.st3{opacity:0.3;}
	.st4{fill:#0C2949;}
	.st5{fill:none;}
	.st6{fill:#FFFFFF;}
	.st7{fill-rule:evenodd;clip-rule:evenodd;fill:#DF1C54;}
	.st8{fill:none;stroke:#3BBFAD;stroke-width:14;stroke-miterlimit:10;}
	.st9{fill:#BC4A9B;}
	.st10{fill:none;stroke:#FBB040;stroke-width:14;stroke-miterlimit:10;}
</style>
<g id="Layer_2">
	<g>
		<path class="st6" d="M293.7,165h-11.1c-6.7,0-12.1,5.4-12.1,12.1v8.9H241v-11.8c11-1.3,20.8-5.9,28.4-13.4    c9.1-9.1,14-21.6,13.8-35.2c-0.1-3.7-3-6.6-6.6-6.6c-0.3,0-0.5,0-0.8,0c-13.4,0-25.6,4.9-34.5,13.8c-0.1,0.1-0.2,0.2-0.3,0.3v-3.4    c0-3.7-3-6.7-6.7-6.7c-3.7,0-6.7,3-6.7,6.7V186h-53.8v-36.1c11.1-1.3,20.8-5.9,28.4-13.4c9.1-9.1,14-21.6,13.8-35.2    c-0.1-3.7-3-6.6-6.6-6.6c-13.6-0.2-26.1,4.7-35.2,13.8c-0.1,0.1-0.2,0.2-0.3,0.3v-6.8c0-3.7-3-6.7-6.7-6.7s-6.7,3-6.7,6.7V133    c-0.1-0.1-0.2-0.2-0.3-0.3c-9.1-9.1-21.6-14-35.2-13.8c-3.7,0.1-6.6,3-6.6,6.6c-0.2,13.6,4.7,26.1,13.8,35.2    c7.5,7.5,17.3,12.2,28.4,13.4V186h-54.1v-56.3c0-3.7-3-6.7-6.7-6.7s-6.7,3-6.7,6.7v3.4c-0.1-0.1-0.2-0.2-0.3-0.3    c-9.1-9.1-21.5-14-35.2-13.8c-3.7,0.1-6.6,3-6.6,6.6c-0.2,13.6,4.7,26.1,13.8,35.2c7.5,7.5,17.3,12.2,28.4,13.4V186H63.3v-8.9    c0-6.7-5.4-12.1-12.1-12.1H40.1c-6.7,0-12.1,5.4-12.1,12.1v116.5c0,6.7,5.4,12.1,12.1,12.1h253.6c6.7,0,12.1-5.4,12.1-12.1V177.1    C305.8,170.4,300.3,165,293.7,165z M292.3,292.3h-8.4V178.5h8.4L292.3,292.3z M270.4,270.3v22H63.3v-22H270.4z M270.4,234.9v22    H63.3v-22H270.4z M64.6,133c7.1,1.2,13.4,4.4,18.3,9.3c4.9,4.9,8.1,11.2,9.3,18.3c-7.1-1.2-13.4-4.4-18.3-9.3v0    C69,146.4,65.8,140.1,64.6,133z M150.5,142.3c4.9,4.9,8.1,11.2,9.3,18.3c-7.1-1.2-13.4-4.4-18.3-9.3l0,0    c-4.9-4.9-8.1-11.2-9.3-18.3C139.3,134.2,145.6,137.4,150.5,142.3z M270.4,199.5v22H63.3v-22H270.4z M250.9,142.3L250.9,142.3    c4.9-4.9,11.2-8.1,18.3-9.3c-1.2,7.1-4.4,13.4-9.3,18.3c-4.9,4.9-11.2,8.1-18.3,9.3C242.8,153.4,246,147.1,250.9,142.3z     M201.9,108.6c-1.2,7.1-4.4,13.4-9.3,18.3c-4.9,4.9-11.2,8.1-18.3,9.3c1.2-7.1,4.4-13.4,9.3-18.3S194.7,109.8,201.9,108.6z     M49.8,178.5v113.8h-8.4V178.5H49.8z"></path>
		<path class="st4" d="M262.2,48.8c-7.7,0-14.6,3.8-18.9,9.6l-54-12.6c-2.6-10.2-11.8-17.8-22.8-17.8c-12.7,0-23.1,10.2-23.5,22.8    l-38.4,13c-4.3-5.6-11-9.2-18.6-9.2c-12.9,0-23.5,10.5-23.5,23.5s10.5,23.5,23.5,23.5s23.5-10.5,23.5-23.5c0-0.4,0-0.8,0-1.2    l37.4-12.7c4.2,6.4,11.4,10.7,19.7,10.7c10,0,18.5-6.2,21.9-15l50.3,11.8c0,0.2,0,0.4,0,0.6c0,12.9,10.5,23.5,23.5,23.5    s23.5-10.5,23.5-23.5C285.7,59.3,275.1,48.8,262.2,48.8z M86.1,87.6c-5.2,0-9.5-4.3-9.5-9.5s4.3-9.5,9.5-9.5s9.5,4.3,9.5,9.5    S91.3,87.6,86.1,87.6z M166.5,60.9c-5.2,0-9.5-4.3-9.5-9.5s4.3-9.5,9.5-9.5s9.5,4.3,9.5,9.5S171.8,60.9,166.5,60.9z M262.2,81.7    c-5.2,0-9.5-4.3-9.5-9.5c0-5.2,4.3-9.5,9.5-9.5s9.5,4.3,9.5,9.5C271.7,77.5,267.4,81.7,262.2,81.7z"></path>
	</g>
</g>
<g id="Layer_1">
</g>
</svg>
