<?xml version="1.0" encoding="UTF-8"?>
<!-- Generator: Adobe Illustrator 27.4.1, SVG Export Plug-In . SVG Version: 6.00 Build 0)  -->
<svg xmlns="http://www.w3.org/2000/svg" xmlns:xlink="http://www.w3.org/1999/xlink" version="1.1" x="0px" y="0px" viewBox="0 0 333.7 333.7" style="enable-background:new 0 0 333.7 333.7;" xml:space="preserve">
<style type="text/css">
	.st0{fill:#3BBFAD;}
	.st1{fill:#0C2949;}
	.st2{fill:none;}
	.st3{fill:#FFFFFF;}
	.st4{fill-rule:evenodd;clip-rule:evenodd;fill:#DF1C54;}
	.st5{fill:#7B868C;}
	.st6{fill:none;stroke:#7B868C;stroke-width:0.5;stroke-miterlimit:10;}
	.st7{opacity:0.3;}
	.st8{fill:none;stroke:#3BBFAD;stroke-width:14;stroke-miterlimit:10;}
	.st9{fill:#BC4A9B;}
	.st10{fill:none;stroke:#FBB040;stroke-width:14;stroke-miterlimit:10;}
	.st11{fill:#010101;}
</style>
<g id="Layer_2">
	<g>
		<circle class="st0" cx="134.3" cy="167.3" r="6.9"></circle>
		<circle class="st0" cx="134.3" cy="134.7" r="6.9"></circle>
		<circle class="st0" cx="134.3" cy="199.9" r="6.9"></circle>
		<path class="st3" d="M199.4,160.4h-32.6c-3.8,0-6.9,3.1-6.9,6.9s3.1,6.9,6.9,6.9h32.6c3.8,0,6.9-3.1,6.9-6.9    S203.2,160.4,199.4,160.4z"></path>
		<path class="st3" d="M199.4,127.9h-32.6c-3.8,0-6.9,3.1-6.9,6.9s3.1,6.9,6.9,6.9h32.6c3.8,0,6.9-3.1,6.9-6.9    S203.2,127.9,199.4,127.9z"></path>
		<path class="st3" d="M199.4,193h-32.6c-3.8,0-6.9,3.1-6.9,6.9s3.1,6.9,6.9,6.9h32.6c3.8,0,6.9-3.1,6.9-6.9S203.2,193,199.4,193z"></path>
		<path class="st3" d="M158.6,290.9c-61.7-4.1-111.3-53.7-115.4-115.4l-0.1-1.3h35.7l0.1,1.1c1.9,20.8,10.7,39.6,25.5,54.4    c14.8,14.8,33.6,23.6,54.4,25.5l1.1,0.1v-13.8c-37.8-3.5-67.6-35.4-67.6-74.2c0-41.1,33.4-74.5,74.5-74.5    c18.1,0,34.6,6.5,47.5,17.2l9.8-9.8l-0.8-0.7c-16-13.4-35.5-20.4-56.5-20.4c-23.6,0-45.8,9.2-62.4,25.9    c-14.8,14.8-23.6,33.6-25.5,54.4l-0.1,1.1H43.1l0.1-1.3c4.3-64.9,58.6-115.7,123.6-115.7c30,0,59,10.9,81.6,30.7l1,0.9l9.8-9.8    c-11.5-10.4-24.5-18.7-38.7-24.7c-17-7.2-35-10.8-53.6-10.8c-18.6,0-36.6,3.6-53.6,10.8c-16.4,6.9-31.1,16.9-43.8,29.5    C56.9,82.6,46.9,97.3,40,113.7c-7.2,17-10.8,35-10.8,53.6c0,18.6,3.6,36.6,10.8,53.6c6.9,16.4,16.9,31.1,29.5,43.8    c12.6,12.6,27.4,22.6,43.8,29.5c14.9,6.3,30.5,9.9,46.7,10.7V291L158.6,290.9z"></path>
		<path class="st0" d="M293.7,113.7c-6-14.3-14.3-27.3-24.7-38.7c-1.6-1.7-3.2-3.4-4.8-5c-1.6-1.6-3.3-3.2-5-4.8l-9.8,9.8l0,0    l-25.2,25.2l0,0l-9.8,9.8c3.6,3,6.9,6.3,9.8,9.8c10.7,12.9,17.2,29.5,17.2,47.5c0,38.7-29.7,70.7-67.6,74.2    c-2.3,0.2-4.6,0.3-6.9,0.3c-2.3,0-4.7-0.1-6.9-0.3v13.8l0.1,0V291l-0.1,0v13.8c2.3,0.1,4.6,0.2,6.9,0.2c2.3,0,4.6-0.1,6.9-0.2    c16.1-0.8,31.8-4.4,46.7-10.7c16.4-6.9,31.1-16.9,43.8-29.5c12.6-12.6,22.6-27.4,29.5-43.8c7.2-17,10.8-35,10.8-53.6    C304.6,148.7,300.9,130.7,293.7,113.7z M234.7,110.8L234,110l0-0.1l25.2-25.2l0,0.1l0.8,0.9c7.1,8.1,13.1,17.1,17.9,26.7l0.6,1.2    l-32.9,13.6l-0.5-1C242.2,120.8,238.7,115.6,234.7,110.8z M248.4,260.5c-20.7,18.1-46,28.6-73.3,30.4l-1.3,0.1l-0.1,0v-35.7l0.1,0    l1.1-0.1c17.9-1.6,34.7-8.5,48.5-20.1l0.9-0.7l25.2,25.2L248.4,260.5z M290.5,175.5c-1.8,27.3-12.3,52.7-30.4,73.3l-0.9,1    L234,224.7l0.7-0.9c11.5-13.8,18.5-30.6,20.1-48.5l0.1-1.1h35.7L290.5,175.5z M254.9,160.4l-0.1-1.1c-0.6-6.2-1.8-12.3-3.6-18.2    l-0.3-1.1l32.9-13.6l0.4,1.3c3.4,10.1,5.5,20.7,6.2,31.5l0.1,1.3H254.9z"></path>
	</g>
</g>
<g id="Layer_1">
</g>
</svg>
