<?xml version="1.0" encoding="UTF-8"?>
<!-- Generator: Adobe Illustrator 25.4.1, SVG Export Plug-In . SVG Version: 6.00 Build 0)  -->
<svg xmlns="http://www.w3.org/2000/svg" xmlns:xlink="http://www.w3.org/1999/xlink" version="1.1" x="0px" y="0px" viewBox="0 0 333.7 333.7" style="enable-background:new 0 0 333.7 333.7;" xml:space="preserve">
<style type="text/css">
	.st0{fill:#3BBFAD;}
	.st1{fill:#7B868C;}
	.st2{fill:none;stroke:#7B868C;stroke-width:0.5;stroke-miterlimit:10;}
	.st3{opacity:0.3;}
	.st4{fill:#0C2949;}
	.st5{fill:none;}
	.st6{fill:#FFFFFF;}
	.st7{fill-rule:evenodd;clip-rule:evenodd;fill:#DF1C54;}
	.st8{fill:none;stroke:#3BBFAD;stroke-width:14;stroke-miterlimit:10;}
	.st9{fill:#BC4A9B;}
	.st10{fill:none;stroke:#FBB040;stroke-width:14;stroke-miterlimit:10;}
</style>
<g id="Layer_2">
	<g>
		<path class="st6" d="M201.2,156.5c-7.7-3.3-13.3-10.2-15-18.4l-0.2-0.9c-0.5-2.8-1.1-5.6-3.2-9.2l-0.4-0.7l-9.6-10.3l-7.2-7.2    c-2.7-2.7-7.2-2.7-9.9,0l-6.5,6.5L106.8,74V53.9c0-3-1.9-5.7-4.8-6.7L50.3,30c-2.5-0.8-5.3-0.2-7.2,1.7L31.6,43.2    c-1.9,1.9-2.5,4.6-1.7,7.2L47.2,102c1,2.9,3.6,4.8,6.7,4.8h20.1l0.3,0.3l42,42l-6.5,6.5c-2.7,2.7-2.7,7.2,0,9.9l7.2,7.2    c0,0,3.1,4,10.3,9.6l0.7,0.4c3.5,2.1,6.4,2.7,9.2,3.2l0.9,0.2c8.3,1.7,15.2,7.3,18.4,15l0.3,0.7c0,0,3.2,4.5,4.9,14.9l0.8,1    c0.7,1,1.6,2,2.4,2.9l77,77c4.4,4.4,10.2,6.8,16.4,6.8c6.2,0,12.1-2.4,16.4-6.8l23-23c4.4-4.4,6.8-10.2,6.8-16.4    s-2.4-12.1-6.8-16.4v0l-77-77c-0.9-0.9-1.8-1.7-2.9-2.4l-1-0.8c-4.9-4.2-14.9-4.9-14.9-4.9L201.2,156.5z M81.7,94.9    c-1.3-1.3-3.1-2.1-5-2.1H58.9L44.6,50l5.3-5.3l42.8,14.3v17.9c0,1.9,0.7,3.6,2.1,5l44.4,44.4l-13,13L81.7,94.9z M204.4,172    c2.3,0.4,4.4,0.8,6.4,2.9l77,77c1.7,1.7,2.7,4.1,2.7,6.5s-1,4.8-2.7,6.5v0l-6.5,6.5l-0.8-0.8l-74.7-74.7c-1.3-1.3-3.1-2.1-5-2.1    c-1.9,0-3.6,0.7-5,2.1c-2.7,2.7-2.7,7.2,0,9.9l75.5,75.5l-6.5,6.5c-1.8,1.8-4.2,2.7-6.5,2.7c-2.4,0-4.7-0.9-6.5-2.7l-77-77    c-2-2-2.4-4.1-2.9-6.4l-0.2-0.9c-3.1-15.7-15.3-27.9-31-31l-0.9-0.2c-2.3-0.4-4.4-0.8-6.4-2.9l-8.8-8.8l36-36l8.8,8.8    c2,2,2.4,4.1,2.9,6.4l0.2,0.9c3.1,15.7,15.3,27.9,31,31C203.8,171.9,204.1,171.9,204.4,172z"></path>
		<path class="st4" d="M127.4,231.3L127.4,231.3c-1.8,1.8-2.5,4.4-1.8,6.8c3.8,14.4-0.3,29.8-10.8,40.3    c-7.9,7.9-18.3,12.2-29.5,12.2s-21.6-4.3-29.5-12.2c-16.3-16.3-16.3-42.7,0-59c10.5-10.5,25.9-14.6,40.3-10.8    c2.4,0.6,5-0.1,6.8-1.8l24.3-24.3c-7.2-5.6-10.3-9.6-10.3-9.6l-21.2,21.2l-0.6-0.1c-18-3.2-36.4,2.6-49.2,15.5    c-21.7,21.7-21.7,57.1,0,78.8c21.7,21.7,57.1,21.7,78.8,0c12.9-12.9,18.7-31.3,15.5-49.2l-0.1-0.6l21.6-21.6    c-1.7-10.4-4.9-14.9-4.9-14.9L127.4,231.3z"></path>
		<path class="st4" d="M85.3,225.6c-6,0-11.9,2.3-16.4,6.8c-4.4,4.4-6.8,10.2-6.8,16.4s2.4,12.1,6.8,16.4c4.4,4.4,10.2,6.8,16.4,6.8    c6.2,0,12.1-2.4,16.4-6.8c9.1-9.1,9.1-23.8,0-32.9C97.2,227.9,91.3,225.6,85.3,225.6z M91.8,255.4c-1.8,1.8-4.2,2.7-6.5,2.7    s-4.7-0.9-6.5-2.7c-3.6-3.6-3.6-9.4,0-13c3.6-3.6,9.4-3.6,13,0c1.7,1.7,2.7,4.1,2.7,6.5C94.5,251.3,93.6,253.7,91.8,255.4z"></path>
		<path class="st4" d="M239,140.3c18,3.2,36.4-2.6,49.2-15.5c16.7-16.7,21.1-42.2,10.9-63.5c-1-2.1-2.9-3.5-5.1-3.9    c-2.3-0.4-4.5,0.3-6.2,2l-1.4,1.4c-2.2,2.2-2.2,2.2-12.2,11.8l-11,10.6h-12.2V71l10.6-11c9.6-10,9.6-10,11.8-12.2l1.4-1.4    c1.6-1.6,2.3-3.9,2-6.1s-1.8-4.2-3.9-5.1c-21.3-10.2-46.8-5.8-63.5,10.9c-12.9,12.9-18.7,31.3-15.5,49.2l0.1,0.6L172.8,117    l9.6,10.3l24.3-24.3c1.8-1.8,2.5-4.4,1.8-6.8c-3.8-14.4,0.3-29.8,10.8-40.3c9.3-9.3,22.6-13.7,35.6-11.8l2.1,0.3l-18.1,18.9    c-1.3,1.3-2,3-2,4.9v22.1c0,3.9,3.1,7,7,7H266c1.8,0,3.6-0.7,4.9-2l18.9-18.1l0.3,2.1c1.9,13-2.5,26.3-11.8,35.6    c-10.5,10.5-25.9,14.6-40.3,10.8c-2.4-0.6-5,0.1-6.8,1.8l-29.3,29.3c0,0,10,0.8,14.9,4.9l21.6-21.6L239,140.3z"></path>
	</g>
</g>
<g id="Layer_1">
</g>
</svg>
