<?xml version="1.0" encoding="UTF-8"?>
<!-- Generator: Adobe Illustrator 27.4.1, SVG Export Plug-In . SVG Version: 6.00 Build 0)  -->
<svg xmlns="http://www.w3.org/2000/svg" xmlns:xlink="http://www.w3.org/1999/xlink" version="1.1" x="0px" y="0px" viewBox="0 0 333.7 333.7" style="enable-background:new 0 0 333.7 333.7;" xml:space="preserve">
<style type="text/css">
	.st0{fill:#3BBFAD;}
	.st1{fill:#0C2949;}
	.st2{fill:none;}
	.st3{fill:#FFFFFF;}
	.st4{fill-rule:evenodd;clip-rule:evenodd;fill:#DF1C54;}
	.st5{fill:#7B868C;}
	.st6{fill:none;stroke:#7B868C;stroke-width:0.5;stroke-miterlimit:10;}
	.st7{opacity:0.3;}
	.st8{fill:none;stroke:#3BBFAD;stroke-width:14;stroke-miterlimit:10;}
	.st9{fill:#BC4A9B;}
	.st10{fill:none;stroke:#FBB040;stroke-width:14;stroke-miterlimit:10;}
	.st11{fill:#010101;}
</style>
<g id="Layer_2">
	<g>
		<path class="st2" d="M263.1,147.3c-3.2,0-6-2.1-6.9-5.2c-1.9-6.9-4.7-13.6-8.2-19.8c-1.6-2.8-1.1-6.3,1.2-8.6l20-20l-9.1-9.1    L218.7,126c9.4,11.7,14.6,26.3,14.6,41.3c0,15.9-5.7,31.2-16.1,43.2c-23.3,26.9-63.7,30.4-91.2,8.3l-41.4,41.4l9.1,9.1l20-20    c2.2-2.3,5.8-2.7,8.5-1.2c6.2,3.5,12.9,6.3,19.8,8.2c3.1,0.9,5.2,3.7,5.2,6.9v28.4h40.1v-28.4c0-3.2,2.1-6,5.2-6.9    c6.9-1.9,13.6-4.7,19.8-8.2c2.8-1.6,6.3-1.1,8.6,1.2l20,20l28.3-28.3l-20-20c-2.3-2.2-2.7-5.8-1.2-8.5c3.5-6.2,6.3-12.9,8.2-19.8    c0.9-3.1,3.7-5.2,6.9-5.2c0,0,0,0,0,0h28.4v-40.1H263.1C263.1,147.3,263.1,147.3,263.1,147.3z"></path>
		<path class="st3" d="M298.6,133h-30.2c-1.5-4.4-3.3-8.8-5.4-12.9l21.4-21.4c2.8-2.8,2.8-7.3,0-10.1l-19.2-19.2    c-1.7-1.7-3.4-3.4-5.1-5l-56.4,56.4c-2.5,2.8-2.5,7.1,0.2,9.8l0.1,0.1c20,20.3,19.7,53.1-0.7,73.1c-20,19.7-52.6,19.7-72.6,0    c-1.3-1.3-3.1-2.1-5-2.1c-1.8,0-3.5,0.7-4.8,1.9l-56.4,56.4c1,1.1,2,2.2,3.1,3.3c0.6,0.6,1.2,1.2,1.8,1.8l19.2,19.2    c2.8,2.8,7.3,2.8,10.1,0l21.4-21.4c4.2,2.1,8.5,3.9,12.9,5.3v30.2c0,3.9,3.2,7.1,7.1,7.1h54.4c3.9,0,7.1-3.2,7.1-7.1v-30.2    c4.4-1.5,8.8-3.3,12.9-5.3l21.4,21.4c2.8,2.8,7.3,2.8,10.1,0l38.4-38.4c1.3-1.3,2.1-3.1,2.1-5s-0.7-3.7-2.1-5L263,214.6    c2.1-4.2,3.9-8.5,5.4-13h30.2c3.9,0,7.1-3.2,7.1-7.1v-54.4C305.7,136.2,302.5,133,298.6,133z M291.5,187.4h-28.4c0,0,0,0,0,0    c-3.2,0-6,2.1-6.9,5.2c-1.9,6.9-4.7,13.6-8.2,19.8c-1.6,2.8-1.1,6.3,1.2,8.5l20,20l-28.3,28.3l-20-20c-2.3-2.3-5.8-2.8-8.6-1.2    c-6.2,3.5-12.9,6.3-19.8,8.2c-3.1,0.9-5.2,3.7-5.2,6.9v28.4h-40.1v-28.4c0-3.2-2.1-6-5.2-6.9c-6.9-1.9-13.6-4.7-19.8-8.2    c-2.8-1.6-6.3-1.1-8.5,1.2l-20,20l-9.1-9.1l41.4-41.4c27.5,22.1,68,18.7,91.2-8.3c10.4-12,16.1-27.3,16.1-43.2    c0-15.1-5.2-29.6-14.6-41.3l41.4-41.4l9.1,9.1l-20,20c-2.3,2.3-2.8,5.8-1.2,8.6c3.5,6.2,6.3,12.9,8.2,19.8    c0.9,3.1,3.7,5.2,6.9,5.2c0,0,0,0,0,0h28.4V187.4z"></path>
		<g>
			<circle class="st0" cx="166.9" cy="68.3" r="7.1"></circle>
			<circle class="st0" cx="73.3" cy="168.6" r="7.1"></circle>
			<path class="st0" d="M97.9,91.2c-3.9,0-7.1,3.2-7.1,7.1s3.2,7.1,7.1,7.1s7.1-3.2,7.1-7.1S101.9,91.2,97.9,91.2z"></path>
			<path class="st0" d="M259.7,64.5c-25.3-23.3-57.8-36.2-92.4-36.5c-0.5,0-0.9,0-1.4,0c-36.5,0-70.9,14-96.9,39.6     C15.6,120,13.7,205.4,64,260.1l10.1-10.2c-44-49.2-42-123.6,4.9-170.5l0,0c24.3-24.3,56-36.6,87.8-36.6c29.5,0,59,10.5,82.7,31.7     L259.7,64.5z"></path>
			<path class="st0" d="M175.6,148.6c-0.5-0.2-1-0.5-1.5-0.6V99.4c0-3.9-3.2-7.1-7.1-7.1s-7.1,3.2-7.1,7.1v48.6     c-5.7,2.1-10.2,6.6-12.2,12.2h-30.4c-3.9,0-7.1,3.2-7.1,7.1s3.2,7.1,7.1,7.1h30.4c0.2,0.5,0.4,1,0.6,1.6c3.4,7.3,10.8,12,18.8,12     c1.7,0,3.4-0.2,5.1-0.6c5.4-1.4,9.8-4.7,12.7-9.5c2.8-4.8,3.6-10.3,2.2-15.7C185.4,156.1,181.2,151.1,175.6,148.6z M166.9,173.8     c-3.6,0-6.5-2.9-6.5-6.5s2.9-6.5,6.5-6.5c3.6,0,6.5,2.9,6.5,6.5S170.4,173.8,166.9,173.8z"></path>
		</g>
	</g>
</g>
<g id="Layer_1">
</g>
</svg>
