<?xml version="1.0" encoding="UTF-8"?>
<!-- Generator: Adobe Illustrator 25.4.1, SVG Export Plug-In . SVG Version: 6.00 Build 0)  -->
<svg xmlns="http://www.w3.org/2000/svg" xmlns:xlink="http://www.w3.org/1999/xlink" version="1.1" x="0px" y="0px" viewBox="0 0 333.7 333.7" style="enable-background:new 0 0 333.7 333.7;" xml:space="preserve">
<style type="text/css">
	.st0{fill:#3BBFAD;}
	.st1{fill:#7B868C;}
	.st2{fill:none;stroke:#7B868C;stroke-width:0.5;stroke-miterlimit:10;}
	.st3{opacity:0.3;}
	.st4{fill:#0C2949;}
	.st5{fill:none;}
	.st6{fill:#FFFFFF;}
	.st7{fill-rule:evenodd;clip-rule:evenodd;fill:#DF1C54;}
	.st8{fill:none;stroke:#3BBFAD;stroke-width:14;stroke-miterlimit:10;}
	.st9{fill:#BC4A9B;}
	.st10{fill:none;stroke:#FBB040;stroke-width:14;stroke-miterlimit:10;}
</style>
<g id="Layer_2">
	<g>
		<g>
			<path class="st6" d="M189.6,59.3c-5.5-8.8-15-14.1-25.4-14.1c-10.4,0-19.9,5.3-25.4,14.1L32.4,230.1c-5.8,9.3-6.1,20.7-0.8,30.3     c5.3,9.6,15.1,15.4,26.1,15.4h168c-3.8-3.2-6.3-7.8-7.1-12.9c-0.1-0.4-0.2-0.8-0.3-1.2H57.8c-5.8,0-11-3-13.9-8.2     c-2.8-5.1-2.7-11.1,0.4-16.1L150.7,66.7c2.9-4.7,7.9-7.5,13.4-7.5s10.5,2.8,13.4,7.5L257.6,195c1.9-0.7,4-1.1,6.1-1.2     c4.8-0.2,9.2,1.7,12.7,4.8L189.6,59.3z"></path>
			<path class="st6" d="M144.2,107.1c-5.1,5.6-7.6,13.2-6.8,20.8l4.9,48.2c1.2,11.3,10.6,19.7,21.9,19.7s20.7-8.5,21.9-19.8     l4.9-48.1c0.8-7.6-1.7-15.1-6.8-20.8c-5.1-5.7-12.4-8.9-20-8.9S149.3,101.5,144.2,107.1z M164.2,112.3c3.6,0,7.1,1.6,9.6,4.3     c2.5,2.7,3.7,6.3,3.3,10l-4.9,48.1c-0.4,4.1-3.8,7.1-7.9,7.1s-7.5-3.1-7.9-7.1l-4.9-48.2c-0.4-3.6,0.8-7.3,3.3-10     C157,113.8,160.5,112.3,164.2,112.3z"></path>
			<path class="st6" d="M164.2,203.5c-12.8,0-23.1,10.4-23.1,23.1c0,12.8,10.4,23.1,23.1,23.1s23.1-10.4,23.1-23.1     C187.3,213.9,176.9,203.5,164.2,203.5z M173.3,226.6c0,5-4.1,9.1-9.1,9.1s-9.1-4.1-9.1-9.1s4.1-9.1,9.1-9.1     S173.3,221.6,173.3,226.6z"></path>
		</g>
		<path class="st4" d="M268.5,219l-20.1,20.3l-8.1-8.1c-2.7-2.7-7.2-2.7-10,0c-1.3,1.3-2.1,3.1-2.1,5s0.7,3.7,2.1,5l13.1,13.1    c1.3,1.3,3.1,2.1,5,2.1c1.9,0,3.7-0.7,5-2.1l25-25.3c1.3-1.3,2-3.1,2-5c0-1.9-0.8-3.6-2.1-5c-1.3-1.3-3.1-2.1-5-2    C271.6,217,269.8,217.7,268.5,219z"></path>
		<g>
			<path class="st4" d="M254.4,288.5c-28.6,0-51.8-23.3-51.8-51.8s23.3-51.8,51.8-51.8s51.8,23.3,51.8,51.8S283,288.5,254.4,288.5z      M254.4,198.8c-20.9,0-37.8,17-37.8,37.8s17,37.8,37.8,37.8s37.8-17,37.8-37.8S275.3,198.8,254.4,198.8z"></path>
		</g>
	</g>
</g>
<g id="Layer_1">
</g>
</svg>
