<?xml version="1.0" encoding="UTF-8"?>
<!-- Generator: Adobe Illustrator 27.4.1, SVG Export Plug-In . SVG Version: 6.00 Build 0)  -->
<svg xmlns="http://www.w3.org/2000/svg" xmlns:xlink="http://www.w3.org/1999/xlink" version="1.1" x="0px" y="0px" viewBox="0 0 333.7 333.7" style="enable-background:new 0 0 333.7 333.7;" xml:space="preserve">
<style type="text/css">
	.st0{fill:#3BBFAD;}
	.st1{fill:#0C2949;}
	.st2{fill:none;}
	.st3{fill:#FFFFFF;}
	.st4{fill-rule:evenodd;clip-rule:evenodd;fill:#DF1C54;}
	.st5{fill:#7B868C;}
	.st6{fill:none;stroke:#7B868C;stroke-width:0.5;stroke-miterlimit:10;}
	.st7{opacity:0.3;}
	.st8{fill:none;stroke:#3BBFAD;stroke-width:14;stroke-miterlimit:10;}
	.st9{fill:#BC4A9B;}
	.st10{fill:none;stroke:#FBB040;stroke-width:14;stroke-miterlimit:10;}
	.st11{fill:#010101;}
</style>
<g id="Layer_2">
	<g>
		<path class="st0" d="M109.8,133.1c1.7,2,4.1,3.1,6.7,3.1s5-1.1,6.7-3.1l23.9-28.2c2.2-2.6,2.7-6.2,1.3-9.3    c-1.4-3.1-4.5-5.1-7.9-5.1h-4.5V43.6c0-3.9-3.1-7-7-7h-24.8c-3.9,0-7,3.1-7,7v46.9h-4.5c-3.4,0-6.5,1.9-7.9,5.1    c-1.4,3.1-1,6.7,1.3,9.3L109.8,133.1z M128.9,104.5h0.2l-12.6,14.8l-12.6-14.8h0.2c3.9,0,7-3.1,7-7V50.6h10.8v46.9    C121.9,101.4,125,104.5,128.9,104.5z"></path>
		<path class="st0" d="M211.4,141.7c1.7,2,4.1,3.1,6.7,3.1c2.6,0,5-1.1,6.7-3.1l23.9-28.2c2.2-2.6,2.7-6.2,1.3-9.3    c-1.4-3.1-4.5-5.1-7.9-5.1h-4.5V52.2c0-3.9-3.1-7-7-7h-24.8c-3.9,0-7,3.1-7,7v46.9h-4.5c-3.4,0-6.5,1.9-7.9,5.1    c-1.4,3.1-1,6.7,1.3,9.3L211.4,141.7z M230.5,113.1h0.2l-12.6,14.8l-12.6-14.8h0.2c3.9,0,7-3.1,7-7V59.2h10.8v46.9    C223.5,109.9,226.6,113.1,230.5,113.1z"></path>
		<path class="st0" d="M305.2,182.1c-1.4-3.1-4.5-5.1-7.9-5.1h-4.5v-60.5c0-3.9-3.1-7-7-7h-24.8c-3.9,0-7,3.1-7,7V177h-4.5    c-3.4,0-6.5,1.9-7.9,5.1c-1.4,3.1-1,6.7,1.3,9.3l23.9,28.2c1.7,2,4.1,3.1,6.7,3.1c2.6,0,5-1.1,6.7-3.1l23.9-28.2    C306.2,188.8,306.6,185.2,305.2,182.1z M267.9,184v-60.5h10.8V184c0,3.9,3.1,7,7,7h0.2l-12.6,14.8L260.8,191h0.2    C264.8,191,267.9,187.9,267.9,184z"></path>
		<path class="st3" d="M167,240.7L167,240.7c7.8,0,14.1-6.1,14.4-13.8l1.9-51.6c0.1-4-1.2-7.6-4-10.5c-2.8-2.9-6.3-4.4-10.3-4.4    h-3.7c-4,0-7.6,1.5-10.3,4.4c-2.8,2.9-4.2,6.5-4,10.5l1.9,51.6C153,234.6,159.3,240.7,167,240.7z M165,174.4c0,0,0.1,0,0.2,0h3.7    c0.1,0,0.1,0,0.1,0c0,0,0.1,0,0.1,0.1c0.1,0.1,0.1,0.1,0.1,0.1c0,0,0,0.1,0,0.2l-1.9,51.6c0,0.2-0.2,0.4-0.4,0.4    c-0.2,0-0.4-0.1-0.4-0.4l-1.9-51.6c0-0.1,0-0.1,0-0.1c0,0,0-0.1,0.1-0.1l0,0C165,174.5,165,174.4,165,174.4z"></path>
		<path class="st3" d="M167,243.6c-9.1,0-16.4,7.4-16.4,16.4c0,9.1,7.4,16.4,16.4,16.4s16.4-7.4,16.4-16.4    C183.5,250.9,176.1,243.6,167,243.6z M169.5,260c0,1.3-1.1,2.4-2.4,2.4c-1.3,0-2.4-1.1-2.4-2.4c0-1.3,1.1-2.4,2.4-2.4    C168.4,257.6,169.5,258.6,169.5,260z"></path>
		<path class="st3" d="M197.5,137.4c-6.4-11-17.7-17.6-30.4-17.6s-24.1,6.6-30.4,17.6L75,244.1c-6.4,11-6.4,24.1,0,35.1    s17.7,17.6,30.4,17.6h123.2c12.7,0,24.1-6.6,30.4-17.6c6.4-11,6.4-24.1,0-35.1L197.5,137.4z M247,272.3    c-3.8,6.6-10.7,10.6-18.3,10.6H105.4c-7.6,0-14.5-4-18.3-10.6c-3.8-6.6-3.8-14.5,0-21.1l61.6-106.7c3.8-6.6,10.7-10.6,18.3-10.6    c7.6,0,14.5,4,18.3,10.6L247,251.1C250.8,257.7,250.8,265.6,247,272.3z"></path>
		<path class="st0" d="M92.6,191.7L92.6,191.7c-1.4-3.1-4.5-5.1-7.9-5.1h-4.5v-60.5c0-3.9-3.1-7-7-7H48.4c-3.9,0-7,3.1-7,7v60.5    h-4.5c-3.4,0-6.5,1.9-7.9,5.1c-1.4,3.1-1,6.7,1.3,9.3l23.9,28.2c1.7,2,4.1,3.1,6.7,3.1s5-1.1,6.7-3.1L91.4,201    C93.6,198.4,94.1,194.8,92.6,191.7z M73.2,200.6h0.2l-12.6,14.8l-12.6-14.8h0.2c3.9,0,7-3.1,7-7v-60.5h10.8v60.5    C66.2,197.5,69.3,200.6,73.2,200.6z"></path>
	</g>
</g>
<g id="Layer_1">
</g>
</svg>
