<?xml version="1.0" encoding="UTF-8"?>
<!-- Generator: Adobe Illustrator 25.4.1, SVG Export Plug-In . SVG Version: 6.00 Build 0)  -->
<svg xmlns="http://www.w3.org/2000/svg" xmlns:xlink="http://www.w3.org/1999/xlink" version="1.1" x="0px" y="0px" viewBox="0 0 333.7 333.7" style="enable-background:new 0 0 333.7 333.7;" xml:space="preserve">
<style type="text/css">
	.st0{fill:#3BBFAD;}
	.st1{fill:#0C2949;}
	.st2{fill:none;}
	.st3{fill:#FFFFFF;}
	.st4{fill:#7B868C;}
	.st5{fill:none;stroke:#7B868C;stroke-width:0.5;stroke-miterlimit:10;}
	.st6{opacity:0.3;}
	.st7{fill-rule:evenodd;clip-rule:evenodd;fill:#DF1C54;}
	.st8{fill:#BC4A9B;}
	.st9{fill:none;stroke:#3BBFAD;stroke-width:14;stroke-miterlimit:10;}
	.st10{fill:none;stroke:#FBB040;stroke-width:14;stroke-miterlimit:10;}
	.st11{fill:#010101;}
	.st12{fill:#39BDAC;}
</style>
<g id="Layer_2">
</g>
<g id="Layer_1">
	<g>
		<path class="st3" d="M263,164.4l-12.4-6.5l-31.3,59.4c-3.4-1.4-7.2-2.2-11.1-2.2c-7.9,0-15.1,3.2-20.4,8.3L160.3,209    c1-2.9,1.5-6.1,1.5-9.3c0-16.2-13.2-29.4-29.4-29.4s-29.4,13.2-29.4,29.4c0,5.8,1.7,11.2,4.6,15.8l-35.6,35.6    c-4.5-2.8-9.8-4.5-15.6-4.5c-16.2,0-29.4,13.2-29.4,29.4s13.2,29.4,29.4,29.4s29.4-13.2,29.4-29.4c0-5.4-1.5-10.5-4-14.9l36-36    c4.3,2.5,9.3,3.9,14.6,3.9c7.9,0,15-3.1,20.3-8.2l27.7,14.4c-1,2.9-1.5,6-1.5,9.2c0,16.2,13.2,29.4,29.4,29.4s29.4-13.2,29.4-29.4    c0-7.2-2.6-13.7-6.9-18.8L263,164.4z M56.5,291.4c-8.5,0-15.4-6.9-15.4-15.4s6.9-15.4,15.4-15.4s15.4,6.9,15.4,15.4    S65,291.4,56.5,291.4z M132.4,215.1c-8.5,0-15.4-6.9-15.4-15.4s6.9-15.4,15.4-15.4s15.4,6.9,15.4,15.4S140.9,215.1,132.4,215.1z     M208.3,259.8c-8.5,0-15.4-6.9-15.4-15.4s6.9-15.4,15.4-15.4s15.4,6.9,15.4,15.4S216.8,259.8,208.3,259.8z"></path>
		<g id="g2509_00000112625903374749718080000017690933984229171647_">
			<g id="g2515_00000003086618361656448870000012925320521750785680_" transform="translate(256,15)">
				<g id="path2517_00000044878054865939372520000001168826344291404209_">
					<path class="st0" d="M-1.6,164.8l-5.8-8.7c-3.1-4.6-6.7-9.6-10.4-14.9c-16.8-23.5-35.9-50.2-35.9-75.7       c0-28.7,23.4-52.1,52.1-52.1s52.1,23.4,52.1,52.1c0,25.4-19.1,52.1-35.9,75.7c-3.8,5.3-7.3,10.3-10.4,14.9L-1.6,164.8z        M-1.6,27.3c-21,0-38.1,17.1-38.1,38.1c0,20.9,18.4,46.8,33.3,67.5c1.7,2.3,3.3,4.6,4.9,6.8c1.6-2.2,3.2-4.5,4.9-6.8       c14.8-20.8,33.3-46.6,33.3-67.5C36.5,44.4,19.4,27.3-1.6,27.3z"></path>
				</g>
			</g>
			<g id="g2519_00000181077100764004039870000009327467921006593977_" transform="translate(256,257)">
				<g id="path2521_00000176749273954934152180000001048646365696738212_">
					<path class="st0" d="M-1.6-149c-15.2,0-27.5-12.3-27.5-27.5S-16.8-204-1.6-204c15.2,0,27.5,12.3,27.5,27.5S13.6-149-1.6-149z        M-1.6-190c-7.4,0-13.5,6.1-13.5,13.5S-9-163-1.6-163s13.5-6.1,13.5-13.5S5.9-190-1.6-190z"></path>
				</g>
			</g>
		</g>
	</g>
</g>
<g id="Layer_3">
</g>
</svg>
