<?xml version="1.0" encoding="UTF-8"?>
<!-- Generator: Adobe Illustrator 25.4.1, SVG Export Plug-In . SVG Version: 6.00 Build 0)  -->
<svg xmlns="http://www.w3.org/2000/svg" xmlns:xlink="http://www.w3.org/1999/xlink" version="1.1" x="0px" y="0px" viewBox="0 0 333.7 333.7" style="enable-background:new 0 0 333.7 333.7;" xml:space="preserve">
<style type="text/css">
	.st0{fill:#3BBFAD;}
	.st1{fill:#0C2949;}
	.st2{fill:none;}
	.st3{fill:#FFFFFF;}
	.st4{fill:#7B868C;}
	.st5{fill:none;stroke:#7B868C;stroke-width:0.5;stroke-miterlimit:10;}
	.st6{opacity:0.3;}
	.st7{fill-rule:evenodd;clip-rule:evenodd;fill:#DF1C54;}
	.st8{fill:none;stroke:#3BBFAD;stroke-width:14;stroke-miterlimit:10;}
	.st9{fill:#BC4A9B;}
	.st10{fill:none;stroke:#FBB040;stroke-width:14;stroke-miterlimit:10;}
	.st11{fill:#010101;}
</style>
<g id="Layer_2">
	<g>
		<path class="st3" d="M295.9,259.2H163.1l-0.6-2.2c-4.2-16.2-18.8-27.5-35.4-27.5c-16.6,0-31.2,11.3-35.4,27.5l-0.6,2.2H37.8    c-3.8,0-6.9,3.1-6.9,6.9s3.1,6.9,6.9,6.9h53.4l0.6,2.2c4.2,16.2,18.8,27.5,35.4,27.5c16.6,0,31.2-11.3,35.4-27.5l0.6-2.2h132.8    c3.8,0,6.9-3.1,6.9-6.9S299.7,259.2,295.9,259.2z M127.2,289c-12.6,0-22.8-10.2-22.8-22.8s10.2-22.8,22.8-22.8    s22.8,10.2,22.8,22.8S139.8,289,127.2,289z"></path>
		<path class="st3" d="M37.8,74.5h53.4l0.6,2.2c4.2,16.2,18.8,27.5,35.4,27.5c16.6,0,31.2-11.3,35.4-27.5l0.6-2.2h132.8    c3.8,0,6.9-3.1,6.9-6.9s-3.1-6.9-6.9-6.9H163.1l-0.6-2.2c-4.2-16.2-18.8-27.5-35.4-27.5c-16.6,0-31.2,11.3-35.4,27.5l-0.6,2.2    H37.8c-3.8,0-6.9,3.1-6.9,6.9S34,74.5,37.8,74.5z M127.2,44.8c12.6,0,22.8,10.2,22.8,22.8s-10.2,22.8-22.8,22.8    s-22.8-10.2-22.8-22.8S114.6,44.8,127.2,44.8z"></path>
		<path class="st1" d="M295.9,159.9h-53.4l-0.6-2.2c-4.2-16.2-18.8-27.5-35.4-27.5c-16.6,0-31.2,11.3-35.4,27.5l-0.6,2.2H37.8    c-3.8,0-6.9,3.1-6.9,6.9s3.1,6.9,6.9,6.9h132.8l0.6,2.2c4.2,16.2,18.8,27.5,35.4,27.5c16.6,0,31.2-11.3,35.4-27.5l0.6-2.2h53.4    c3.8,0,6.9-3.1,6.9-6.9S299.7,159.9,295.9,159.9z M206.6,189.7c-12.6,0-22.8-10.2-22.8-22.8S194,144,206.6,144    s22.8,10.2,22.8,22.8S219.2,189.7,206.6,189.7z"></path>
	</g>
</g>
<g id="Layer_1">
</g>
</svg>
