<?xml version="1.0" encoding="UTF-8"?>
<!-- Generator: Adobe Illustrator 25.4.1, SVG Export Plug-In . SVG Version: 6.00 Build 0)  -->
<svg xmlns="http://www.w3.org/2000/svg" xmlns:xlink="http://www.w3.org/1999/xlink" version="1.1" x="0px" y="0px" viewBox="0 0 333.7 333.7" style="enable-background:new 0 0 333.7 333.7;" xml:space="preserve">
<style type="text/css">
	.st0{fill:#3BBFAD;}
	.st1{fill:#0C2949;}
	.st2{fill:none;}
	.st3{fill:#FFFFFF;}
	.st4{fill:#7B868C;}
	.st5{fill:none;stroke:#7B868C;stroke-width:0.5;stroke-miterlimit:10;}
	.st6{opacity:0.3;}
	.st7{fill-rule:evenodd;clip-rule:evenodd;fill:#DF1C54;}
	.st8{fill:#BC4A9B;}
	.st9{fill:none;stroke:#3BBFAD;stroke-width:14;stroke-miterlimit:10;}
	.st10{fill:none;stroke:#FBB040;stroke-width:14;stroke-miterlimit:10;}
	.st11{fill:#010101;}
	.st12{fill:#39BDAC;}
</style>
<g id="Layer_2">
	<g>
		<g>
			<path class="st3" d="M290.3,123.4c-5.3-1.1-16.5,0.3-22,13c0,0.1-0.1,0.2-0.1,0.3L253,177.5c-2.5-1.2-5.3-1.8-8.2-1.8     c-3.7,0-7.3,1.1-10.4,3.1l-40.4,26c-14,8.5-22.2,19.3-27.1,29.5c-4.9-10.2-13.1-21-27.1-29.5l-40.4-26c-3.1-2-6.7-3.1-10.4-3.1     c-2.9,0-5.7,0.6-8.2,1.8l-15.2-40.7c0-0.1-0.1-0.2-0.1-0.3c-5.5-12.8-16.7-14.1-22-13c-10.7,2-17.4,11.2-16.1,21.9     c0,0.3,0.1,0.5,0.2,0.8l17.1,68.7c4.6,18.5,17.1,37.1,33.5,49.8c0.1,0.1,0.1,0.1,0.2,0.2l26.6,19.1v8.9c0,6.8,5.5,12.3,12.3,12.3     h49.5c0,0,0.1,0,0.1,0c0,0,0.1,0,0.1,0h49.5c6.8,0,12.3-5.5,12.3-12.3v-8.9l26.6-19.1c0.1-0.1,0.1-0.1,0.2-0.2     c16.4-12.7,28.9-31.3,33.5-49.8l17.1-68.7c0.1-0.3,0.1-0.5,0.2-0.8C307.7,134.6,301,125.4,290.3,123.4z M159.9,266.8v24.4h-41.1     v-11c0-2.2-1.1-4.3-2.9-5.6l-29.4-21c-13.8-10.7-24.7-26.8-28.5-42.1l-17-68.2c-0.3-3.3,1.6-5.6,5-6.3c0.1,0,0.1,0,0.1,0     c0,0,0,0,0,0c1.3-0.2,4.4,0,6.6,4.8l17.7,47.6c-2,6.4-0.5,13.7,4.5,18.9c0.2,0.2,0.5,0.5,0.7,0.7l27.3,21.5     c3,2.4,7.3,1.8,9.7-1.1c2.4-3,1.8-7.3-1.1-9.7l-26.8-21.2c-1.8-2.1-1.6-5.4,0.4-7.4c1-1,2.4-1.6,3.9-1.6c1,0,2.1,0.3,3,0.9     l40.5,26c0,0,0.1,0.1,0.1,0.1c24.5,14.9,27.3,38.4,27.4,46.7c0,0.7,0,1.3,0,1.9c0,0.6,0,1-0.1,1.2     C159.9,266.4,159.9,266.6,159.9,266.8z M292.7,143.3l-17,68.2c-3.8,15.3-14.7,31.4-28.5,42.1l-29.4,21c-1.8,1.3-2.9,3.4-2.9,5.6     v11h-41.1v-24.4c0-0.2,0-0.4,0-0.6c0-0.1,0-0.6-0.1-1.2c0-0.5,0-1.1,0-1.8c0.2-8.3,2.9-31.8,27.4-46.8c0,0,0.1-0.1,0.1-0.1     l40.5-26c0.9-0.6,1.9-0.9,3-0.9c1.5,0,2.8,0.6,3.9,1.6c2,2,2.1,5.2,0.4,7.4l-26.8,21.2c-3,2.4-3.5,6.7-1.1,9.7     c2.4,3,6.7,3.5,9.7,1.1l27.3-21.5c0.3-0.2,0.5-0.4,0.7-0.7c5-5.3,6.5-12.5,4.5-18.9l17.7-47.6c2.1-4.8,5.2-5,6.6-4.8c0,0,0,0,0,0     c0,0,0,0,0.1,0C291.2,137.6,293,139.9,292.7,143.3z"></path>
		</g>
		<path class="st0" d="M168.4,28.7c-43.5,0-78.9,35.4-78.9,78.9s35.4,78.9,78.9,78.9s78.9-35.4,78.9-78.9S211.9,28.7,168.4,28.7z     M168.4,42.7c33.4,0,61.1,25.4,64.6,57.9h-40.5c-3-10.4-12.7-18.1-24.1-18.1s-21,7.6-24.1,18.1h-40.5    C107.3,68.1,134.9,42.7,168.4,42.7z M168.4,118.7c-6.1,0-11.1-5-11.1-11.1s5-11.1,11.1-11.1s11.1,5,11.1,11.1    S174.5,118.7,168.4,118.7z M103.8,114.6h40.5c2.4,8.2,8.9,14.7,17.1,17.1v40.5C131.1,168.9,107.1,144.8,103.8,114.6z M175.4,172.2    v-40.5c8.2-2.4,14.7-8.9,17.1-17.1h40.5C229.7,144.8,205.6,168.9,175.4,172.2z"></path>
	</g>
</g>
<g id="Layer_1">
</g>
<g id="Layer_3">
</g>
</svg>
