<?xml version="1.0" encoding="UTF-8"?>
<!-- Generator: Adobe Illustrator 25.4.1, SVG Export Plug-In . SVG Version: 6.00 Build 0)  -->
<svg xmlns="http://www.w3.org/2000/svg" xmlns:xlink="http://www.w3.org/1999/xlink" version="1.1" x="0px" y="0px" viewBox="0 0 333.7 333.7" style="enable-background:new 0 0 333.7 333.7;" xml:space="preserve">
<style type="text/css">
	.st0{fill:#3BBFAD;}
	.st1{fill:#0C2949;}
	.st2{fill:none;}
	.st3{fill:#FFFFFF;}
	.st4{fill:#7B868C;}
	.st5{fill:none;stroke:#7B868C;stroke-width:0.5;stroke-miterlimit:10;}
	.st6{opacity:0.3;}
	.st7{fill-rule:evenodd;clip-rule:evenodd;fill:#DF1C54;}
	.st8{fill:none;stroke:#3BBFAD;stroke-width:14;stroke-miterlimit:10;}
	.st9{fill:#BC4A9B;}
	.st10{fill:none;stroke:#FBB040;stroke-width:14;stroke-miterlimit:10;}
	.st11{fill:#010101;}
</style>
<g id="Layer_2">
	<g>
		<g>
			<path class="st3" d="M266.7,27.9H85.3C72.4,27.9,62,38.4,62,51.3v10.1H51.9c-12.9,0-23.3,10.5-23.3,23.3S39,108,51.9,108H62v35.5     H51.9c-12.9,0-23.3,10.5-23.3,23.3c0,12.9,10.5,23.3,23.3,23.3H62v35.5H51.9c-12.9,0-23.3,10.5-23.3,23.3     c0,12.9,10.5,23.3,23.3,23.3H62v9.5c0,6.2,2.4,12.1,6.7,16.7c4.5,4.7,10.4,7.2,16.6,7.2h166.8c-0.3-0.1-0.6-0.1-0.9-0.2     c-6.4-1.5-13-3.1-15.9-5.1c-1.2-0.8-2.4-1.7-3.5-2.5l-1.1-0.8c-2.4-1.3-4.7-2.8-6.8-4.2c-0.5-0.2-1-0.5-1.5-0.7     c-0.2-0.1-0.4-0.2-0.7-0.3H85.3c-5.1,0-9.5-4.7-9.5-10.1v-10.6l0.9-0.3c9.3-3.3,15.6-12.1,15.6-22c0-9.9-6.3-18.7-15.6-22     l-0.9-0.3v-37.6l0.9-0.3c9.3-3.3,15.6-12.1,15.6-22c0-9.9-6.3-18.7-15.6-22l-0.9-0.3V107l0.9-0.3c9.3-3.3,15.6-12.1,15.6-22     S86,66,76.6,62.7l-0.9-0.3V51.3c0-5.3,4.3-9.5,9.5-9.5h181.4c5.3,0,9.5,4.3,9.5,9.5v157.3c1.4,0.6,2.6,1.7,3.3,2.7     c0.3,0.3,0.3,0.4,1.1,0.1c0.7-0.3,2.3-0.8,3.6,0.6c0.2,0.1,0.4,0.2,0.7,0.3c0.8,0.3,1.6,0.7,2.4,1c1.1,0.5,1.8,1.9,2.8,4.1V51.3     C290,38.4,279.5,27.9,266.7,27.9z M78.4,249c0,5.3-4.3,9.5-9.5,9.5h-17c-5.3,0-9.5-4.3-9.5-9.5c0-5.3,4.3-9.5,9.5-9.5h17     C74.1,239.5,78.4,243.8,78.4,249z M78.4,166.9c0,5.3-4.3,9.5-9.5,9.5h-17c-5.3,0-9.5-4.3-9.5-9.5c0-5.3,4.3-9.5,9.5-9.5h17     C74.1,157.3,78.4,161.6,78.4,166.9z M78.4,84.7c0,5.3-4.3,9.5-9.5,9.5h-17c-5.3,0-9.5-4.3-9.5-9.5s4.3-9.5,9.5-9.5h17     C74.1,75.1,78.4,79.4,78.4,84.7z"></path>
			<path class="st3" d="M250.2,94.2h-49.3c-3.8,0-6.9,3.1-6.9,6.9c0,3.8,3.1,6.9,6.9,6.9h49.3c3.8,0,6.9-3.1,6.9-6.9     C257.1,97.3,254,94.2,250.2,94.2z"></path>
			<path class="st3" d="M250.2,160h-49.3c-3.8,0-6.9,3.1-6.9,6.9c0,3.8,3.1,6.9,6.9,6.9h49.3c3.8,0,6.9-3.1,6.9-6.9     C257.1,163.1,254,160,250.2,160z"></path>
		</g>
		<g>
			<path class="st1" d="M172.4,145.5c-1.3-1.3-3-2-4.9-2c-1.8,0-3.6,0.7-4.9,2l-28,28l-13.9-13.9c-1.3-1.3-3-2-4.9-2     c-1.8,0-3.6,0.7-4.9,2c-2.7,2.7-2.7,7.1,0,9.8l18.7,18.7c1.3,1.3,3,2,4.9,2c1.8,0,3.6-0.7,4.9-2l32.9-32.9     C175.1,152.6,175.1,148.2,172.4,145.5z"></path>
			<path class="st1" d="M172.4,79.8c-1.3-1.3-3-2-4.9-2c-1.8,0-3.6,0.7-4.9,2l-28,28l-13.9-13.9c-1.3-1.3-3.1-2-4.9-2     c-1.8,0-3.5,0.7-4.9,2c-1.3,1.3-2,3-2,4.9c0,1.8,0.7,3.6,2,4.9l18.7,18.7c1.3,1.3,3,2,4.9,2c1.8,0,3.6-0.7,4.9-2l32.9-32.9     c1.3-1.3,2-3,2-4.9C174.4,82.8,173.7,81.1,172.4,79.8z"></path>
			<path class="st1" d="M167.5,209.3c-1.8,0-3.6,0.7-4.9,2l-28,28l-13.9-13.9c-1.3-1.3-3-2-4.9-2c-1.8,0-3.6,0.7-4.9,2     c-2.7,2.7-2.7,7.1,0,9.8l18.7,18.7c1.3,1.3,3,2,4.9,2c1.8,0,3.6-0.7,4.9-2l32.9-32.9c2.7-2.7,2.7-7.1,0-9.8     C171.1,210,169.3,209.3,167.5,209.3z"></path>
			<path class="st1" d="M265.6,247.3h-9.4v-9.4c0-3.8-3.1-6.9-6.9-6.9s-6.9,3.1-6.9,6.9v16.3c0,3.8,3.1,6.9,6.9,6.9h16.3     c3.8,0,6.9-3.1,6.9-6.9S269.4,247.3,265.6,247.3z"></path>
			<path class="st1" d="M249.4,194.2c-30.8,0-55.8,25-55.8,55.8c0,30.8,25,55.8,55.8,55.8c30.8,0,55.8-25,55.8-55.8     C305.2,219.2,280.1,194.2,249.4,194.2z M249.4,292.2c-23.3,0-42.2-18.9-42.2-42.2s18.9-42.2,42.2-42.2     c23.3,0,42.2,18.9,42.2,42.2S272.6,292.2,249.4,292.2z"></path>
		</g>
	</g>
</g>
<g id="Layer_1">
</g>
</svg>
