<?xml version="1.0" encoding="UTF-8"?>
<!-- Generator: Adobe Illustrator 25.4.1, SVG Export Plug-In . SVG Version: 6.00 Build 0)  -->
<svg xmlns="http://www.w3.org/2000/svg" xmlns:xlink="http://www.w3.org/1999/xlink" version="1.1" x="0px" y="0px" viewBox="0 0 333.7 333.7" style="enable-background:new 0 0 333.7 333.7;" xml:space="preserve">
<style type="text/css">
	.st0{fill:#3BBFAD;}
	.st1{fill:#7B868C;}
	.st2{fill:none;stroke:#7B868C;stroke-width:0.5;stroke-miterlimit:10;}
	.st3{opacity:0.3;}
	.st4{fill:#0C2949;}
	.st5{fill:none;}
	.st6{fill:#FFFFFF;}
	.st7{fill-rule:evenodd;clip-rule:evenodd;fill:#DF1C54;}
	.st8{fill:none;stroke:#3BBFAD;stroke-width:14;stroke-miterlimit:10;}
	.st9{fill:#BC4A9B;}
	.st10{fill:none;stroke:#FBB040;stroke-width:14;stroke-miterlimit:10;}
</style>
<g id="Layer_2">
	<g>
		<g>
			<path class="st4" d="M173.7,58c-1.3-1.8-3.4-2.9-5.7-2.9c-2.2,0-4.4,1.1-5.7,2.9l-26.8,37.5c-1.5,2.1-1.7,4.9-0.5,7.2     s3.6,3.8,6.2,3.8h3.8v55.1c0,3.8,3.1,7,7,7s7-3.1,7-7v-62c0-3-1.9-5.5-4.5-6.5L168,74l13.6,19c-2.6,1-4.5,3.5-4.5,6.5v62     c0,3.8,3.1,7,7,7c3.8,0,7-3.1,7-7v-55.1h3.8c2.6,0,5-1.4,6.2-3.8c1.2-2.3,1-5.1-0.5-7.2L173.7,58z"></path>
			<path class="st4" d="M275.5,68.7l-26.8-37.5c-1.3-1.8-3.4-2.9-5.7-2.9c-2.2,0-4.4,1.1-5.7,2.9l-26.8,37.5     c-1.5,2.1-1.7,4.9-0.5,7.2c1.2,2.3,3.6,3.8,6.2,3.8h3.8v81.9c0,3.8,3.1,7,7,7s7-3.1,7-7V72.8c0-3-1.9-5.5-4.5-6.5l13.6-19     l13.6,19c-2.6,1-4.5,3.5-4.5,6.5v88.8c0,3.8,3.1,7,7,7c3.8,0,7-3.1,7-7V79.7h3.8c2.6,0,5-1.4,6.2-3.8     C277.2,73.6,277,70.9,275.5,68.7z"></path>
			<path class="st4" d="M98.6,84.8c-1.3-1.8-3.4-2.9-5.7-2.9s-4.4,1.1-5.7,2.9l-26.8,37.5c-1.5,2.1-1.7,4.9-0.5,7.2     c1.2,2.3,3.6,3.8,6.2,3.8h3.8v28.3c0,3.8,3.1,7,7,7s7-3.1,7-7v-35.2c0-3-1.9-5.5-4.5-6.5l13.6-19l13.6,19c-2.6,1-4.5,3.5-4.5,6.5     v35.2c0,3.8,3.1,7,7,7s7-3.1,7-7v-28.3h3.8c2.6,0,5-1.4,6.2-3.8c1.2-2.3,1-5.1-0.5-7.2L98.6,84.8z"></path>
		</g>
		<path class="st6" d="M285.9,157.3H50.1c-1.9,0-3.6,0.7-4.9,2c-1.3,1.3-2,3.1-2,4.9l0,33.6c0,3.6,2.8,6.6,6.4,6.9l13.7,1.1    c2.6,11.2,7.1,21.8,13.1,31.7l-8.9,10.5c-2.3,2.7-2.2,6.9,0.4,9.4l23.7,23.7c2.5,2.5,6.7,2.7,9.4,0.4l10.5-8.9    c9.8,6.1,20.5,10.5,31.7,13.1l1.1,13.7c0.3,3.6,3.3,6.4,6.9,6.4h33.6c3.6,0,6.6-2.8,6.9-6.4l1.1-13.7c11.2-2.6,21.8-7.1,31.7-13.1    l10.5,8.9c2.7,2.3,6.9,2.2,9.4-0.4l23.7-23.7c2.5-2.5,2.7-6.7,0.4-9.4l-8.9-10.5c6.1-9.8,10.5-20.5,13.1-31.7l13.7-1.1    c3.6-0.3,6.4-3.3,6.4-6.9v-33.6C292.9,160.4,289.8,157.3,285.9,157.3z M260.2,198.1c-2.4,13-7.4,25.1-14.9,36    c-1.8,2.6-1.6,6.1,0.4,8.5l8.1,9.6l-14.7,14.7l-9.6-8.1c-2.4-2-5.9-2.2-8.5-0.4c-10.9,7.5-23,12.6-36,14.9    c-3.1,0.6-5.4,3.2-5.7,6.3l-1,12.5h-20.7l-1-12.5c-0.3-3.1-2.6-5.7-5.7-6.3c-13-2.4-25.1-7.4-36-14.9c-2.6-1.8-6.1-1.6-8.5,0.4    l-9.6,8.1l-14.7-14.7l8.1-9.6c2-2.4,2.2-5.9,0.4-8.5c-7.5-10.9-12.6-23.1-14.9-36c-0.6-3.1-3.2-5.4-6.3-5.7l-12.5-1l0-20.2h40.4    c-0.5,3.3-0.7,6.5-0.7,9.8c0,39.3,32,71.3,71.3,71.3s71.3-32,71.3-71.3c0-3.3-0.2-6.6-0.7-9.8H279v20.2l-12.5,1    C263.3,192.7,260.7,195,260.2,198.1z M225.4,181.1c0,31.6-25.7,57.4-57.4,57.4c-31.6,0-57.4-25.7-57.4-57.4c0-3.3,0.3-6.6,0.9-9.8    h113C225.1,174.5,225.4,177.8,225.4,181.1z"></path>
	</g>
</g>
<g id="Layer_1">
</g>
</svg>
