<?xml version="1.0" encoding="UTF-8"?>
<!-- Generator: Adobe Illustrator 25.4.1, SVG Export Plug-In . SVG Version: 6.00 Build 0)  -->
<svg xmlns="http://www.w3.org/2000/svg" xmlns:xlink="http://www.w3.org/1999/xlink" version="1.1" x="0px" y="0px" viewBox="0 0 333.7 333.7" style="enable-background:new 0 0 333.7 333.7;" xml:space="preserve">
<style type="text/css">
	.st0{fill:#3BBFAD;}
	.st1{fill:#0C2949;}
	.st2{fill:none;}
	.st3{fill:#FFFFFF;}
	.st4{fill:#7B868C;}
	.st5{fill:none;stroke:#7B868C;stroke-width:0.5;stroke-miterlimit:10;}
	.st6{opacity:0.3;}
	.st7{fill-rule:evenodd;clip-rule:evenodd;fill:#DF1C54;}
	.st8{fill:#BC4A9B;}
	.st9{fill:none;stroke:#3BBFAD;stroke-width:14;stroke-miterlimit:10;}
	.st10{fill:none;stroke:#FBB040;stroke-width:14;stroke-miterlimit:10;}
	.st11{fill:#010101;}
	.st12{fill:#39BDAC;}
</style>
<g id="Layer_2">
</g>
<g id="Layer_1">
	<g id="g3478_00000159460038402443423920000016686527246468207539_">
		<g id="g3500_00000155119487068490606630000013834163230848526763_" transform="translate(256,166)">
			<g id="path3502_00000114035065534478504570000004888806289192991141_">
				<path class="st0" d="M-89.1,57.2h-16.4c-3.9,0-7-3.1-7-7s3.1-7,7-7h16.4c3.9,0,7,3.1,7,7S-85.3,57.2-89.1,57.2z"></path>
			</g>
		</g>
		<g>
			<path class="st3" d="M101.1,107.6c12.9,0,23.4-10.5,23.4-23.4S114,60.7,101.1,60.7S77.7,71.2,77.7,84.1S88.2,107.6,101.1,107.6z      M101.1,74.7c5.2,0,9.4,4.2,9.4,9.4s-4.2,9.4-9.4,9.4s-9.4-4.2-9.4-9.4S95.9,74.7,101.1,74.7z"></path>
			<path class="st3" d="M249.1,27.8H101.1c-31.1,0-56.3,25.3-56.3,56.3c0,8.4,1.8,16.5,5.4,24.1v0l68.9,146.1l12.7-6L78.6,135.7     c7,3.1,14.6,4.7,22.5,4.7c31.1,0,56.3-25.3,56.3-56.3c0-16.9-7.4-32-19.2-42.3h80.5c-6,7-9.6,16-9.6,25.9     c0,22,17.9,39.9,39.9,39.9c9.9,0,18.9-3.6,25.9-9.6v118.2h14V67.7C288.9,45.7,271,27.8,249.1,27.8z M143.4,84.1     c0,23.3-19,42.3-42.3,42.3c-16.3,0-31.3-9.5-38.3-24.2c-2.7-5.7-4-11.7-4-18.1c0-23.3,19-42.3,42.3-42.3S143.4,60.8,143.4,84.1z      M249.1,93.6c-14.3,0-25.9-11.6-25.9-25.9c0-14.3,11.6-25.9,25.9-25.9c14.3,0,25.9,11.6,25.9,25.9     C274.9,82,263.3,93.6,249.1,93.6z"></path>
			<path class="st3" d="M249.1,59.5c-4.5,0-8.2,3.7-8.2,8.2c0,4.5,3.7,8.2,8.2,8.2s8.2-3.7,8.2-8.2     C257.3,63.1,253.6,59.5,249.1,59.5z"></path>
		</g>
		<g id="g3484_00000072268574403776627440000009456809110559627403_" transform="translate(466,166)">
			<g id="path3486_00000029042456701885870300000008962152093076039825_">
				<path class="st0" d="M-266.3,139.9c-34.2,0-65.8-20.3-80.7-51.6c-5.7-12-8.5-24.8-8.5-38.1c0-49.5,40-89.7,89.2-89.7      s89.2,40.3,89.2,89.7S-217.1,139.9-266.3,139.9z M-266.3-25.6c-41.5,0-75.2,34-75.2,75.7c0,11.2,2.4,22.1,7.2,32.1      c12.5,26.5,39.2,43.6,68,43.6c41.5,0,75.2-34,75.2-75.7S-224.8-25.6-266.3-25.6z"></path>
			</g>
		</g>
		<g id="g3488_00000161606879247662542850000004666530603513956786_" transform="translate(316,106)">
			<g id="path3490_00000029761355704162885640000017794953833049948821_">
				<path class="st0" d="M-116.3,150.1c-22,0-39.9-17.9-39.9-39.9s17.9-39.9,39.9-39.9c22,0,39.9,17.9,39.9,39.9      S-94.3,150.1-116.3,150.1z M-116.3,84.3c-14.3,0-25.9,11.6-25.9,25.9s11.6,25.9,25.9,25.9c14.3,0,25.9-11.6,25.9-25.9      S-102,84.3-116.3,84.3z"></path>
			</g>
		</g>
		<g id="g3492_00000116200480378364563580000005185792707847989124_" transform="translate(379.6396,102.3604)">
			<g id="path3494_00000077282548361007119180000003595914703183700621_">
				<path class="st0" d="M-145,155.7c-1.8,0-3.6-0.7-4.9-2l-11.6-11.6c-2.7-2.7-2.7-7.2,0-9.9c2.7-2.7,7.2-2.7,9.9,0l11.6,11.6      c2.7,2.7,2.7,7.2,0,9.9C-141.4,155-143.2,155.7-145,155.7z"></path>
			</g>
		</g>
		<g id="g3496_00000083810395740109940780000002145123491052553875_" transform="translate(252.3604,229.6396)">
			<g id="path3498_00000090276244778795481770000013920294223820305586_">
				<path class="st0" d="M-75.9-29.7c-1.8,0-3.6-0.7-5-2l-11.6-11.6c-2.7-2.7-2.7-7.2,0-9.9c2.7-2.7,7.2-2.7,9.9,0l11.6,11.6      c2.7,2.7,2.7,7.2,0,9.9C-72.3-30.4-74.1-29.7-75.9-29.7z"></path>
			</g>
		</g>
		<g id="g3504_00000161627349315257418110000016640798370893307055_" transform="translate(252.3604,102.3604)">
			<g id="path3506_00000182526105602267042480000016061927866095237310_">
				<path class="st0" d="M-87.5,155.7c-1.8,0-3.6-0.7-5-2.1c-2.7-2.7-2.7-7.2,0-9.9l11.6-11.6c2.7-2.7,7.2-2.7,9.9,0      c2.7,2.7,2.7,7.2,0,9.9l-11.6,11.6C-83.9,155-85.7,155.7-87.5,155.7z"></path>
			</g>
		</g>
		<g id="g3508_00000096041106469244681830000004808337920383264700_" transform="translate(358.4092,208.4092)">
			<g id="path3510_00000059289422204053780140000003242949607827417527_">
				<path class="st0" d="M-135.4-8.5c-1.8,0-3.6-0.7-5-2c-2.7-2.7-2.7-7.2,0-9.9l11.6-11.6c2.7-2.7,7.2-2.7,9.9,0      c2.7,2.7,2.7,7.2,0,9.9l-11.6,11.6C-131.9-9.2-133.6-8.5-135.4-8.5z"></path>
			</g>
		</g>
		<g id="g3512_00000138560098275562031640000007973101595336736412_" transform="translate(376,166)">
			<g id="path3514_00000083769195410007451390000010624520686878780064_">
				<path class="st0" d="M-126.9,57.2h-16.4c-3.9,0-7-3.1-7-7s3.1-7,7-7h16.4c3.9,0,7,3.1,7,7S-123.1,57.2-126.9,57.2z"></path>
			</g>
		</g>
		<g id="g3516_00000056397314162142113100000009784140094637871802_" transform="translate(316,76)">
			<g id="path3518_00000028287850064782001270000008547291845058376583_">
				<path class="st0" d="M-116.3,196.5c-3.9,0-7-3.1-7-7v-16.4c0-3.9,3.1-7,7-7s7,3.1,7,7v16.4      C-109.3,193.4-112.4,196.5-116.3,196.5z"></path>
			</g>
		</g>
		<g id="g3520_00000101808618352508212940000014342642601490834618_" transform="translate(316,226)">
			<g id="path3522_00000081612261531831820240000002625467036763922097_">
				<path class="st0" d="M-116.3-35.7c-3.9,0-7-3.1-7-7v-16.4c0-3.9,3.1-7,7-7s7,3.1,7,7v16.4C-109.3-38.8-112.4-35.7-116.3-35.7z"></path>
			</g>
		</g>
		<g id="g3544_00000087389656121152442030000004431213309838026927_" transform="translate(331,166)">
			<g id="path3546_00000039106307722178933860000005521743170506761607_">
				<path class="st0" d="M-123,50.2c0,4.5-3.7,8.2-8.2,8.2c-4.5,0-8.2-3.7-8.2-8.2s3.7-8.2,8.2-8.2C-126.7,42-123,45.6-123,50.2"></path>
			</g>
		</g>
	</g>
</g>
<g id="Layer_3">
</g>
</svg>
