<?xml version="1.0" encoding="UTF-8"?>
<!-- Generator: Adobe Illustrator 25.4.1, SVG Export Plug-In . SVG Version: 6.00 Build 0)  -->
<svg xmlns="http://www.w3.org/2000/svg" xmlns:xlink="http://www.w3.org/1999/xlink" version="1.1" x="0px" y="0px" viewBox="0 0 333.7 333.7" style="enable-background:new 0 0 333.7 333.7;" xml:space="preserve">
<style type="text/css">
	.st0{fill:#3BBFAD;}
	.st1{fill:#0C2949;}
	.st2{fill:none;}
	.st3{fill:#FFFFFF;}
	.st4{fill:#7B868C;}
	.st5{fill:none;stroke:#7B868C;stroke-width:0.5;stroke-miterlimit:10;}
	.st6{opacity:0.3;}
	.st7{fill-rule:evenodd;clip-rule:evenodd;fill:#DF1C54;}
	.st8{fill:#BC4A9B;}
	.st9{fill:none;stroke:#3BBFAD;stroke-width:14;stroke-miterlimit:10;}
	.st10{fill:none;stroke:#FBB040;stroke-width:14;stroke-miterlimit:10;}
	.st11{fill:#010101;}
	.st12{fill:#39BDAC;}
</style>
<g id="Layer_2">
</g>
<g id="Layer_1">
	<g>
		<path class="st3" d="M89.2,132.1h76.4c9.1,0,16.4-7.4,16.4-16.4V70.4c0-9.1-7.4-16.4-16.4-16.4H89.2c-9.1,0-16.4,7.4-16.4,16.4    v45.3C72.7,124.7,80.1,132.1,89.2,132.1z M86.7,70.4c0-1.3,1.1-2.4,2.4-2.4h76.4c1.3,0,2.4,1.1,2.4,2.4v45.3    c0,1.3-1.1,2.4-2.4,2.4H89.2c-1.3,0-2.4-1.1-2.4-2.4V70.4z"></path>
		<path class="st3" d="M306.2,107.4c-0.2-5.7-3.4-10.8-8.5-13.3l-27.5-13.8c-3.5-1.7-7.7-0.3-9.4,3.1c-1.7,3.5-0.3,7.7,3.1,9.4    l27.5,13.8c0.5,0.2,0.7,0.7,0.7,1.2v6.6l-24.4,12.2c-4.7,2.4-7.7,7.1-7.7,12.5v37c0,7.7,6.2,13.9,13.9,13.9h2.1v41.2    c0,5-4.1,9.1-9.1,9.1c-5,0-9.1-4.1-9.1-9.1V215c0-12.7-10.3-23.1-23.1-23.1h-25.1V45.6c0-9.6-7.8-17.4-17.4-17.4H62.3    c-9.6,0-17.4,7.8-17.4,17.4v246h-9.1c-3.9,0-7,3.1-7,7s3.1,7,7,7h183.1c3.9,0,7-3.1,7-7s-3.1-7-7-7h-9.1V206H235    c5,0,9.1,4.1,9.1,9.1v16.1c0,12.7,10.3,23.1,23.1,23.1c12.7,0,23.1-10.3,23.1-23.1v-41.2h2.1c7.7,0,13.9-6.2,13.9-13.9v-57.3    v-10.9L306.2,107.4L306.2,107.4z M62.3,42.2h130.2c1.9,0,3.4,1.5,3.4,3.4v98.2H58.9V45.6C58.9,43.7,60.4,42.2,62.3,42.2z     M58.9,291.5V157.8h136.9v133.7H58.9z M292.2,175.9h-18.1l0-36.8l18.2-9.1V175.9z"></path>
		<path class="st0" d="M154.6,223.6L127.7,177l-26.9,46.6c-2.7,4.7-4.2,10.1-4.2,15.5c0,17.1,13.9,31.1,31.1,31.1    s31.1-13.9,31.1-31.1C158.8,233.7,157.3,228.3,154.6,223.6z M127.7,256.2c-9.4,0-17.1-7.7-17.1-17.1c0-3,0.8-5.9,2.3-8.5    l14.8-25.6l14.8,25.7c1.5,2.6,2.3,5.5,2.3,8.5C144.8,248.5,137.1,256.2,127.7,256.2z"></path>
	</g>
</g>
<g id="Layer_3">
</g>
</svg>
