<?xml version="1.0" encoding="UTF-8"?>
<!-- Generator: Adobe Illustrator 25.4.1, SVG Export Plug-In . SVG Version: 6.00 Build 0)  -->
<svg xmlns="http://www.w3.org/2000/svg" xmlns:xlink="http://www.w3.org/1999/xlink" version="1.1" x="0px" y="0px" viewBox="0 0 333.7 333.7" style="enable-background:new 0 0 333.7 333.7;" xml:space="preserve">
<style type="text/css">
	.st0{fill:#3BBFAD;}
	.st1{fill:#0C2949;}
	.st2{fill:none;}
	.st3{fill:#FFFFFF;}
	.st4{fill:#7B868C;}
	.st5{fill:none;stroke:#7B868C;stroke-width:0.5;stroke-miterlimit:10;}
	.st6{opacity:0.3;}
	.st7{fill-rule:evenodd;clip-rule:evenodd;fill:#DF1C54;}
	.st8{fill:#BC4A9B;}
	.st9{fill:none;stroke:#3BBFAD;stroke-width:14;stroke-miterlimit:10;}
	.st10{fill:none;stroke:#FBB040;stroke-width:14;stroke-miterlimit:10;}
	.st11{fill:#010101;}
	.st12{fill:#39BDAC;}
</style>
<g id="Layer_2">
</g>
<g id="Layer_1">
	<g>
		<path class="st3" d="M218.6,192.6l-0.6-0.4V66.5c0-20.5-16.7-37.2-37.2-37.2c-20.5,0-37.2,16.7-37.2,37.2v125.7l-0.6,0.4    c-15.6,11.9-24.6,29.9-24.6,49.5c0,34.4,28,62.3,62.3,62.3c34.4,0,62.3-28,62.3-62.3C243.2,222.5,234.2,204.5,218.6,192.6z     M180.8,290.6c-26.7,0-48.5-21.7-48.5-48.5c0-16.4,8.2-31.5,22-40.5c2-1.3,3.1-3.5,3.1-5.8V66.5c0-12.9,10.5-23.3,23.3-23.3    c12.9,0,23.3,10.5,23.3,23.3v129.3c0,2.3,1.2,4.5,3.1,5.8c13.8,9,22,24.2,22,40.5C229.3,268.8,207.6,290.6,180.8,290.6z"></path>
		<path class="st0" d="M188.8,217l-1-0.3V105.6c0-3.8-3.1-6.9-6.9-6.9s-6.9,3.1-6.9,6.9v111.1l-1,0.3c-11,3.5-18.4,13.5-18.4,25.1    c0,14.5,11.8,26.3,26.3,26.3c14.5,0,26.3-11.8,26.3-26.3C207.1,230.6,199.7,220.5,188.8,217z"></path>
		<g>
			<path class="st3" d="M125,146.1H97.6c-3.9,0-7-3.1-7-7s3.1-7,7-7H125c3.9,0,7,3.1,7,7S128.9,146.1,125,146.1z"></path>
		</g>
		<g>
			<path class="st3" d="M125,90.5H97.6c-3.9,0-7-3.1-7-7s3.1-7,7-7H125c3.9,0,7,3.1,7,7S128.9,90.5,125,90.5z"></path>
		</g>
		<g>
			<path class="st3" d="M125,118.3h-13.7c-3.9,0-7-3.1-7-7s3.1-7,7-7H125c3.9,0,7,3.1,7,7S128.9,118.3,125,118.3z"></path>
		</g>
		<g>
			<path class="st3" d="M125,173.9h-13.7c-3.9,0-7-3.1-7-7s3.1-7,7-7H125c3.9,0,7,3.1,7,7S128.9,173.9,125,173.9z"></path>
		</g>
	</g>
</g>
<g id="Layer_3">
</g>
</svg>
