<?xml version="1.0" encoding="UTF-8"?>
<!-- Generator: Adobe Illustrator 25.4.1, SVG Export Plug-In . SVG Version: 6.00 Build 0)  -->
<svg xmlns="http://www.w3.org/2000/svg" xmlns:xlink="http://www.w3.org/1999/xlink" version="1.1" x="0px" y="0px" viewBox="0 0 333.7 333.7" style="enable-background:new 0 0 333.7 333.7;" xml:space="preserve">
<style type="text/css">
	.st0{fill:#3BBFAD;}
	.st1{fill:#0C2949;}
	.st2{fill:none;}
	.st3{fill:#FFFFFF;}
	.st4{fill:#7B868C;}
	.st5{fill:none;stroke:#7B868C;stroke-width:0.5;stroke-miterlimit:10;}
	.st6{opacity:0.3;}
	.st7{fill-rule:evenodd;clip-rule:evenodd;fill:#DF1C54;}
	.st8{fill:#BC4A9B;}
	.st9{fill:none;stroke:#3BBFAD;stroke-width:14;stroke-miterlimit:10;}
	.st10{fill:none;stroke:#FBB040;stroke-width:14;stroke-miterlimit:10;}
	.st11{fill:#010101;}
	.st12{fill:#39BDAC;}
</style>
<g id="Layer_2">
</g>
<g id="Layer_1">
	<g>
		<g>
			<path class="st3" d="M306.5,144.6v-42.4h-38c0.1,0.4,0.1,0.9,0.1,1.3c0.2,5-2.2,9.6-5.9,12.7h29.8v14.4h-48.6     c-3.2,4.5-8.5,7.6-14.1,7.6c-5.9,0-10.9-3.1-13.9-7.6H41.2v-14.4h149.6c-2.4-3-3.9-6.7-4.1-10.8c0-1.1,0-2.2,0.2-3.2H27.2v42.4     h7.2v103h-7.2v42.4h279.3v-42.4h-8v-103H306.5z M48.4,144.6h236.1v103H48.4V144.6z M292.5,276.1H41.2v-14.4h251.3V276.1z"></path>
			<path class="st3" d="M261,237.3c3.9,0,7-2.9,7-6.5v-65.5c0-3.6-3.1-6.5-7-6.5s-7,2.9-7,6.5v65.5C254,234.4,257.2,237.3,261,237.3     z"></path>
			<path class="st3" d="M223.4,237.3c3.9,0,7-2.9,7-6.5v-65.5c0-3.6-3.1-6.5-7-6.5s-7,2.9-7,6.5v65.5     C216.4,234.4,219.5,237.3,223.4,237.3z"></path>
			<path class="st3" d="M185.7,237.3c3.9,0,7-2.9,7-6.5v-65.5c0-3.6-3.1-6.5-7-6.5s-7,2.9-7,6.5v65.5     C178.7,234.4,181.8,237.3,185.7,237.3z"></path>
			<path class="st3" d="M148,237.3c3.9,0,7-2.9,7-6.5v-65.5c0-3.6-3.1-6.5-7-6.5s-7,2.9-7,6.5v65.5C141,234.4,144.2,237.3,148,237.3     z"></path>
			<path class="st3" d="M110.4,237.3c3.9,0,7-2.9,7-6.5v-65.5c0-3.6-3.1-6.5-7-6.5s-7,2.9-7,6.5v65.5     C103.4,234.4,106.5,237.3,110.4,237.3z"></path>
			<path class="st3" d="M72.7,237.3c3.9,0,7-2.9,7-6.5v-65.5c0-3.6-3.1-6.5-7-6.5s-7,2.9-7,6.5v65.5     C65.7,234.4,68.8,237.3,72.7,237.3z"></path>
		</g>
		<g>
			<g>
				<path class="st0" d="M228.4,43.7c-27.9,0-50.6,22.7-50.6,50.6c0,27.9,22.7,50.6,50.6,50.6c27.9,0,50.6-22.7,50.6-50.6      C279,66.4,256.3,43.7,228.4,43.7z M228.4,130.6c-20,0-36.4-16.3-36.4-36.4c0-20,16.3-36.4,36.4-36.4c20,0,36.4,16.3,36.4,36.4      C264.7,114.3,248.4,130.6,228.4,130.6z"></path>
			</g>
			<path class="st0" d="M242,78.6l-20.1,20.3l-8.1-8.1c-2.7-2.7-7.2-2.7-10,0c-1.3,1.3-2.1,3.1-2.1,5s0.7,3.7,2.1,5l13.1,13.1     c1.3,1.3,3.1,2.1,5,2.1c1.9,0,3.7-0.7,5-2.1l25-25.3c1.3-1.3,2-3.1,2-5c0-1.9-0.8-3.6-2.1-5c-1.3-1.3-3.1-2.1-5-2     C245.1,76.5,243.3,77.3,242,78.6z"></path>
		</g>
	</g>
</g>
<g id="Layer_3">
</g>
</svg>
